%TF.GenerationSoftware,KiCad,Pcbnew,(5.99.0-9829-g074f0432f0)*%
%TF.CreationDate,2021-07-27T15:24:35+02:00*%
%TF.ProjectId,KM217-WiFi,4b4d3231-372d-4576-9946-692e6b696361,0.0.1*%
%TF.SameCoordinates,Original*%
%TF.FileFunction,Legend,Bot*%
%TF.FilePolarity,Positive*%
%FSLAX46Y46*%
G04 Gerber Fmt 4.6, Leading zero omitted, Abs format (unit mm)*
G04 Created by KiCad (PCBNEW (5.99.0-9829-g074f0432f0)) date 2021-07-27 15:24:35*
%MOMM*%
%LPD*%
G01*
G04 APERTURE LIST*
%ADD10C,0.150000*%
%ADD11C,0.120000*%
G04 APERTURE END LIST*
D10*
%TO.C,R20*%
X159392857Y-108402380D02*
X159726190Y-107926190D01*
X159964285Y-108402380D02*
X159964285Y-107402380D01*
X159583333Y-107402380D01*
X159488095Y-107450000D01*
X159440476Y-107497619D01*
X159392857Y-107592857D01*
X159392857Y-107735714D01*
X159440476Y-107830952D01*
X159488095Y-107878571D01*
X159583333Y-107926190D01*
X159964285Y-107926190D01*
X159011904Y-107497619D02*
X158964285Y-107450000D01*
X158869047Y-107402380D01*
X158630952Y-107402380D01*
X158535714Y-107450000D01*
X158488095Y-107497619D01*
X158440476Y-107592857D01*
X158440476Y-107688095D01*
X158488095Y-107830952D01*
X159059523Y-108402380D01*
X158440476Y-108402380D01*
X157821428Y-107402380D02*
X157726190Y-107402380D01*
X157630952Y-107450000D01*
X157583333Y-107497619D01*
X157535714Y-107592857D01*
X157488095Y-107783333D01*
X157488095Y-108021428D01*
X157535714Y-108211904D01*
X157583333Y-108307142D01*
X157630952Y-108354761D01*
X157726190Y-108402380D01*
X157821428Y-108402380D01*
X157916666Y-108354761D01*
X157964285Y-108307142D01*
X158011904Y-108211904D01*
X158059523Y-108021428D01*
X158059523Y-107783333D01*
X158011904Y-107592857D01*
X157964285Y-107497619D01*
X157916666Y-107450000D01*
X157821428Y-107402380D01*
%TO.C,U3*%
X158978380Y-117602095D02*
X159787904Y-117602095D01*
X159883142Y-117649714D01*
X159930761Y-117697333D01*
X159978380Y-117792571D01*
X159978380Y-117983047D01*
X159930761Y-118078285D01*
X159883142Y-118125904D01*
X159787904Y-118173523D01*
X158978380Y-118173523D01*
X158978380Y-118554476D02*
X158978380Y-119173523D01*
X159359333Y-118840190D01*
X159359333Y-118983047D01*
X159406952Y-119078285D01*
X159454571Y-119125904D01*
X159549809Y-119173523D01*
X159787904Y-119173523D01*
X159883142Y-119125904D01*
X159930761Y-119078285D01*
X159978380Y-118983047D01*
X159978380Y-118697333D01*
X159930761Y-118602095D01*
X159883142Y-118554476D01*
%TO.C,C6*%
X161964666Y-125739142D02*
X162012285Y-125786761D01*
X162155142Y-125834380D01*
X162250380Y-125834380D01*
X162393238Y-125786761D01*
X162488476Y-125691523D01*
X162536095Y-125596285D01*
X162583714Y-125405809D01*
X162583714Y-125262952D01*
X162536095Y-125072476D01*
X162488476Y-124977238D01*
X162393238Y-124882000D01*
X162250380Y-124834380D01*
X162155142Y-124834380D01*
X162012285Y-124882000D01*
X161964666Y-124929619D01*
X161107523Y-124834380D02*
X161298000Y-124834380D01*
X161393238Y-124882000D01*
X161440857Y-124929619D01*
X161536095Y-125072476D01*
X161583714Y-125262952D01*
X161583714Y-125643904D01*
X161536095Y-125739142D01*
X161488476Y-125786761D01*
X161393238Y-125834380D01*
X161202761Y-125834380D01*
X161107523Y-125786761D01*
X161059904Y-125739142D01*
X161012285Y-125643904D01*
X161012285Y-125405809D01*
X161059904Y-125310571D01*
X161107523Y-125262952D01*
X161202761Y-125215333D01*
X161393238Y-125215333D01*
X161488476Y-125262952D01*
X161536095Y-125310571D01*
X161583714Y-125405809D01*
%TO.C,R12*%
X150145357Y-96464380D02*
X150478690Y-95988190D01*
X150716785Y-96464380D02*
X150716785Y-95464380D01*
X150335833Y-95464380D01*
X150240595Y-95512000D01*
X150192976Y-95559619D01*
X150145357Y-95654857D01*
X150145357Y-95797714D01*
X150192976Y-95892952D01*
X150240595Y-95940571D01*
X150335833Y-95988190D01*
X150716785Y-95988190D01*
X149192976Y-96464380D02*
X149764404Y-96464380D01*
X149478690Y-96464380D02*
X149478690Y-95464380D01*
X149573928Y-95607238D01*
X149669166Y-95702476D01*
X149764404Y-95750095D01*
X148812023Y-95559619D02*
X148764404Y-95512000D01*
X148669166Y-95464380D01*
X148431071Y-95464380D01*
X148335833Y-95512000D01*
X148288214Y-95559619D01*
X148240595Y-95654857D01*
X148240595Y-95750095D01*
X148288214Y-95892952D01*
X148859642Y-96464380D01*
X148240595Y-96464380D01*
%TO.C,R14*%
X150248857Y-102560380D02*
X150582190Y-102084190D01*
X150820285Y-102560380D02*
X150820285Y-101560380D01*
X150439333Y-101560380D01*
X150344095Y-101608000D01*
X150296476Y-101655619D01*
X150248857Y-101750857D01*
X150248857Y-101893714D01*
X150296476Y-101988952D01*
X150344095Y-102036571D01*
X150439333Y-102084190D01*
X150820285Y-102084190D01*
X149296476Y-102560380D02*
X149867904Y-102560380D01*
X149582190Y-102560380D02*
X149582190Y-101560380D01*
X149677428Y-101703238D01*
X149772666Y-101798476D01*
X149867904Y-101846095D01*
X148439333Y-101893714D02*
X148439333Y-102560380D01*
X148677428Y-101512761D02*
X148915523Y-102227047D01*
X148296476Y-102227047D01*
%TO.C,R29*%
X155138380Y-124325142D02*
X154662190Y-123991809D01*
X155138380Y-123753714D02*
X154138380Y-123753714D01*
X154138380Y-124134666D01*
X154186000Y-124229904D01*
X154233619Y-124277523D01*
X154328857Y-124325142D01*
X154471714Y-124325142D01*
X154566952Y-124277523D01*
X154614571Y-124229904D01*
X154662190Y-124134666D01*
X154662190Y-123753714D01*
X154233619Y-124706095D02*
X154186000Y-124753714D01*
X154138380Y-124848952D01*
X154138380Y-125087047D01*
X154186000Y-125182285D01*
X154233619Y-125229904D01*
X154328857Y-125277523D01*
X154424095Y-125277523D01*
X154566952Y-125229904D01*
X155138380Y-124658476D01*
X155138380Y-125277523D01*
X155138380Y-125753714D02*
X155138380Y-125944190D01*
X155090761Y-126039428D01*
X155043142Y-126087047D01*
X154900285Y-126182285D01*
X154709809Y-126229904D01*
X154328857Y-126229904D01*
X154233619Y-126182285D01*
X154186000Y-126134666D01*
X154138380Y-126039428D01*
X154138380Y-125848952D01*
X154186000Y-125753714D01*
X154233619Y-125706095D01*
X154328857Y-125658476D01*
X154566952Y-125658476D01*
X154662190Y-125706095D01*
X154709809Y-125753714D01*
X154757428Y-125848952D01*
X154757428Y-126039428D01*
X154709809Y-126134666D01*
X154662190Y-126182285D01*
X154566952Y-126229904D01*
%TO.C,R28*%
X159392857Y-97480380D02*
X159726190Y-97004190D01*
X159964285Y-97480380D02*
X159964285Y-96480380D01*
X159583333Y-96480380D01*
X159488095Y-96528000D01*
X159440476Y-96575619D01*
X159392857Y-96670857D01*
X159392857Y-96813714D01*
X159440476Y-96908952D01*
X159488095Y-96956571D01*
X159583333Y-97004190D01*
X159964285Y-97004190D01*
X159011904Y-96575619D02*
X158964285Y-96528000D01*
X158869047Y-96480380D01*
X158630952Y-96480380D01*
X158535714Y-96528000D01*
X158488095Y-96575619D01*
X158440476Y-96670857D01*
X158440476Y-96766095D01*
X158488095Y-96908952D01*
X159059523Y-97480380D01*
X158440476Y-97480380D01*
X157869047Y-96908952D02*
X157964285Y-96861333D01*
X158011904Y-96813714D01*
X158059523Y-96718476D01*
X158059523Y-96670857D01*
X158011904Y-96575619D01*
X157964285Y-96528000D01*
X157869047Y-96480380D01*
X157678571Y-96480380D01*
X157583333Y-96528000D01*
X157535714Y-96575619D01*
X157488095Y-96670857D01*
X157488095Y-96718476D01*
X157535714Y-96813714D01*
X157583333Y-96861333D01*
X157678571Y-96908952D01*
X157869047Y-96908952D01*
X157964285Y-96956571D01*
X158011904Y-97004190D01*
X158059523Y-97099428D01*
X158059523Y-97289904D01*
X158011904Y-97385142D01*
X157964285Y-97432761D01*
X157869047Y-97480380D01*
X157678571Y-97480380D01*
X157583333Y-97432761D01*
X157535714Y-97385142D01*
X157488095Y-97289904D01*
X157488095Y-97099428D01*
X157535714Y-97004190D01*
X157583333Y-96956571D01*
X157678571Y-96908952D01*
%TO.C,R13*%
X150248857Y-101036380D02*
X150582190Y-100560190D01*
X150820285Y-101036380D02*
X150820285Y-100036380D01*
X150439333Y-100036380D01*
X150344095Y-100084000D01*
X150296476Y-100131619D01*
X150248857Y-100226857D01*
X150248857Y-100369714D01*
X150296476Y-100464952D01*
X150344095Y-100512571D01*
X150439333Y-100560190D01*
X150820285Y-100560190D01*
X149296476Y-101036380D02*
X149867904Y-101036380D01*
X149582190Y-101036380D02*
X149582190Y-100036380D01*
X149677428Y-100179238D01*
X149772666Y-100274476D01*
X149867904Y-100322095D01*
X148963142Y-100036380D02*
X148344095Y-100036380D01*
X148677428Y-100417333D01*
X148534571Y-100417333D01*
X148439333Y-100464952D01*
X148391714Y-100512571D01*
X148344095Y-100607809D01*
X148344095Y-100845904D01*
X148391714Y-100941142D01*
X148439333Y-100988761D01*
X148534571Y-101036380D01*
X148820285Y-101036380D01*
X148915523Y-100988761D01*
X148963142Y-100941142D01*
%TO.C,R30*%
X164790380Y-127627142D02*
X164314190Y-127293809D01*
X164790380Y-127055714D02*
X163790380Y-127055714D01*
X163790380Y-127436666D01*
X163838000Y-127531904D01*
X163885619Y-127579523D01*
X163980857Y-127627142D01*
X164123714Y-127627142D01*
X164218952Y-127579523D01*
X164266571Y-127531904D01*
X164314190Y-127436666D01*
X164314190Y-127055714D01*
X163790380Y-127960476D02*
X163790380Y-128579523D01*
X164171333Y-128246190D01*
X164171333Y-128389047D01*
X164218952Y-128484285D01*
X164266571Y-128531904D01*
X164361809Y-128579523D01*
X164599904Y-128579523D01*
X164695142Y-128531904D01*
X164742761Y-128484285D01*
X164790380Y-128389047D01*
X164790380Y-128103333D01*
X164742761Y-128008095D01*
X164695142Y-127960476D01*
X163790380Y-129198571D02*
X163790380Y-129293809D01*
X163838000Y-129389047D01*
X163885619Y-129436666D01*
X163980857Y-129484285D01*
X164171333Y-129531904D01*
X164409428Y-129531904D01*
X164599904Y-129484285D01*
X164695142Y-129436666D01*
X164742761Y-129389047D01*
X164790380Y-129293809D01*
X164790380Y-129198571D01*
X164742761Y-129103333D01*
X164695142Y-129055714D01*
X164599904Y-129008095D01*
X164409428Y-128960476D01*
X164171333Y-128960476D01*
X163980857Y-129008095D01*
X163885619Y-129055714D01*
X163838000Y-129103333D01*
X163790380Y-129198571D01*
%TO.C,R4*%
X166568380Y-127595333D02*
X166092190Y-127262000D01*
X166568380Y-127023904D02*
X165568380Y-127023904D01*
X165568380Y-127404857D01*
X165616000Y-127500095D01*
X165663619Y-127547714D01*
X165758857Y-127595333D01*
X165901714Y-127595333D01*
X165996952Y-127547714D01*
X166044571Y-127500095D01*
X166092190Y-127404857D01*
X166092190Y-127023904D01*
X165901714Y-128452476D02*
X166568380Y-128452476D01*
X165520761Y-128214380D02*
X166235047Y-127976285D01*
X166235047Y-128595333D01*
%TO.C,R27*%
X159392857Y-106878380D02*
X159726190Y-106402190D01*
X159964285Y-106878380D02*
X159964285Y-105878380D01*
X159583333Y-105878380D01*
X159488095Y-105926000D01*
X159440476Y-105973619D01*
X159392857Y-106068857D01*
X159392857Y-106211714D01*
X159440476Y-106306952D01*
X159488095Y-106354571D01*
X159583333Y-106402190D01*
X159964285Y-106402190D01*
X159011904Y-105973619D02*
X158964285Y-105926000D01*
X158869047Y-105878380D01*
X158630952Y-105878380D01*
X158535714Y-105926000D01*
X158488095Y-105973619D01*
X158440476Y-106068857D01*
X158440476Y-106164095D01*
X158488095Y-106306952D01*
X159059523Y-106878380D01*
X158440476Y-106878380D01*
X158107142Y-105878380D02*
X157440476Y-105878380D01*
X157869047Y-106878380D01*
%TO.C,R16*%
X150248857Y-99512380D02*
X150582190Y-99036190D01*
X150820285Y-99512380D02*
X150820285Y-98512380D01*
X150439333Y-98512380D01*
X150344095Y-98560000D01*
X150296476Y-98607619D01*
X150248857Y-98702857D01*
X150248857Y-98845714D01*
X150296476Y-98940952D01*
X150344095Y-98988571D01*
X150439333Y-99036190D01*
X150820285Y-99036190D01*
X149296476Y-99512380D02*
X149867904Y-99512380D01*
X149582190Y-99512380D02*
X149582190Y-98512380D01*
X149677428Y-98655238D01*
X149772666Y-98750476D01*
X149867904Y-98798095D01*
X148439333Y-98512380D02*
X148629809Y-98512380D01*
X148725047Y-98560000D01*
X148772666Y-98607619D01*
X148867904Y-98750476D01*
X148915523Y-98940952D01*
X148915523Y-99321904D01*
X148867904Y-99417142D01*
X148820285Y-99464761D01*
X148725047Y-99512380D01*
X148534571Y-99512380D01*
X148439333Y-99464761D01*
X148391714Y-99417142D01*
X148344095Y-99321904D01*
X148344095Y-99083809D01*
X148391714Y-98988571D01*
X148439333Y-98940952D01*
X148534571Y-98893333D01*
X148725047Y-98893333D01*
X148820285Y-98940952D01*
X148867904Y-98988571D01*
X148915523Y-99083809D01*
%TO.C,R21*%
X159392857Y-95956380D02*
X159726190Y-95480190D01*
X159964285Y-95956380D02*
X159964285Y-94956380D01*
X159583333Y-94956380D01*
X159488095Y-95004000D01*
X159440476Y-95051619D01*
X159392857Y-95146857D01*
X159392857Y-95289714D01*
X159440476Y-95384952D01*
X159488095Y-95432571D01*
X159583333Y-95480190D01*
X159964285Y-95480190D01*
X159011904Y-95051619D02*
X158964285Y-95004000D01*
X158869047Y-94956380D01*
X158630952Y-94956380D01*
X158535714Y-95004000D01*
X158488095Y-95051619D01*
X158440476Y-95146857D01*
X158440476Y-95242095D01*
X158488095Y-95384952D01*
X159059523Y-95956380D01*
X158440476Y-95956380D01*
X157488095Y-95956380D02*
X158059523Y-95956380D01*
X157773809Y-95956380D02*
X157773809Y-94956380D01*
X157869047Y-95099238D01*
X157964285Y-95194476D01*
X158059523Y-95242095D01*
%TO.C,R15*%
X150248857Y-97988380D02*
X150582190Y-97512190D01*
X150820285Y-97988380D02*
X150820285Y-96988380D01*
X150439333Y-96988380D01*
X150344095Y-97036000D01*
X150296476Y-97083619D01*
X150248857Y-97178857D01*
X150248857Y-97321714D01*
X150296476Y-97416952D01*
X150344095Y-97464571D01*
X150439333Y-97512190D01*
X150820285Y-97512190D01*
X149296476Y-97988380D02*
X149867904Y-97988380D01*
X149582190Y-97988380D02*
X149582190Y-96988380D01*
X149677428Y-97131238D01*
X149772666Y-97226476D01*
X149867904Y-97274095D01*
X148391714Y-96988380D02*
X148867904Y-96988380D01*
X148915523Y-97464571D01*
X148867904Y-97416952D01*
X148772666Y-97369333D01*
X148534571Y-97369333D01*
X148439333Y-97416952D01*
X148391714Y-97464571D01*
X148344095Y-97559809D01*
X148344095Y-97797904D01*
X148391714Y-97893142D01*
X148439333Y-97940761D01*
X148534571Y-97988380D01*
X148772666Y-97988380D01*
X148867904Y-97940761D01*
X148915523Y-97893142D01*
D11*
%TO.C,R20*%
X162306724Y-108472500D02*
X161797276Y-108472500D01*
X162306724Y-107427500D02*
X161797276Y-107427500D01*
%TO.C,U3*%
X166786000Y-118364000D02*
X166786000Y-115604000D01*
X166786000Y-118364000D02*
X166786000Y-121124000D01*
X160366000Y-118364000D02*
X160366000Y-115604000D01*
X160366000Y-118364000D02*
X160366000Y-121124000D01*
X161111000Y-115604000D02*
X161111000Y-113914000D01*
X160366000Y-121124000D02*
X161111000Y-121124000D01*
X160366000Y-115604000D02*
X161111000Y-115604000D01*
X166786000Y-115604000D02*
X166041000Y-115604000D01*
X166786000Y-121124000D02*
X166041000Y-121124000D01*
%TO.C,C6*%
X161651733Y-124462000D02*
X161944267Y-124462000D01*
X161651733Y-123442000D02*
X161944267Y-123442000D01*
%TO.C,R12*%
X146049276Y-96534500D02*
X146558724Y-96534500D01*
X146049276Y-95489500D02*
X146558724Y-95489500D01*
%TO.C,R14*%
X146049276Y-101585500D02*
X146558724Y-101585500D01*
X146049276Y-102630500D02*
X146558724Y-102630500D01*
%TO.C,R29*%
X152639500Y-125222724D02*
X152639500Y-124713276D01*
X153684500Y-125222724D02*
X153684500Y-124713276D01*
%TO.C,R28*%
X162306724Y-96505500D02*
X161797276Y-96505500D01*
X162306724Y-97550500D02*
X161797276Y-97550500D01*
%TO.C,R13*%
X146049276Y-101106500D02*
X146558724Y-101106500D01*
X146049276Y-100061500D02*
X146558724Y-100061500D01*
%TO.C,R30*%
X164860500Y-125222724D02*
X164860500Y-124713276D01*
X163815500Y-125222724D02*
X163815500Y-124713276D01*
%TO.C,R4*%
X166638500Y-125222724D02*
X166638500Y-124713276D01*
X165593500Y-125222724D02*
X165593500Y-124713276D01*
%TO.C,R27*%
X162306724Y-105903500D02*
X161797276Y-105903500D01*
X162306724Y-106948500D02*
X161797276Y-106948500D01*
%TO.C,R16*%
X146049276Y-98537500D02*
X146558724Y-98537500D01*
X146049276Y-99582500D02*
X146558724Y-99582500D01*
%TO.C,R21*%
X162306724Y-94981500D02*
X161797276Y-94981500D01*
X162306724Y-96026500D02*
X161797276Y-96026500D01*
%TO.C,R15*%
X146049276Y-97013500D02*
X146558724Y-97013500D01*
X146049276Y-98058500D02*
X146558724Y-98058500D01*
%TD*%
M02*
