%TF.GenerationSoftware,KiCad,Pcbnew,(5.99.0-9829-g074f0432f0)*%
%TF.CreationDate,2021-07-27T15:24:35+02:00*%
%TF.ProjectId,KM217-WiFi,4b4d3231-372d-4576-9946-692e6b696361,0.0.1*%
%TF.SameCoordinates,Original*%
%TF.FileFunction,Copper,L2,Bot*%
%TF.FilePolarity,Positive*%
%FSLAX46Y46*%
G04 Gerber Fmt 4.6, Leading zero omitted, Abs format (unit mm)*
G04 Created by KiCad (PCBNEW (5.99.0-9829-g074f0432f0)) date 2021-07-27 15:24:35*
%MOMM*%
%LPD*%
G01*
G04 APERTURE LIST*
G04 Aperture macros list*
%AMRoundRect*
0 Rectangle with rounded corners*
0 $1 Rounding radius*
0 $2 $3 $4 $5 $6 $7 $8 $9 X,Y pos of 4 corners*
0 Add a 4 corners polygon primitive as box body*
4,1,4,$2,$3,$4,$5,$6,$7,$8,$9,$2,$3,0*
0 Add four circle primitives for the rounded corners*
1,1,$1+$1,$2,$3*
1,1,$1+$1,$4,$5*
1,1,$1+$1,$6,$7*
1,1,$1+$1,$8,$9*
0 Add four rect primitives between the rounded corners*
20,1,$1+$1,$2,$3,$4,$5,0*
20,1,$1+$1,$4,$5,$6,$7,0*
20,1,$1+$1,$6,$7,$8,$9,0*
20,1,$1+$1,$8,$9,$2,$3,0*%
G04 Aperture macros list end*
%TA.AperFunction,SMDPad,CuDef*%
%ADD10RoundRect,0.457200X-0.304800X-5.042800X0.304800X-5.042800X0.304800X5.042800X-0.304800X5.042800X0*%
%TD*%
%TA.AperFunction,ComponentPad*%
%ADD11R,1.700000X1.700000*%
%TD*%
%TA.AperFunction,ComponentPad*%
%ADD12O,1.700000X1.700000*%
%TD*%
%TA.AperFunction,SMDPad,CuDef*%
%ADD13RoundRect,0.237500X0.250000X0.237500X-0.250000X0.237500X-0.250000X-0.237500X0.250000X-0.237500X0*%
%TD*%
%TA.AperFunction,SMDPad,CuDef*%
%ADD14RoundRect,0.150000X-0.150000X0.800000X-0.150000X-0.800000X0.150000X-0.800000X0.150000X0.800000X0*%
%TD*%
%TA.AperFunction,SMDPad,CuDef*%
%ADD15RoundRect,0.237500X-0.300000X-0.237500X0.300000X-0.237500X0.300000X0.237500X-0.300000X0.237500X0*%
%TD*%
%TA.AperFunction,SMDPad,CuDef*%
%ADD16RoundRect,0.237500X-0.250000X-0.237500X0.250000X-0.237500X0.250000X0.237500X-0.250000X0.237500X0*%
%TD*%
%TA.AperFunction,SMDPad,CuDef*%
%ADD17RoundRect,0.237500X0.237500X-0.250000X0.237500X0.250000X-0.237500X0.250000X-0.237500X-0.250000X0*%
%TD*%
%TA.AperFunction,ViaPad*%
%ADD18C,0.800000*%
%TD*%
%TA.AperFunction,Conductor*%
%ADD19C,0.600000*%
%TD*%
%TA.AperFunction,Conductor*%
%ADD20C,0.500000*%
%TD*%
%TA.AperFunction,Conductor*%
%ADD21C,0.250000*%
%TD*%
G04 APERTURE END LIST*
D10*
%TO.P,J1,12,Pin_12*%
%TO.N,LM_P12*%
X105750000Y-118618000D03*
%TO.P,J1,10,Pin_10*%
%TO.N,LM_P10*%
X103210000Y-118618000D03*
%TO.P,J1,8,Pin_8*%
%TO.N,LM_P8*%
X100670000Y-118618000D03*
%TO.P,J1,6,Pin_6*%
%TO.N,LM_P6*%
X98130000Y-118618000D03*
%TO.P,J1,4,Pin_4*%
%TO.N,LM_P4*%
X95590000Y-118618000D03*
%TO.P,J1,2,Pin_2*%
%TO.N,LM_P2*%
X93050000Y-118618000D03*
%TD*%
D11*
%TO.P,J2,1,Pin_1*%
%TO.N,LM_P1*%
X85598000Y-100838000D03*
D12*
%TO.P,J2,2,Pin_2*%
%TO.N,+5V*%
X85598000Y-98298000D03*
%TO.P,J2,3,Pin_3*%
%TO.N,LM_P2*%
X88138000Y-100838000D03*
%TO.P,J2,4,Pin_4*%
%TO.N,GND*%
X88138000Y-98298000D03*
%TO.P,J2,5,Pin_5*%
%TO.N,LM_P3*%
X90678000Y-100838000D03*
%TO.P,J2,6,Pin_6*%
%TO.N,unconnected-(J2-Pad6)*%
X90678000Y-98298000D03*
%TO.P,J2,7,Pin_7*%
%TO.N,LM_P4*%
X93218000Y-100838000D03*
%TO.P,J2,8,Pin_8*%
%TO.N,unconnected-(J2-Pad8)*%
X93218000Y-98298000D03*
%TO.P,J2,9,Pin_9*%
%TO.N,LM_P5*%
X95758000Y-100838000D03*
%TO.P,J2,10,Pin_10*%
%TO.N,LM_RX*%
X95758000Y-98298000D03*
%TO.P,J2,11,Pin_11*%
%TO.N,LM_P6*%
X98298000Y-100838000D03*
%TO.P,J2,12,Pin_12*%
%TO.N,LM_TX*%
X98298000Y-98298000D03*
%TO.P,J2,13,Pin_13*%
%TO.N,LM_P7*%
X100838000Y-100838000D03*
%TO.P,J2,14,Pin_14*%
%TO.N,unconnected-(J2-Pad14)*%
X100838000Y-98298000D03*
%TO.P,J2,15,Pin_15*%
%TO.N,LM_P8*%
X103378000Y-100838000D03*
%TO.P,J2,16,Pin_16*%
%TO.N,unconnected-(J2-Pad16)*%
X103378000Y-98298000D03*
%TO.P,J2,17,Pin_17*%
%TO.N,LM_P9*%
X105918000Y-100838000D03*
%TO.P,J2,18,Pin_18*%
%TO.N,Net-(J2-Pad18)*%
X105918000Y-98298000D03*
%TO.P,J2,19,Pin_19*%
%TO.N,LM_P10*%
X108458000Y-100838000D03*
%TO.P,J2,20,Pin_20*%
%TO.N,Net-(J2-Pad20)*%
X108458000Y-98298000D03*
%TO.P,J2,21,Pin_21*%
%TO.N,LM_P11*%
X110998000Y-100838000D03*
%TO.P,J2,22,Pin_22*%
%TO.N,Net-(J2-Pad22)*%
X110998000Y-98298000D03*
%TO.P,J2,23,Pin_23*%
%TO.N,LM_P12*%
X113538000Y-100838000D03*
%TO.P,J2,24,Pin_24*%
%TO.N,Net-(J2-Pad24)*%
X113538000Y-98298000D03*
%TD*%
D11*
%TO.P,J3,1,Pin_1*%
%TO.N,LM_P1*%
X92964000Y-110241000D03*
D12*
%TO.P,J3,2,Pin_2*%
%TO.N,LM_P2*%
X92964000Y-107701000D03*
%TO.P,J3,3,Pin_3*%
%TO.N,LM_P3*%
X95504000Y-110241000D03*
%TO.P,J3,4,Pin_4*%
%TO.N,LM_P4*%
X95504000Y-107701000D03*
%TO.P,J3,5,Pin_5*%
%TO.N,LM_P5*%
X98044000Y-110241000D03*
%TO.P,J3,6,Pin_6*%
%TO.N,LM_P6*%
X98044000Y-107701000D03*
%TO.P,J3,7,Pin_7*%
%TO.N,LM_P7*%
X100584000Y-110241000D03*
%TO.P,J3,8,Pin_8*%
%TO.N,LM_P8*%
X100584000Y-107701000D03*
%TO.P,J3,9,Pin_9*%
%TO.N,LM_P9*%
X103124000Y-110241000D03*
%TO.P,J3,10,Pin_10*%
%TO.N,LM_P10*%
X103124000Y-107701000D03*
%TO.P,J3,11,Pin_11*%
%TO.N,LM_P11*%
X105664000Y-110241000D03*
%TO.P,J3,12,Pin_12*%
%TO.N,LM_P12*%
X105664000Y-107701000D03*
%TD*%
D11*
%TO.P,J4,1,Pin_1*%
%TO.N,+3V3*%
X124206000Y-94037000D03*
D12*
%TO.P,J4,2,Pin_2*%
%TO.N,ESP_IO0*%
X126746000Y-94037000D03*
%TO.P,J4,3,Pin_3*%
%TO.N,ESP_EN*%
X129286000Y-94037000D03*
%TO.P,J4,4,Pin_4*%
%TO.N,ESP_TX*%
X131826000Y-94037000D03*
%TO.P,J4,5,Pin_5*%
%TO.N,ESP_RX*%
X134366000Y-94037000D03*
%TO.P,J4,6,Pin_6*%
%TO.N,GND*%
X136906000Y-94037000D03*
%TD*%
D13*
%TO.P,R20,1*%
%TO.N,Net-(R20-Pad1)*%
X162964500Y-107950000D03*
%TO.P,R20,2*%
%TO.N,ESP_IO0*%
X161139500Y-107950000D03*
%TD*%
D14*
%TO.P,U3,1,A0*%
%TO.N,GND*%
X161671000Y-114864000D03*
%TO.P,U3,2,A1*%
X162941000Y-114864000D03*
%TO.P,U3,3,A2*%
X164211000Y-114864000D03*
%TO.P,U3,4,GND*%
X165481000Y-114864000D03*
%TO.P,U3,5,SDA*%
%TO.N,SDA*%
X165481000Y-121864000D03*
%TO.P,U3,6,SCL*%
%TO.N,SCL*%
X164211000Y-121864000D03*
%TO.P,U3,7,WP*%
%TO.N,GND*%
X162941000Y-121864000D03*
%TO.P,U3,8,VCC*%
%TO.N,+3V3*%
X161671000Y-121864000D03*
%TD*%
D15*
%TO.P,C6,1*%
%TO.N,+3V3*%
X160935500Y-123952000D03*
%TO.P,C6,2*%
%TO.N,GND*%
X162660500Y-123952000D03*
%TD*%
D16*
%TO.P,R12,1*%
%TO.N,ADC1_CH0*%
X145391500Y-96012000D03*
%TO.P,R12,2*%
%TO.N,GND*%
X147216500Y-96012000D03*
%TD*%
%TO.P,R14,1*%
%TO.N,ADC1_CH5*%
X145391500Y-102108000D03*
%TO.P,R14,2*%
%TO.N,GND*%
X147216500Y-102108000D03*
%TD*%
D17*
%TO.P,R29,1*%
%TO.N,+3V3*%
X153162000Y-125880500D03*
%TO.P,R29,2*%
%TO.N,ESP_EN*%
X153162000Y-124055500D03*
%TD*%
D13*
%TO.P,R28,1*%
%TO.N,+3V3*%
X162964500Y-97028000D03*
%TO.P,R28,2*%
%TO.N,ESP_TX*%
X161139500Y-97028000D03*
%TD*%
D16*
%TO.P,R13,1*%
%TO.N,ADC1_CH4*%
X145391500Y-100584000D03*
%TO.P,R13,2*%
%TO.N,GND*%
X147216500Y-100584000D03*
%TD*%
D17*
%TO.P,R30,1*%
%TO.N,+3V3*%
X164338000Y-125880500D03*
%TO.P,R30,2*%
%TO.N,SCL*%
X164338000Y-124055500D03*
%TD*%
%TO.P,R4,1*%
%TO.N,+3V3*%
X166116000Y-125880500D03*
%TO.P,R4,2*%
%TO.N,SDA*%
X166116000Y-124055500D03*
%TD*%
D13*
%TO.P,R27,1*%
%TO.N,+3V3*%
X162964500Y-106426000D03*
%TO.P,R27,2*%
%TO.N,ESP_IO0*%
X161139500Y-106426000D03*
%TD*%
D16*
%TO.P,R16,1*%
%TO.N,ADC1_CH7*%
X145391500Y-99060000D03*
%TO.P,R16,2*%
%TO.N,GND*%
X147216500Y-99060000D03*
%TD*%
D13*
%TO.P,R21,1*%
%TO.N,Net-(R21-Pad1)*%
X162964500Y-95504000D03*
%TO.P,R21,2*%
%TO.N,ESP_TX*%
X161139500Y-95504000D03*
%TD*%
D16*
%TO.P,R15,1*%
%TO.N,ADC1_CH6*%
X145391500Y-97536000D03*
%TO.P,R15,2*%
%TO.N,GND*%
X147216500Y-97536000D03*
%TD*%
D18*
%TO.N,GND*%
X133858000Y-111252000D03*
X134366000Y-118872000D03*
X152908000Y-114808000D03*
X140208000Y-110490000D03*
X156210000Y-128016000D03*
X130048000Y-128524000D03*
X121666000Y-106426000D03*
X133604000Y-102616000D03*
X169672000Y-92202000D03*
X89408000Y-92710000D03*
X88138000Y-113284000D03*
X82550000Y-97536000D03*
X113538000Y-125222000D03*
X85344000Y-128270000D03*
X121412000Y-92710000D03*
X89154000Y-108966000D03*
X151638000Y-94234000D03*
X153416000Y-102870000D03*
X104394000Y-103251000D03*
X170180000Y-99568000D03*
X132588000Y-124714000D03*
X107188000Y-102362000D03*
X113792000Y-128270000D03*
X139192000Y-121920000D03*
X79502000Y-91440000D03*
X166116000Y-97282000D03*
X132080000Y-96774000D03*
X80518000Y-111252000D03*
X148590000Y-102108000D03*
X71628000Y-91440000D03*
X77724000Y-113538000D03*
X94234000Y-103632000D03*
X160020000Y-105410000D03*
X153416000Y-91694000D03*
X96647000Y-103505000D03*
X159766000Y-116586000D03*
X138176000Y-98298000D03*
X111506000Y-112522000D03*
X72136000Y-113792000D03*
X164592000Y-109474000D03*
X141732000Y-91440000D03*
X152908000Y-107188000D03*
X159512000Y-93218000D03*
X109474000Y-108204000D03*
X111506000Y-93726000D03*
X147066000Y-122174000D03*
X148336000Y-91440000D03*
X102235000Y-103632000D03*
X104140000Y-93726000D03*
X121158000Y-118618000D03*
X128016000Y-92456000D03*
X165354000Y-103632000D03*
X97790000Y-93726000D03*
X122174000Y-114046000D03*
X88138000Y-95758000D03*
X72136000Y-106426000D03*
X130429000Y-108458000D03*
X115824000Y-109982000D03*
X129032000Y-118618000D03*
X136398000Y-102870000D03*
X155194000Y-122174000D03*
X136144000Y-96774000D03*
X157988000Y-102616000D03*
X129540000Y-103632000D03*
X134366000Y-128270000D03*
X95250000Y-95758000D03*
X89408000Y-102616000D03*
X155702000Y-94234000D03*
X147320000Y-114808000D03*
X122428000Y-110236000D03*
X157480000Y-99314000D03*
X122682000Y-103378000D03*
X153416000Y-94234000D03*
X102108000Y-96901000D03*
X170180000Y-107188000D03*
X90170000Y-111760000D03*
X155702000Y-111760000D03*
X128524000Y-98298000D03*
X140970000Y-104140000D03*
X99441000Y-103251000D03*
X165100000Y-100076000D03*
X159766000Y-114554000D03*
X91948000Y-95758000D03*
X83820000Y-92710000D03*
X147066000Y-128016000D03*
X71882000Y-101346000D03*
X156718000Y-116586000D03*
X81026000Y-122682000D03*
X75692000Y-96266000D03*
X152908000Y-105410000D03*
X78994000Y-101854000D03*
X94234000Y-92710000D03*
X118110000Y-125476000D03*
X71628000Y-128270000D03*
X162560000Y-111252000D03*
X104648000Y-96901000D03*
X143256000Y-121920000D03*
X79248000Y-107188000D03*
X142240000Y-114808000D03*
X118364000Y-128524000D03*
X114046000Y-103632000D03*
X116332000Y-101092000D03*
X119888000Y-93726000D03*
X92075000Y-103251000D03*
X138430000Y-105410000D03*
X131572000Y-111252000D03*
X87122000Y-102616000D03*
X167640000Y-122174000D03*
X156464000Y-107188000D03*
X167386000Y-115570000D03*
%TO.N,+3V3*%
X135636000Y-114554000D03*
X159258000Y-98806000D03*
X135636000Y-109474000D03*
%TO.N,+5V*%
X124587000Y-105410000D03*
X85344000Y-105410000D03*
X138430000Y-96520000D03*
X132080000Y-102362000D03*
%TO.N,Net-(J2-Pad20)*%
X118872000Y-100330000D03*
%TO.N,Net-(J2-Pad18)*%
X119634000Y-99314000D03*
%TO.N,LM_TX*%
X127000000Y-105664000D03*
X125730000Y-99060000D03*
%TO.N,LM_RX*%
X128270000Y-109982000D03*
X127000000Y-98806000D03*
%TO.N,ESP_EN*%
X153162000Y-122682000D03*
X138938000Y-94996000D03*
X150876000Y-112268000D03*
%TO.N,ESP_IO0*%
X161798000Y-109728000D03*
%TO.N,U1TX*%
X153162000Y-112268000D03*
X137414000Y-113284000D03*
%TO.N,U1RX*%
X152146000Y-112268000D03*
X137414000Y-111252000D03*
%TO.N,SDA*%
X150876000Y-117856000D03*
%TO.N,ADC1_CH0*%
X143510000Y-96012000D03*
%TO.N,ADC1_CH4*%
X143764000Y-100584000D03*
%TO.N,ADC1_CH5*%
X143764000Y-102108000D03*
%TO.N,ADC1_CH6*%
X144018000Y-97536000D03*
%TO.N,ADC1_CH7*%
X144018000Y-98806000D03*
%TO.N,Net-(R20-Pad1)*%
X164846000Y-107950000D03*
%TO.N,Net-(R21-Pad1)*%
X164846000Y-95504000D03*
%TO.N,Net-(R22-Pad1)*%
X148590000Y-104394000D03*
X135890000Y-98552000D03*
%TO.N,Net-(R23-Pad1)*%
X114300000Y-114554000D03*
X167132000Y-112776000D03*
%TO.N,Net-(R24-Pad1)*%
X116078000Y-114554000D03*
X167423000Y-109657948D03*
%TO.N,Net-(R25-Pad1)*%
X117856000Y-114554000D03*
X168148000Y-110490000D03*
%TO.N,Net-(R26-Pad1)*%
X119634000Y-114554000D03*
X137160000Y-114554000D03*
%TO.N,SCL*%
X163830000Y-118872000D03*
%TD*%
D19*
%TO.N,GND*%
X122682000Y-91440000D02*
X121412000Y-92710000D01*
X129540000Y-103632000D02*
X129032000Y-103124000D01*
D20*
X80518000Y-98298000D02*
X83820000Y-94996000D01*
D19*
X133604000Y-96774000D02*
X132080000Y-96774000D01*
X153416000Y-94234000D02*
X153416000Y-91694000D01*
D20*
X83820000Y-94996000D02*
X87376000Y-94996000D01*
X87376000Y-94996000D02*
X88138000Y-95758000D01*
D19*
X141732000Y-91440000D02*
X122682000Y-91440000D01*
X136144000Y-96774000D02*
X133604000Y-96774000D01*
D20*
X80518000Y-111252000D02*
X80518000Y-98298000D01*
D19*
X129032000Y-98806000D02*
X128524000Y-98298000D01*
X162941000Y-123671500D02*
X162660500Y-123952000D01*
X129032000Y-103124000D02*
X129032000Y-98806000D01*
X148590000Y-102108000D02*
X147216500Y-102108000D01*
X162941000Y-121864000D02*
X162941000Y-123671500D01*
D20*
%TO.N,+3V3*%
X163068000Y-98806000D02*
X163068000Y-106322500D01*
D19*
X160935500Y-123798500D02*
X160935500Y-123952000D01*
X161671000Y-121864000D02*
X161671000Y-123063000D01*
D20*
X166116000Y-106426000D02*
X169164000Y-109474000D01*
D19*
X130302000Y-102362000D02*
X130302000Y-98298000D01*
X135636000Y-114554000D02*
X135636000Y-109474000D01*
D20*
X163068000Y-98806000D02*
X163068000Y-97131500D01*
D19*
X135636000Y-104394000D02*
X134874000Y-103632000D01*
X128778000Y-96774000D02*
X124714000Y-96774000D01*
D20*
X169164000Y-124714000D02*
X167997500Y-125880500D01*
X166116000Y-125880500D02*
X164338000Y-125880500D01*
D19*
X161671000Y-123063000D02*
X160935500Y-123798500D01*
D20*
X160935500Y-125880500D02*
X160935500Y-123952000D01*
D19*
X130302000Y-98298000D02*
X128778000Y-96774000D01*
D20*
X163068000Y-97131500D02*
X162964500Y-97028000D01*
X163068000Y-106322500D02*
X162964500Y-106426000D01*
D19*
X131572000Y-103632000D02*
X130302000Y-102362000D01*
X124714000Y-96774000D02*
X124206000Y-96266000D01*
X134874000Y-103632000D02*
X131572000Y-103632000D01*
D20*
X162964500Y-106426000D02*
X166116000Y-106426000D01*
X164338000Y-125880500D02*
X160935500Y-125880500D01*
X153162000Y-125880500D02*
X160935500Y-125880500D01*
X159258000Y-98806000D02*
X163068000Y-98806000D01*
D19*
X135636000Y-109474000D02*
X135636000Y-104394000D01*
X124206000Y-96266000D02*
X124206000Y-94037000D01*
D20*
X169164000Y-109474000D02*
X169164000Y-124714000D01*
X167997500Y-125880500D02*
X166116000Y-125880500D01*
D21*
%TO.N,+5V*%
X132080000Y-102362000D02*
X132080000Y-98806000D01*
X85344000Y-105410000D02*
X124587000Y-105410000D01*
X132080000Y-98806000D02*
X133096000Y-97790000D01*
X136398000Y-97790000D02*
X137160000Y-97790000D01*
X137160000Y-97790000D02*
X138430000Y-96520000D01*
X133096000Y-97790000D02*
X136398000Y-97790000D01*
%TO.N,LM_P2*%
X94234000Y-108971000D02*
X94234000Y-111506000D01*
X94234000Y-111506000D02*
X93050000Y-112690000D01*
X92964000Y-107701000D02*
X94234000Y-108971000D01*
X93050000Y-112690000D02*
X93050000Y-118618000D01*
%TO.N,LM_P4*%
X95590000Y-112944000D02*
X95590000Y-118618000D01*
X96679011Y-111854989D02*
X95590000Y-112944000D01*
X95504000Y-107701000D02*
X96679011Y-108876011D01*
X96679011Y-108876011D02*
X96679011Y-111854989D01*
%TO.N,LM_P6*%
X99219011Y-111854989D02*
X98130000Y-112944000D01*
X99219011Y-108876011D02*
X99219011Y-111854989D01*
X98044000Y-107701000D02*
X99219011Y-108876011D01*
X98130000Y-112944000D02*
X98130000Y-118618000D01*
%TO.N,LM_P8*%
X100584000Y-107701000D02*
X101759011Y-108876011D01*
X101759011Y-108876011D02*
X101759011Y-111854989D01*
X101759011Y-111854989D02*
X100670000Y-112944000D01*
X100670000Y-112944000D02*
X100670000Y-118618000D01*
%TO.N,LM_P10*%
X103124000Y-107701000D02*
X104299011Y-108876011D01*
X103210000Y-112944000D02*
X103210000Y-118618000D01*
X104299011Y-108876011D02*
X104299011Y-111854989D01*
X104299011Y-111854989D02*
X103210000Y-112944000D01*
%TO.N,LM_P12*%
X105750000Y-112944000D02*
X105750000Y-118618000D01*
X106839011Y-108876011D02*
X106839011Y-111854989D01*
X106839011Y-111854989D02*
X105750000Y-112944000D01*
X105664000Y-107701000D02*
X106839011Y-108876011D01*
%TO.N,Net-(J2-Pad20)*%
X110236000Y-96520000D02*
X108458000Y-98298000D01*
X118872000Y-100330000D02*
X115062000Y-96520000D01*
X115062000Y-96520000D02*
X110236000Y-96520000D01*
%TO.N,Net-(J2-Pad18)*%
X119634000Y-99314000D02*
X116332000Y-96012000D01*
X108204000Y-96012000D02*
X105918000Y-98298000D01*
X116332000Y-96012000D02*
X108204000Y-96012000D01*
%TO.N,LM_TX*%
X127000000Y-100330000D02*
X125730000Y-99060000D01*
X127000000Y-105664000D02*
X127000000Y-100330000D01*
%TO.N,LM_RX*%
X128270000Y-109982000D02*
X128270000Y-100076000D01*
X128270000Y-100076000D02*
X127000000Y-98806000D01*
%TO.N,ESP_TX*%
X151130000Y-95504000D02*
X149098000Y-93472000D01*
X161139500Y-95504000D02*
X161139500Y-97028000D01*
X137922000Y-92202000D02*
X133661000Y-92202000D01*
X133661000Y-92202000D02*
X131826000Y-94037000D01*
X139192000Y-93472000D02*
X137922000Y-92202000D01*
X161139500Y-95504000D02*
X151130000Y-95504000D01*
X149098000Y-93472000D02*
X139192000Y-93472000D01*
%TO.N,ESP_EN*%
X149860000Y-105156000D02*
X149860000Y-96012000D01*
X153162000Y-122682000D02*
X153162000Y-124055500D01*
X150876000Y-112268000D02*
X150876000Y-106172000D01*
X148844000Y-94996000D02*
X149860000Y-96012000D01*
X138938000Y-94996000D02*
X148844000Y-94996000D01*
X150876000Y-106172000D02*
X149860000Y-105156000D01*
%TO.N,ESP_IO0*%
X138626983Y-94234000D02*
X137610983Y-95250000D01*
X127959000Y-95250000D02*
X126746000Y-94037000D01*
X161139500Y-106426000D02*
X151892000Y-106426000D01*
X161139500Y-109069500D02*
X161139500Y-107950000D01*
X148718424Y-94234000D02*
X138626983Y-94234000D01*
X161139500Y-107950000D02*
X161139500Y-106426000D01*
X161798000Y-109728000D02*
X161139500Y-109069500D01*
X137610983Y-95250000D02*
X127959000Y-95250000D01*
X150310020Y-104844020D02*
X150310020Y-95825596D01*
X150310020Y-95825596D02*
X148718424Y-94234000D01*
X151892000Y-106426000D02*
X150310020Y-104844020D01*
%TO.N,U1TX*%
X153162000Y-112522000D02*
X153162000Y-112268000D01*
X152146000Y-113538000D02*
X153162000Y-112522000D01*
X137668000Y-113538000D02*
X152146000Y-113538000D01*
X137414000Y-113284000D02*
X137668000Y-113538000D01*
%TO.N,U1RX*%
X152146000Y-112268000D02*
X151384000Y-113030000D01*
X139192000Y-113030000D02*
X137414000Y-111252000D01*
X151384000Y-113030000D02*
X139192000Y-113030000D01*
%TO.N,SDA*%
X165481000Y-118999000D02*
X165481000Y-121864000D01*
X150876000Y-117856000D02*
X164338000Y-117856000D01*
X165481000Y-121864000D02*
X165481000Y-123420500D01*
X164338000Y-117856000D02*
X165481000Y-118999000D01*
X165481000Y-123420500D02*
X166116000Y-124055500D01*
%TO.N,ADC1_CH0*%
X143510000Y-96012000D02*
X145391500Y-96012000D01*
%TO.N,ADC1_CH4*%
X143764000Y-100584000D02*
X145391500Y-100584000D01*
%TO.N,ADC1_CH5*%
X143764000Y-102108000D02*
X145391500Y-102108000D01*
%TO.N,ADC1_CH6*%
X144018000Y-97536000D02*
X145391500Y-97536000D01*
%TO.N,ADC1_CH7*%
X144780000Y-99060000D02*
X145391500Y-99060000D01*
X144272000Y-99060000D02*
X145391500Y-99060000D01*
X144018000Y-98806000D02*
X144272000Y-99060000D01*
%TO.N,Net-(R20-Pad1)*%
X162964500Y-107950000D02*
X164846000Y-107950000D01*
%TO.N,Net-(R21-Pad1)*%
X162964500Y-95504000D02*
X164846000Y-95504000D01*
%TO.N,Net-(R22-Pad1)*%
X135890000Y-98552000D02*
X140246020Y-102908020D01*
X140246020Y-102908020D02*
X147789980Y-102908020D01*
X147789980Y-102908020D02*
X148590000Y-103708040D01*
X148590000Y-103708040D02*
X148590000Y-104394000D01*
%TO.N,Net-(R23-Pad1)*%
X114300000Y-114554000D02*
X115062000Y-115316000D01*
X117856000Y-115316000D02*
X119634000Y-117094000D01*
X166624000Y-113284000D02*
X167132000Y-112776000D01*
X154432000Y-117094000D02*
X158242000Y-113284000D01*
X115062000Y-115316000D02*
X117856000Y-115316000D01*
X158242000Y-113284000D02*
X166624000Y-113284000D01*
X119634000Y-117094000D02*
X154432000Y-117094000D01*
%TO.N,Net-(R24-Pad1)*%
X118167017Y-113792000D02*
X116840000Y-113792000D01*
X167423000Y-110199000D02*
X165354000Y-112268000D01*
X165354000Y-112268000D02*
X157734000Y-112268000D01*
X167423000Y-109657948D02*
X167423000Y-110199000D01*
X157734000Y-112268000D02*
X153924000Y-116078000D01*
X116840000Y-113792000D02*
X116078000Y-114554000D01*
X120016424Y-116078000D02*
X118872000Y-114933576D01*
X118872000Y-114933576D02*
X118872000Y-114496983D01*
X118872000Y-114496983D02*
X118167017Y-113792000D01*
X153924000Y-116078000D02*
X120016424Y-116078000D01*
%TO.N,Net-(R25-Pad1)*%
X157988000Y-112776000D02*
X162560000Y-112776000D01*
X154178000Y-116586000D02*
X156718000Y-114046000D01*
X162560000Y-112776000D02*
X165862000Y-112776000D01*
X119888000Y-116586000D02*
X138430000Y-116586000D01*
X156718000Y-114046000D02*
X157988000Y-112776000D01*
X138430000Y-116586000D02*
X154178000Y-116586000D01*
X117856000Y-114554000D02*
X119888000Y-116586000D01*
X165862000Y-112776000D02*
X168148000Y-110490000D01*
%TO.N,Net-(R26-Pad1)*%
X120650000Y-115570000D02*
X136144000Y-115570000D01*
X119634000Y-114554000D02*
X120650000Y-115570000D01*
X136144000Y-115570000D02*
X137160000Y-114554000D01*
%TO.N,SCL*%
X164211000Y-123928500D02*
X164338000Y-124055500D01*
X164211000Y-121864000D02*
X164211000Y-123928500D01*
X163830000Y-118872000D02*
X164211000Y-119253000D01*
X164211000Y-119253000D02*
X164211000Y-121864000D01*
%TD*%
%TA.AperFunction,Conductor*%
%TO.N,GND*%
G36*
X171434121Y-90528002D02*
G01*
X171480614Y-90581658D01*
X171492000Y-90634000D01*
X171492000Y-129366000D01*
X171471998Y-129434121D01*
X171418342Y-129480614D01*
X171366000Y-129492000D01*
X112384000Y-129492000D01*
X112315879Y-129471998D01*
X112269386Y-129418342D01*
X112258000Y-129366000D01*
X112258000Y-119819622D01*
X121491746Y-119819622D01*
X121491984Y-119820454D01*
X121492000Y-119820692D01*
X121492000Y-125777622D01*
X121491998Y-125778392D01*
X121491746Y-125819622D01*
X121494212Y-125828250D01*
X121494212Y-125828251D01*
X121499859Y-125848013D01*
X121503436Y-125864770D01*
X121504303Y-125870820D01*
X121507620Y-125893982D01*
X121511335Y-125902152D01*
X121511336Y-125902156D01*
X121518224Y-125917305D01*
X121524673Y-125934833D01*
X121529248Y-125950842D01*
X121529251Y-125950849D01*
X121531716Y-125959474D01*
X121547472Y-125984445D01*
X121555605Y-125999519D01*
X121567822Y-126026389D01*
X121581090Y-126041787D01*
X121584550Y-126045803D01*
X121595654Y-126060810D01*
X121609331Y-126082486D01*
X121628294Y-126099233D01*
X121631453Y-126102023D01*
X121643500Y-126114219D01*
X121656905Y-126129777D01*
X121656909Y-126129780D01*
X121662766Y-126136578D01*
X121670295Y-126141458D01*
X121670296Y-126141459D01*
X121684271Y-126150517D01*
X121699145Y-126161807D01*
X121718351Y-126178769D01*
X121745077Y-126191317D01*
X121760048Y-126199633D01*
X121784821Y-126215690D01*
X121793425Y-126218263D01*
X121793427Y-126218264D01*
X121809377Y-126223034D01*
X121826822Y-126229696D01*
X121841887Y-126236769D01*
X121841889Y-126236769D01*
X121850013Y-126240584D01*
X121858877Y-126241964D01*
X121858886Y-126241967D01*
X121879180Y-126245127D01*
X121895891Y-126248908D01*
X121915572Y-126254793D01*
X121915575Y-126254793D01*
X121924174Y-126257365D01*
X121933146Y-126257420D01*
X121933147Y-126257420D01*
X121956998Y-126257566D01*
X121959838Y-126257684D01*
X121961865Y-126258000D01*
X122027622Y-126258000D01*
X122028392Y-126258002D01*
X122069622Y-126258254D01*
X122070454Y-126258016D01*
X122070692Y-126258000D01*
X128027622Y-126258000D01*
X128028392Y-126258002D01*
X128069622Y-126258254D01*
X128078251Y-126255788D01*
X128098013Y-126250141D01*
X128114770Y-126246564D01*
X128135097Y-126243653D01*
X128135100Y-126243652D01*
X128143982Y-126242380D01*
X128152152Y-126238665D01*
X128152156Y-126238664D01*
X128167305Y-126231776D01*
X128184833Y-126225327D01*
X128200842Y-126220752D01*
X128200849Y-126220749D01*
X128209474Y-126218284D01*
X128234445Y-126202528D01*
X128249519Y-126194395D01*
X128276389Y-126182178D01*
X128295803Y-126165450D01*
X128310810Y-126154346D01*
X128332486Y-126140669D01*
X128352026Y-126118544D01*
X128364219Y-126106500D01*
X128379777Y-126093095D01*
X128379780Y-126093091D01*
X128386578Y-126087234D01*
X128400517Y-126065729D01*
X128411807Y-126050855D01*
X128417630Y-126044262D01*
X128428769Y-126031649D01*
X128441317Y-126004923D01*
X128449633Y-125989952D01*
X128465690Y-125965179D01*
X128468264Y-125956573D01*
X128473034Y-125940623D01*
X128479696Y-125923178D01*
X128486769Y-125908113D01*
X128486769Y-125908111D01*
X128490584Y-125899987D01*
X128491964Y-125891123D01*
X128491967Y-125891114D01*
X128495127Y-125870820D01*
X128498908Y-125854109D01*
X128504793Y-125834428D01*
X128504793Y-125834425D01*
X128507365Y-125825826D01*
X128507566Y-125793002D01*
X128507684Y-125790162D01*
X128508000Y-125788135D01*
X128508000Y-125722378D01*
X128508002Y-125721608D01*
X128508161Y-125695524D01*
X128508254Y-125680378D01*
X128508016Y-125679546D01*
X128508000Y-125679308D01*
X128508000Y-119722378D01*
X128508002Y-119721608D01*
X128508037Y-119715939D01*
X128508254Y-119680378D01*
X128505788Y-119671749D01*
X128500141Y-119651987D01*
X128496564Y-119635230D01*
X128493653Y-119614903D01*
X128493652Y-119614900D01*
X128492380Y-119606018D01*
X128488665Y-119597848D01*
X128488664Y-119597844D01*
X128481776Y-119582695D01*
X128475327Y-119565167D01*
X128470752Y-119549158D01*
X128470749Y-119549151D01*
X128468284Y-119540526D01*
X128452528Y-119515555D01*
X128444395Y-119500481D01*
X128432178Y-119473611D01*
X128415450Y-119454197D01*
X128404346Y-119439190D01*
X128390669Y-119417514D01*
X128368544Y-119397974D01*
X128356500Y-119385781D01*
X128343095Y-119370223D01*
X128343091Y-119370220D01*
X128337234Y-119363422D01*
X128315729Y-119349483D01*
X128300855Y-119338193D01*
X128288378Y-119327174D01*
X128281649Y-119321231D01*
X128254923Y-119308683D01*
X128239952Y-119300367D01*
X128215179Y-119284310D01*
X128206575Y-119281737D01*
X128206573Y-119281736D01*
X128190623Y-119276966D01*
X128173178Y-119270304D01*
X128158113Y-119263231D01*
X128158111Y-119263231D01*
X128149987Y-119259416D01*
X128141123Y-119258036D01*
X128141114Y-119258033D01*
X128120820Y-119254873D01*
X128104109Y-119251092D01*
X128084428Y-119245207D01*
X128084425Y-119245207D01*
X128075826Y-119242635D01*
X128066854Y-119242580D01*
X128066853Y-119242580D01*
X128043002Y-119242434D01*
X128040162Y-119242316D01*
X128038135Y-119242000D01*
X127972378Y-119242000D01*
X127971608Y-119241998D01*
X127971052Y-119241995D01*
X127930378Y-119241746D01*
X127929546Y-119241984D01*
X127929308Y-119242000D01*
X121972378Y-119242000D01*
X121971608Y-119241998D01*
X121971352Y-119241996D01*
X121930378Y-119241746D01*
X121921750Y-119244212D01*
X121921749Y-119244212D01*
X121901987Y-119249859D01*
X121885230Y-119253436D01*
X121864903Y-119256347D01*
X121864900Y-119256348D01*
X121856018Y-119257620D01*
X121847848Y-119261335D01*
X121847844Y-119261336D01*
X121832695Y-119268224D01*
X121815167Y-119274673D01*
X121799158Y-119279248D01*
X121799151Y-119279251D01*
X121790526Y-119281716D01*
X121765555Y-119297472D01*
X121750481Y-119305605D01*
X121723611Y-119317822D01*
X121704197Y-119334550D01*
X121689190Y-119345654D01*
X121667514Y-119359331D01*
X121661572Y-119366059D01*
X121647977Y-119381453D01*
X121635781Y-119393500D01*
X121620223Y-119406905D01*
X121620220Y-119406909D01*
X121613422Y-119412766D01*
X121608542Y-119420295D01*
X121608541Y-119420296D01*
X121599483Y-119434271D01*
X121588193Y-119449145D01*
X121571231Y-119468351D01*
X121558683Y-119495077D01*
X121550367Y-119510048D01*
X121534310Y-119534821D01*
X121531737Y-119543425D01*
X121531736Y-119543427D01*
X121526966Y-119559377D01*
X121520304Y-119576822D01*
X121509416Y-119600013D01*
X121508036Y-119608877D01*
X121508033Y-119608886D01*
X121504873Y-119629180D01*
X121501092Y-119645891D01*
X121495942Y-119663114D01*
X121492635Y-119674174D01*
X121492580Y-119683146D01*
X121492580Y-119683147D01*
X121492434Y-119706998D01*
X121492316Y-119709838D01*
X121492000Y-119711865D01*
X121492000Y-119777622D01*
X121491998Y-119778392D01*
X121491746Y-119819622D01*
X112258000Y-119819622D01*
X112258000Y-114972378D01*
X112258002Y-114971608D01*
X112258037Y-114965939D01*
X112258254Y-114930378D01*
X112255079Y-114919269D01*
X112250141Y-114901987D01*
X112246564Y-114885230D01*
X112243653Y-114864903D01*
X112243652Y-114864900D01*
X112242380Y-114856018D01*
X112238665Y-114847848D01*
X112238664Y-114847844D01*
X112231776Y-114832695D01*
X112225327Y-114815167D01*
X112220752Y-114799158D01*
X112220749Y-114799151D01*
X112218284Y-114790526D01*
X112202528Y-114765555D01*
X112194395Y-114750481D01*
X112182178Y-114723611D01*
X112165450Y-114704197D01*
X112154346Y-114689190D01*
X112140669Y-114667514D01*
X112118544Y-114647974D01*
X112106500Y-114635781D01*
X112093095Y-114620223D01*
X112093091Y-114620220D01*
X112087234Y-114613422D01*
X112077518Y-114607124D01*
X112065729Y-114599483D01*
X112050855Y-114588193D01*
X112038378Y-114577174D01*
X112031649Y-114571231D01*
X112004923Y-114558683D01*
X111996492Y-114554000D01*
X113386500Y-114554000D01*
X113387190Y-114560565D01*
X113399229Y-114675105D01*
X113406462Y-114743927D01*
X113408501Y-114750203D01*
X113408502Y-114750206D01*
X113427728Y-114809377D01*
X113465476Y-114925554D01*
X113468779Y-114931276D01*
X113468780Y-114931277D01*
X113483630Y-114956998D01*
X113560963Y-115090942D01*
X113565381Y-115095849D01*
X113565382Y-115095850D01*
X113589355Y-115122475D01*
X113688749Y-115232863D01*
X113694091Y-115236744D01*
X113694093Y-115236746D01*
X113781937Y-115300568D01*
X113843250Y-115345114D01*
X113849278Y-115347798D01*
X113849280Y-115347799D01*
X114011682Y-115420105D01*
X114017713Y-115422790D01*
X114106305Y-115441621D01*
X114198056Y-115461124D01*
X114198061Y-115461124D01*
X114204513Y-115462496D01*
X114260402Y-115462496D01*
X114328523Y-115482498D01*
X114349497Y-115499401D01*
X114558609Y-115708513D01*
X114565969Y-115716601D01*
X114570027Y-115722995D01*
X114575804Y-115728420D01*
X114618878Y-115768869D01*
X114621720Y-115771624D01*
X114642034Y-115791938D01*
X114645445Y-115794583D01*
X114654465Y-115802287D01*
X114686699Y-115832557D01*
X114693643Y-115836374D01*
X114693645Y-115836376D01*
X114704453Y-115842318D01*
X114720977Y-115853172D01*
X114736977Y-115865583D01*
X114744248Y-115868730D01*
X114744249Y-115868730D01*
X114777551Y-115883141D01*
X114788207Y-115888362D01*
X114826952Y-115909662D01*
X114834635Y-115911634D01*
X114834636Y-115911635D01*
X114846568Y-115914699D01*
X114865272Y-115921103D01*
X114876583Y-115925998D01*
X114876590Y-115926000D01*
X114883864Y-115929148D01*
X114911663Y-115933551D01*
X114927538Y-115936065D01*
X114939163Y-115938473D01*
X114976218Y-115947987D01*
X114976220Y-115947987D01*
X114981975Y-115949465D01*
X114982531Y-115949500D01*
X115002447Y-115949500D01*
X115022157Y-115951051D01*
X115041945Y-115954185D01*
X115049836Y-115953439D01*
X115085591Y-115950059D01*
X115097449Y-115949500D01*
X117541406Y-115949500D01*
X117609527Y-115969502D01*
X117630501Y-115986405D01*
X119130609Y-117486513D01*
X119137969Y-117494601D01*
X119142027Y-117500995D01*
X119147804Y-117506420D01*
X119190878Y-117546869D01*
X119193720Y-117549624D01*
X119214034Y-117569938D01*
X119217445Y-117572583D01*
X119226465Y-117580287D01*
X119258699Y-117610557D01*
X119265643Y-117614374D01*
X119265645Y-117614376D01*
X119276453Y-117620318D01*
X119292977Y-117631172D01*
X119308977Y-117643583D01*
X119316248Y-117646730D01*
X119316249Y-117646730D01*
X119349551Y-117661141D01*
X119360207Y-117666362D01*
X119398952Y-117687662D01*
X119406635Y-117689634D01*
X119406636Y-117689635D01*
X119418568Y-117692699D01*
X119437272Y-117699103D01*
X119448583Y-117703998D01*
X119448590Y-117704000D01*
X119455864Y-117707148D01*
X119483663Y-117711551D01*
X119499538Y-117714065D01*
X119511163Y-117716473D01*
X119548218Y-117725987D01*
X119548220Y-117725987D01*
X119553975Y-117727465D01*
X119554531Y-117727500D01*
X119574447Y-117727500D01*
X119594157Y-117729051D01*
X119613945Y-117732185D01*
X119621836Y-117731439D01*
X119657591Y-117728059D01*
X119669449Y-117727500D01*
X149837190Y-117727500D01*
X149905311Y-117747502D01*
X149951804Y-117801158D01*
X149962902Y-117852176D01*
X149962500Y-117856000D01*
X149982462Y-118045927D01*
X150041476Y-118227554D01*
X150136963Y-118392942D01*
X150264749Y-118534863D01*
X150270091Y-118538744D01*
X150270093Y-118538746D01*
X150372007Y-118612790D01*
X150419250Y-118647114D01*
X150425278Y-118649798D01*
X150425280Y-118649799D01*
X150587682Y-118722105D01*
X150593713Y-118724790D01*
X150687113Y-118744643D01*
X150774056Y-118763124D01*
X150774061Y-118763124D01*
X150780513Y-118764496D01*
X150971487Y-118764496D01*
X150977939Y-118763124D01*
X150977944Y-118763124D01*
X151064887Y-118744643D01*
X151158287Y-118724790D01*
X151164318Y-118722105D01*
X151326720Y-118649799D01*
X151326722Y-118649798D01*
X151332750Y-118647114D01*
X151379993Y-118612790D01*
X151481907Y-118538746D01*
X151481909Y-118538744D01*
X151487251Y-118534863D01*
X151491673Y-118529952D01*
X151496575Y-118525538D01*
X151497701Y-118526789D01*
X151551000Y-118493951D01*
X151584194Y-118489500D01*
X162825609Y-118489500D01*
X162893730Y-118509502D01*
X162940223Y-118563158D01*
X162950327Y-118633432D01*
X162945443Y-118654431D01*
X162936462Y-118682073D01*
X162916500Y-118872000D01*
X162917190Y-118878565D01*
X162929127Y-118992134D01*
X162936462Y-119061927D01*
X162995476Y-119243554D01*
X162998779Y-119249276D01*
X162998780Y-119249277D01*
X163020273Y-119286504D01*
X163090963Y-119408942D01*
X163095381Y-119413849D01*
X163095382Y-119413850D01*
X163214327Y-119545952D01*
X163218749Y-119550863D01*
X163224091Y-119554744D01*
X163224093Y-119554746D01*
X163338222Y-119637665D01*
X163373250Y-119663114D01*
X163379278Y-119665798D01*
X163379280Y-119665799D01*
X163502749Y-119720771D01*
X163556845Y-119766751D01*
X163577500Y-119835878D01*
X163577500Y-120367427D01*
X163557498Y-120435548D01*
X163503842Y-120482041D01*
X163433568Y-120492145D01*
X163397852Y-120481435D01*
X163303055Y-120436827D01*
X163288087Y-120431964D01*
X163212794Y-120417600D01*
X163199755Y-120418871D01*
X163195000Y-120433793D01*
X163195000Y-121992000D01*
X163174998Y-122060121D01*
X163121342Y-122106614D01*
X163069000Y-122118000D01*
X162813000Y-122118000D01*
X162744879Y-122097998D01*
X162698386Y-122044342D01*
X162687000Y-121992000D01*
X162687000Y-120432253D01*
X162682925Y-120418376D01*
X162669574Y-120416339D01*
X162633984Y-120420835D01*
X162618751Y-120424746D01*
X162478966Y-120480091D01*
X162465184Y-120487668D01*
X162380191Y-120549419D01*
X162313323Y-120573278D01*
X162244171Y-120557197D01*
X162225814Y-120544567D01*
X162182629Y-120508841D01*
X162176521Y-120503788D01*
X162026033Y-120432974D01*
X162018250Y-120431489D01*
X162018246Y-120431488D01*
X161887852Y-120406614D01*
X161887849Y-120406614D01*
X161882011Y-120405500D01*
X161481421Y-120405500D01*
X161422307Y-120412968D01*
X161363859Y-120420351D01*
X161363856Y-120420352D01*
X161355994Y-120421345D01*
X161348628Y-120424262D01*
X161348626Y-120424262D01*
X161208725Y-120479653D01*
X161208723Y-120479654D01*
X161201356Y-120482571D01*
X161194945Y-120487229D01*
X161194943Y-120487230D01*
X161188178Y-120492145D01*
X161066803Y-120580329D01*
X160960788Y-120708479D01*
X160889974Y-120858967D01*
X160888489Y-120866750D01*
X160888488Y-120866754D01*
X160882338Y-120898994D01*
X160862500Y-121002989D01*
X160862500Y-122675918D01*
X160842498Y-122744039D01*
X160825595Y-122765013D01*
X160656983Y-122933625D01*
X160594671Y-122967651D01*
X160582484Y-122969681D01*
X160462733Y-122983643D01*
X160299233Y-123042990D01*
X160153771Y-123138359D01*
X160034151Y-123264633D01*
X159946788Y-123415039D01*
X159944667Y-123422043D01*
X159944665Y-123422047D01*
X159919227Y-123506039D01*
X159896369Y-123581509D01*
X159895794Y-123587948D01*
X159895794Y-123587950D01*
X159892412Y-123625851D01*
X159889500Y-123658475D01*
X159889500Y-124232385D01*
X159889924Y-124236019D01*
X159889924Y-124236024D01*
X159902936Y-124347629D01*
X159904643Y-124362267D01*
X159907141Y-124369149D01*
X159949247Y-124485149D01*
X159963990Y-124525767D01*
X160059359Y-124671229D01*
X160064671Y-124676261D01*
X160137653Y-124745397D01*
X160173351Y-124806766D01*
X160177000Y-124836870D01*
X160177000Y-124996000D01*
X160156998Y-125064121D01*
X160103342Y-125110614D01*
X160051000Y-125122000D01*
X153997586Y-125122000D01*
X153929465Y-125101998D01*
X153910933Y-125087472D01*
X153883732Y-125061704D01*
X153848034Y-125000335D01*
X153851182Y-124929408D01*
X153882912Y-124883235D01*
X153881229Y-124881641D01*
X153952158Y-124806766D01*
X154000849Y-124755367D01*
X154058401Y-124656284D01*
X154084536Y-124611290D01*
X154084537Y-124611289D01*
X154088212Y-124604961D01*
X154138631Y-124438491D01*
X154140661Y-124415750D01*
X154145251Y-124364318D01*
X154145251Y-124364312D01*
X154145500Y-124361525D01*
X154145500Y-123762615D01*
X154143643Y-123746682D01*
X154131205Y-123640006D01*
X154130357Y-123632733D01*
X154084370Y-123506039D01*
X154073507Y-123476112D01*
X154073507Y-123476111D01*
X154071010Y-123469233D01*
X153975641Y-123323771D01*
X153960465Y-123309395D01*
X153924767Y-123248027D01*
X153927914Y-123177100D01*
X153937999Y-123154922D01*
X153993220Y-123059277D01*
X153993221Y-123059276D01*
X153996524Y-123053554D01*
X154024160Y-122968500D01*
X154053498Y-122878206D01*
X154053498Y-122878205D01*
X154055538Y-122871927D01*
X154068980Y-122744039D01*
X154074810Y-122688565D01*
X154075500Y-122682000D01*
X154055538Y-122492073D01*
X153996524Y-122310446D01*
X153901037Y-122145058D01*
X153773251Y-122003137D01*
X153767909Y-121999256D01*
X153767907Y-121999254D01*
X153624092Y-121894767D01*
X153624091Y-121894766D01*
X153618750Y-121890886D01*
X153612722Y-121888202D01*
X153612720Y-121888201D01*
X153450318Y-121815895D01*
X153450317Y-121815895D01*
X153444287Y-121813210D01*
X153350887Y-121793357D01*
X153263944Y-121774876D01*
X153263939Y-121774876D01*
X153257487Y-121773504D01*
X153066513Y-121773504D01*
X153060061Y-121774876D01*
X153060056Y-121774876D01*
X152973113Y-121793357D01*
X152879713Y-121813210D01*
X152873683Y-121815895D01*
X152873682Y-121815895D01*
X152711280Y-121888201D01*
X152711278Y-121888202D01*
X152705250Y-121890886D01*
X152699909Y-121894766D01*
X152699908Y-121894767D01*
X152556093Y-121999254D01*
X152556091Y-121999256D01*
X152550749Y-122003137D01*
X152422963Y-122145058D01*
X152327476Y-122310446D01*
X152268462Y-122492073D01*
X152248500Y-122682000D01*
X152249190Y-122688565D01*
X152255021Y-122744039D01*
X152268462Y-122871927D01*
X152270502Y-122878205D01*
X152270502Y-122878206D01*
X152299840Y-122968500D01*
X152327476Y-123053554D01*
X152330779Y-123059276D01*
X152330780Y-123059277D01*
X152387199Y-123156997D01*
X152403937Y-123225992D01*
X152380717Y-123293084D01*
X152369555Y-123306647D01*
X152323151Y-123355633D01*
X152288645Y-123415039D01*
X152241332Y-123496495D01*
X152235788Y-123506039D01*
X152233667Y-123513043D01*
X152233665Y-123513047D01*
X152202166Y-123617051D01*
X152185369Y-123672509D01*
X152178500Y-123749475D01*
X152178500Y-124348385D01*
X152178924Y-124352019D01*
X152178924Y-124352024D01*
X152191801Y-124462468D01*
X152193643Y-124478267D01*
X152196141Y-124485149D01*
X152241928Y-124611290D01*
X152252990Y-124641767D01*
X152348359Y-124787229D01*
X152373298Y-124810854D01*
X152440268Y-124874295D01*
X152475966Y-124935664D01*
X152472819Y-125006591D01*
X152441088Y-125052765D01*
X152442771Y-125054359D01*
X152323151Y-125180633D01*
X152235788Y-125331039D01*
X152185369Y-125497509D01*
X152184794Y-125503948D01*
X152184794Y-125503950D01*
X152179344Y-125565022D01*
X152178500Y-125574475D01*
X152178500Y-126173385D01*
X152178924Y-126177019D01*
X152178924Y-126177024D01*
X152188393Y-126258239D01*
X152193643Y-126303267D01*
X152252990Y-126466767D01*
X152348359Y-126612229D01*
X152474633Y-126731849D01*
X152570706Y-126787653D01*
X152599723Y-126804507D01*
X152625039Y-126819212D01*
X152632043Y-126821333D01*
X152632047Y-126821335D01*
X152736051Y-126852834D01*
X152791509Y-126869631D01*
X152797948Y-126870206D01*
X152797950Y-126870206D01*
X152865682Y-126876251D01*
X152865688Y-126876251D01*
X152868475Y-126876500D01*
X153442385Y-126876500D01*
X153446019Y-126876076D01*
X153446024Y-126876076D01*
X153564994Y-126862205D01*
X153572267Y-126861357D01*
X153579149Y-126858859D01*
X153728888Y-126804507D01*
X153728889Y-126804507D01*
X153735767Y-126802010D01*
X153881229Y-126706641D01*
X153908032Y-126678347D01*
X153969401Y-126642649D01*
X153999505Y-126639000D01*
X160910301Y-126639000D01*
X160918102Y-126639242D01*
X160976789Y-126642883D01*
X160984004Y-126641643D01*
X160984008Y-126641643D01*
X160988796Y-126640820D01*
X161010134Y-126639000D01*
X163502414Y-126639000D01*
X163570535Y-126659002D01*
X163589065Y-126673525D01*
X163650633Y-126731849D01*
X163746706Y-126787653D01*
X163775723Y-126804507D01*
X163801039Y-126819212D01*
X163808043Y-126821333D01*
X163808047Y-126821335D01*
X163912051Y-126852834D01*
X163967509Y-126869631D01*
X163973948Y-126870206D01*
X163973950Y-126870206D01*
X164041682Y-126876251D01*
X164041688Y-126876251D01*
X164044475Y-126876500D01*
X164618385Y-126876500D01*
X164622019Y-126876076D01*
X164622024Y-126876076D01*
X164740994Y-126862205D01*
X164748267Y-126861357D01*
X164755149Y-126858859D01*
X164904888Y-126804507D01*
X164904889Y-126804507D01*
X164911767Y-126802010D01*
X165057229Y-126706641D01*
X165084032Y-126678347D01*
X165145401Y-126642649D01*
X165175505Y-126639000D01*
X165280414Y-126639000D01*
X165348535Y-126659002D01*
X165367065Y-126673525D01*
X165428633Y-126731849D01*
X165524706Y-126787653D01*
X165553723Y-126804507D01*
X165579039Y-126819212D01*
X165586043Y-126821333D01*
X165586047Y-126821335D01*
X165690051Y-126852834D01*
X165745509Y-126869631D01*
X165751948Y-126870206D01*
X165751950Y-126870206D01*
X165819682Y-126876251D01*
X165819688Y-126876251D01*
X165822475Y-126876500D01*
X166396385Y-126876500D01*
X166400019Y-126876076D01*
X166400024Y-126876076D01*
X166518994Y-126862205D01*
X166526267Y-126861357D01*
X166533149Y-126858859D01*
X166682888Y-126804507D01*
X166682889Y-126804507D01*
X166689767Y-126802010D01*
X166835229Y-126706641D01*
X166862032Y-126678347D01*
X166923401Y-126642649D01*
X166953505Y-126639000D01*
X167931513Y-126639000D01*
X167950463Y-126640433D01*
X167963620Y-126642435D01*
X167963624Y-126642435D01*
X167970854Y-126643535D01*
X167978146Y-126642942D01*
X167978149Y-126642942D01*
X168021510Y-126639415D01*
X168031724Y-126639000D01*
X168040386Y-126639000D01*
X168044020Y-126638576D01*
X168044024Y-126638576D01*
X168069983Y-126635549D01*
X168074362Y-126635116D01*
X168083147Y-126634401D01*
X168147105Y-126629200D01*
X168154068Y-126626944D01*
X168159956Y-126625768D01*
X168165873Y-126624370D01*
X168173143Y-126623522D01*
X168241767Y-126598613D01*
X168245895Y-126597196D01*
X168308368Y-126576958D01*
X168308373Y-126576956D01*
X168315330Y-126574702D01*
X168321584Y-126570907D01*
X168327062Y-126568399D01*
X168332481Y-126565685D01*
X168339364Y-126563187D01*
X168400423Y-126523155D01*
X168404112Y-126520828D01*
X168428330Y-126506132D01*
X168461708Y-126485878D01*
X168461712Y-126485875D01*
X168466506Y-126482966D01*
X168475810Y-126474749D01*
X168478394Y-126472528D01*
X168481124Y-126470245D01*
X168487247Y-126466231D01*
X168536377Y-126414368D01*
X168538755Y-126411926D01*
X169653678Y-125297003D01*
X169668089Y-125284618D01*
X169684706Y-125272389D01*
X169717618Y-125233649D01*
X169724548Y-125226133D01*
X169730665Y-125220016D01*
X169732938Y-125217143D01*
X169732946Y-125217134D01*
X169749146Y-125196657D01*
X169751937Y-125193253D01*
X169794455Y-125143206D01*
X169794456Y-125143204D01*
X169799197Y-125137624D01*
X169802525Y-125131106D01*
X169805877Y-125126081D01*
X169809054Y-125120936D01*
X169813594Y-125115198D01*
X169838596Y-125061704D01*
X169844489Y-125049095D01*
X169846420Y-125045145D01*
X169876286Y-124986655D01*
X169876287Y-124986653D01*
X169879615Y-124980135D01*
X169881354Y-124973028D01*
X169883456Y-124967377D01*
X169885369Y-124961627D01*
X169888467Y-124954998D01*
X169889956Y-124947838D01*
X169889960Y-124947827D01*
X169903339Y-124883507D01*
X169904309Y-124879220D01*
X169920310Y-124813828D01*
X169920311Y-124813822D01*
X169921645Y-124808370D01*
X169922414Y-124795976D01*
X169922671Y-124792579D01*
X169922987Y-124789039D01*
X169924478Y-124781871D01*
X169922546Y-124710484D01*
X169922500Y-124707076D01*
X169922500Y-109539987D01*
X169923933Y-109521037D01*
X169925935Y-109507880D01*
X169925935Y-109507876D01*
X169927035Y-109500646D01*
X169925548Y-109482355D01*
X169922915Y-109449990D01*
X169922500Y-109439776D01*
X169922500Y-109431114D01*
X169921530Y-109422791D01*
X169919049Y-109401517D01*
X169918616Y-109397138D01*
X169916986Y-109377100D01*
X169912700Y-109324395D01*
X169910444Y-109317432D01*
X169909268Y-109311544D01*
X169907870Y-109305627D01*
X169907022Y-109298357D01*
X169882113Y-109229733D01*
X169880696Y-109225605D01*
X169860458Y-109163132D01*
X169860456Y-109163127D01*
X169858202Y-109156170D01*
X169854407Y-109149916D01*
X169851899Y-109144438D01*
X169849185Y-109139019D01*
X169846687Y-109132136D01*
X169838243Y-109119256D01*
X169831342Y-109108731D01*
X169806655Y-109071077D01*
X169804318Y-109067373D01*
X169793253Y-109049137D01*
X169782300Y-109031088D01*
X169769378Y-109009792D01*
X169769375Y-109009788D01*
X169766466Y-109004994D01*
X169758249Y-108995690D01*
X169756028Y-108993106D01*
X169753745Y-108990376D01*
X169749731Y-108984253D01*
X169697868Y-108935123D01*
X169695426Y-108932745D01*
X166699003Y-105936322D01*
X166686615Y-105921908D01*
X166678729Y-105911192D01*
X166674389Y-105905294D01*
X166635650Y-105872382D01*
X166628133Y-105865452D01*
X166622016Y-105859335D01*
X166619143Y-105857062D01*
X166619134Y-105857054D01*
X166598657Y-105840854D01*
X166595253Y-105838063D01*
X166545206Y-105795545D01*
X166545204Y-105795544D01*
X166539624Y-105790803D01*
X166533106Y-105787475D01*
X166528081Y-105784123D01*
X166522936Y-105780946D01*
X166517198Y-105776406D01*
X166489989Y-105763689D01*
X166451095Y-105745511D01*
X166447145Y-105743580D01*
X166388655Y-105713714D01*
X166388653Y-105713713D01*
X166382135Y-105710385D01*
X166375028Y-105708646D01*
X166369377Y-105706544D01*
X166363627Y-105704631D01*
X166356998Y-105701533D01*
X166349838Y-105700044D01*
X166349827Y-105700040D01*
X166285507Y-105686661D01*
X166281220Y-105685691D01*
X166215828Y-105669690D01*
X166215822Y-105669689D01*
X166210370Y-105668355D01*
X166204766Y-105668007D01*
X166204764Y-105668007D01*
X166197976Y-105667586D01*
X166194579Y-105667329D01*
X166191039Y-105667013D01*
X166183871Y-105665522D01*
X166176554Y-105665720D01*
X166128461Y-105667022D01*
X166117103Y-105667329D01*
X166112484Y-105667454D01*
X166109075Y-105667500D01*
X163952500Y-105667500D01*
X163884379Y-105647498D01*
X163837886Y-105593842D01*
X163826500Y-105541500D01*
X163826500Y-98831199D01*
X163826742Y-98823397D01*
X163830383Y-98764711D01*
X163828320Y-98752704D01*
X163826500Y-98731366D01*
X163826500Y-97730969D01*
X163843546Y-97667683D01*
X163852117Y-97652928D01*
X163881833Y-97601767D01*
X163899536Y-97571290D01*
X163899537Y-97571289D01*
X163903212Y-97564961D01*
X163907566Y-97550588D01*
X163951756Y-97404681D01*
X163953631Y-97398491D01*
X163954206Y-97392050D01*
X163960251Y-97324318D01*
X163960251Y-97324312D01*
X163960500Y-97321525D01*
X163960500Y-96747615D01*
X163958643Y-96731682D01*
X163946205Y-96625006D01*
X163945357Y-96617733D01*
X163897239Y-96485169D01*
X163888507Y-96461112D01*
X163888507Y-96461111D01*
X163886010Y-96454233D01*
X163809317Y-96337256D01*
X163788694Y-96269322D01*
X163808074Y-96201021D01*
X163811697Y-96195750D01*
X163815849Y-96191367D01*
X163818176Y-96187361D01*
X163874112Y-96145459D01*
X163918184Y-96137500D01*
X164137806Y-96137500D01*
X164205927Y-96157502D01*
X164225151Y-96173842D01*
X164225425Y-96173538D01*
X164230327Y-96177952D01*
X164234749Y-96182863D01*
X164240091Y-96186744D01*
X164240093Y-96186746D01*
X164353750Y-96269322D01*
X164389250Y-96295114D01*
X164395278Y-96297798D01*
X164395280Y-96297799D01*
X164488509Y-96339307D01*
X164563713Y-96372790D01*
X164647342Y-96390566D01*
X164744056Y-96411124D01*
X164744061Y-96411124D01*
X164750513Y-96412496D01*
X164941487Y-96412496D01*
X164947939Y-96411124D01*
X164947944Y-96411124D01*
X165044658Y-96390566D01*
X165128287Y-96372790D01*
X165203491Y-96339307D01*
X165296720Y-96297799D01*
X165296722Y-96297798D01*
X165302750Y-96295114D01*
X165338250Y-96269322D01*
X165451907Y-96186746D01*
X165451909Y-96186744D01*
X165457251Y-96182863D01*
X165493393Y-96142723D01*
X165580618Y-96045850D01*
X165580619Y-96045849D01*
X165585037Y-96040942D01*
X165675648Y-95884000D01*
X165677220Y-95881277D01*
X165677221Y-95881276D01*
X165680524Y-95875554D01*
X165715939Y-95766557D01*
X165737498Y-95700206D01*
X165737498Y-95700205D01*
X165739538Y-95693927D01*
X165740583Y-95683990D01*
X165758810Y-95510565D01*
X165759500Y-95504000D01*
X165755640Y-95467275D01*
X165740228Y-95320637D01*
X165740228Y-95320636D01*
X165739538Y-95314073D01*
X165728451Y-95279949D01*
X165682566Y-95138731D01*
X165680524Y-95132446D01*
X165676762Y-95125929D01*
X165588338Y-94972776D01*
X165585037Y-94967058D01*
X165514979Y-94889250D01*
X165461673Y-94830048D01*
X165461672Y-94830047D01*
X165457251Y-94825137D01*
X165451909Y-94821256D01*
X165451907Y-94821254D01*
X165308092Y-94716767D01*
X165308091Y-94716766D01*
X165302750Y-94712886D01*
X165296722Y-94710202D01*
X165296720Y-94710201D01*
X165134318Y-94637895D01*
X165134317Y-94637895D01*
X165128287Y-94635210D01*
X165034887Y-94615357D01*
X164947944Y-94596876D01*
X164947939Y-94596876D01*
X164941487Y-94595504D01*
X164750513Y-94595504D01*
X164744061Y-94596876D01*
X164744056Y-94596876D01*
X164657113Y-94615357D01*
X164563713Y-94635210D01*
X164557683Y-94637895D01*
X164557682Y-94637895D01*
X164395280Y-94710201D01*
X164395278Y-94710202D01*
X164389250Y-94712886D01*
X164383909Y-94716766D01*
X164383908Y-94716767D01*
X164240093Y-94821254D01*
X164240091Y-94821256D01*
X164234749Y-94825137D01*
X164230328Y-94830047D01*
X164225425Y-94834462D01*
X164224299Y-94833211D01*
X164171000Y-94866049D01*
X164137806Y-94870500D01*
X163914904Y-94870500D01*
X163846783Y-94850498D01*
X163809531Y-94813584D01*
X163794651Y-94790888D01*
X163790641Y-94784771D01*
X163664367Y-94665151D01*
X163543576Y-94594990D01*
X163520290Y-94581464D01*
X163520289Y-94581463D01*
X163513961Y-94577788D01*
X163506957Y-94575667D01*
X163506953Y-94575665D01*
X163383057Y-94538141D01*
X163347491Y-94527369D01*
X163341052Y-94526794D01*
X163341050Y-94526794D01*
X163273318Y-94520749D01*
X163273312Y-94520749D01*
X163270525Y-94520500D01*
X162671615Y-94520500D01*
X162667981Y-94520924D01*
X162667976Y-94520924D01*
X162549006Y-94534795D01*
X162541733Y-94535643D01*
X162378233Y-94594990D01*
X162232771Y-94690359D01*
X162227739Y-94695671D01*
X162145705Y-94782268D01*
X162084336Y-94817966D01*
X162013409Y-94814819D01*
X161967235Y-94783088D01*
X161965641Y-94784771D01*
X161844683Y-94670187D01*
X161844684Y-94670187D01*
X161839367Y-94665151D01*
X161718576Y-94594990D01*
X161695290Y-94581464D01*
X161695289Y-94581463D01*
X161688961Y-94577788D01*
X161681957Y-94575667D01*
X161681953Y-94575665D01*
X161558057Y-94538141D01*
X161522491Y-94527369D01*
X161516052Y-94526794D01*
X161516050Y-94526794D01*
X161448318Y-94520749D01*
X161448312Y-94520749D01*
X161445525Y-94520500D01*
X160846615Y-94520500D01*
X160842981Y-94520924D01*
X160842976Y-94520924D01*
X160724006Y-94534795D01*
X160716733Y-94535643D01*
X160553233Y-94594990D01*
X160407771Y-94690359D01*
X160288151Y-94816633D01*
X160285825Y-94820637D01*
X160229888Y-94862541D01*
X160185816Y-94870500D01*
X151444594Y-94870500D01*
X151376473Y-94850498D01*
X151355499Y-94833595D01*
X149601391Y-93079487D01*
X149594031Y-93071399D01*
X149589973Y-93065005D01*
X149541121Y-93019130D01*
X149538280Y-93016376D01*
X149517966Y-92996062D01*
X149514555Y-92993417D01*
X149505533Y-92985711D01*
X149479077Y-92960867D01*
X149473301Y-92955443D01*
X149466357Y-92951626D01*
X149466355Y-92951624D01*
X149455547Y-92945682D01*
X149439023Y-92934828D01*
X149429286Y-92927275D01*
X149429285Y-92927275D01*
X149423023Y-92922417D01*
X149382447Y-92904858D01*
X149371790Y-92899637D01*
X149333048Y-92878338D01*
X149325365Y-92876366D01*
X149325364Y-92876365D01*
X149313432Y-92873301D01*
X149294728Y-92866897D01*
X149283415Y-92862001D01*
X149283408Y-92861999D01*
X149276136Y-92858852D01*
X149268312Y-92857613D01*
X149268309Y-92857612D01*
X149232465Y-92851935D01*
X149220844Y-92849528D01*
X149183782Y-92840013D01*
X149183781Y-92840013D01*
X149178025Y-92838535D01*
X149177469Y-92838500D01*
X149157548Y-92838500D01*
X149137838Y-92836949D01*
X149125886Y-92835056D01*
X149125885Y-92835056D01*
X149118056Y-92833816D01*
X149110164Y-92834562D01*
X149074418Y-92837941D01*
X149062560Y-92838500D01*
X139506594Y-92838500D01*
X139438473Y-92818498D01*
X139417499Y-92801595D01*
X138425391Y-91809487D01*
X138418031Y-91801399D01*
X138413973Y-91795005D01*
X138365121Y-91749130D01*
X138362280Y-91746376D01*
X138341966Y-91726062D01*
X138338555Y-91723417D01*
X138329533Y-91715711D01*
X138310126Y-91697486D01*
X138297301Y-91685443D01*
X138290357Y-91681626D01*
X138290355Y-91681624D01*
X138279547Y-91675682D01*
X138263023Y-91664828D01*
X138253286Y-91657275D01*
X138253285Y-91657275D01*
X138247023Y-91652417D01*
X138206447Y-91634858D01*
X138195790Y-91629637D01*
X138157048Y-91608338D01*
X138149365Y-91606366D01*
X138149364Y-91606365D01*
X138137432Y-91603301D01*
X138118728Y-91596897D01*
X138107415Y-91592001D01*
X138107408Y-91591999D01*
X138100136Y-91588852D01*
X138092312Y-91587613D01*
X138092309Y-91587612D01*
X138056465Y-91581935D01*
X138044844Y-91579528D01*
X138007782Y-91570013D01*
X138007781Y-91570013D01*
X138002025Y-91568535D01*
X138001469Y-91568500D01*
X137981548Y-91568500D01*
X137961838Y-91566949D01*
X137949886Y-91565056D01*
X137949885Y-91565056D01*
X137942056Y-91563816D01*
X137934164Y-91564562D01*
X137898418Y-91567941D01*
X137886560Y-91568500D01*
X133739384Y-91568500D01*
X133728480Y-91567986D01*
X133721089Y-91566334D01*
X133713163Y-91566583D01*
X133713162Y-91566583D01*
X133654134Y-91568438D01*
X133650177Y-91568500D01*
X133621422Y-91568500D01*
X133617155Y-91569039D01*
X133605313Y-91569972D01*
X133561117Y-91571361D01*
X133553500Y-91573574D01*
X133541661Y-91577013D01*
X133522302Y-91581022D01*
X133510079Y-91582566D01*
X133510078Y-91582566D01*
X133502212Y-91583560D01*
X133494836Y-91586480D01*
X133494837Y-91586480D01*
X133461111Y-91599832D01*
X133449882Y-91603677D01*
X133415035Y-91613801D01*
X133415034Y-91613802D01*
X133407422Y-91616013D01*
X133400599Y-91620048D01*
X133389983Y-91626326D01*
X133372231Y-91635022D01*
X133353400Y-91642478D01*
X133333034Y-91657275D01*
X133317629Y-91668467D01*
X133307711Y-91674982D01*
X133269659Y-91697486D01*
X133269241Y-91697855D01*
X133255158Y-91711938D01*
X133240133Y-91724772D01*
X133223917Y-91736554D01*
X133195971Y-91770335D01*
X133187981Y-91779115D01*
X132281707Y-92685389D01*
X132219395Y-92719415D01*
X132155247Y-92716626D01*
X132123893Y-92706890D01*
X132123883Y-92706888D01*
X132118792Y-92705307D01*
X132113506Y-92704606D01*
X132113504Y-92704606D01*
X131895515Y-92675714D01*
X131895510Y-92675714D01*
X131890230Y-92675014D01*
X131884900Y-92675214D01*
X131884899Y-92675214D01*
X131791320Y-92678727D01*
X131659831Y-92683663D01*
X131615246Y-92693018D01*
X131439411Y-92729912D01*
X131439408Y-92729913D01*
X131434184Y-92731009D01*
X131219740Y-92815697D01*
X131022631Y-92935306D01*
X131018601Y-92938803D01*
X130856476Y-93079487D01*
X130848492Y-93086415D01*
X130845109Y-93090541D01*
X130845105Y-93090545D01*
X130810545Y-93132695D01*
X130702304Y-93264705D01*
X130699667Y-93269338D01*
X130699666Y-93269339D01*
X130666116Y-93328278D01*
X130615033Y-93377584D01*
X130545402Y-93391445D01*
X130479332Y-93365461D01*
X130452094Y-93336312D01*
X130446686Y-93328278D01*
X130354599Y-93191496D01*
X130351607Y-93187052D01*
X130351605Y-93187050D01*
X130348627Y-93182626D01*
X130189482Y-93015799D01*
X130004504Y-92878171D01*
X129999753Y-92875755D01*
X129999749Y-92875753D01*
X129803740Y-92776097D01*
X129803739Y-92776097D01*
X129798982Y-92773678D01*
X129658033Y-92729912D01*
X129583895Y-92706891D01*
X129583889Y-92706890D01*
X129578792Y-92705307D01*
X129473798Y-92691391D01*
X129355515Y-92675714D01*
X129355510Y-92675714D01*
X129350230Y-92675014D01*
X129344900Y-92675214D01*
X129344899Y-92675214D01*
X129251320Y-92678727D01*
X129119831Y-92683663D01*
X129075246Y-92693018D01*
X128899411Y-92729912D01*
X128899408Y-92729913D01*
X128894184Y-92731009D01*
X128679740Y-92815697D01*
X128482631Y-92935306D01*
X128478601Y-92938803D01*
X128316476Y-93079487D01*
X128308492Y-93086415D01*
X128305109Y-93090541D01*
X128305105Y-93090545D01*
X128270545Y-93132695D01*
X128162304Y-93264705D01*
X128159667Y-93269338D01*
X128159666Y-93269339D01*
X128126116Y-93328278D01*
X128075033Y-93377584D01*
X128005402Y-93391445D01*
X127939332Y-93365461D01*
X127912094Y-93336312D01*
X127906686Y-93328278D01*
X127814599Y-93191496D01*
X127811607Y-93187052D01*
X127811605Y-93187050D01*
X127808627Y-93182626D01*
X127649482Y-93015799D01*
X127464504Y-92878171D01*
X127459753Y-92875755D01*
X127459749Y-92875753D01*
X127263740Y-92776097D01*
X127263739Y-92776097D01*
X127258982Y-92773678D01*
X127118033Y-92729912D01*
X127043895Y-92706891D01*
X127043889Y-92706890D01*
X127038792Y-92705307D01*
X126933798Y-92691391D01*
X126815515Y-92675714D01*
X126815510Y-92675714D01*
X126810230Y-92675014D01*
X126804900Y-92675214D01*
X126804899Y-92675214D01*
X126711320Y-92678727D01*
X126579831Y-92683663D01*
X126535246Y-92693018D01*
X126359411Y-92729912D01*
X126359408Y-92729913D01*
X126354184Y-92731009D01*
X126139740Y-92815697D01*
X125942631Y-92935306D01*
X125938601Y-92938803D01*
X125776476Y-93079487D01*
X125768492Y-93086415D01*
X125763339Y-93092700D01*
X125762364Y-93093365D01*
X125761390Y-93094366D01*
X125761186Y-93094168D01*
X125704681Y-93132695D01*
X125633710Y-93134628D01*
X125572961Y-93097885D01*
X125545008Y-93048309D01*
X125530490Y-92998866D01*
X125523096Y-92973684D01*
X125493271Y-92927275D01*
X125448949Y-92858309D01*
X125448947Y-92858306D01*
X125444077Y-92850729D01*
X125431710Y-92840013D01*
X125340431Y-92760918D01*
X125340428Y-92760916D01*
X125333619Y-92755016D01*
X125249557Y-92716626D01*
X125208864Y-92698042D01*
X125208863Y-92698042D01*
X125200670Y-92694300D01*
X125191755Y-92693018D01*
X125191754Y-92693018D01*
X125060448Y-92674139D01*
X125060441Y-92674138D01*
X125056000Y-92673500D01*
X123356000Y-92673500D01*
X123282921Y-92678727D01*
X123229884Y-92694300D01*
X123151330Y-92717365D01*
X123151328Y-92717366D01*
X123142684Y-92719904D01*
X123122350Y-92732972D01*
X123027309Y-92794051D01*
X123027306Y-92794053D01*
X123019729Y-92798923D01*
X123013828Y-92805733D01*
X122929918Y-92902569D01*
X122929916Y-92902572D01*
X122924016Y-92909381D01*
X122920272Y-92917579D01*
X122889311Y-92985375D01*
X122863300Y-93042330D01*
X122862018Y-93051245D01*
X122862018Y-93051246D01*
X122843139Y-93182552D01*
X122843138Y-93182559D01*
X122842500Y-93187000D01*
X122842500Y-94887000D01*
X122847727Y-94960079D01*
X122888904Y-95100316D01*
X122893775Y-95107895D01*
X122963051Y-95215691D01*
X122963053Y-95215694D01*
X122967923Y-95223271D01*
X122974733Y-95229172D01*
X123071569Y-95313082D01*
X123071572Y-95313084D01*
X123078381Y-95318984D01*
X123086579Y-95322728D01*
X123198998Y-95374068D01*
X123211330Y-95379700D01*
X123220245Y-95380982D01*
X123220246Y-95380982D01*
X123289431Y-95390929D01*
X123354012Y-95420422D01*
X123392396Y-95480148D01*
X123397500Y-95515647D01*
X123397500Y-96267776D01*
X123397493Y-96269095D01*
X123396665Y-96348209D01*
X123398155Y-96355099D01*
X123405823Y-96390566D01*
X123407884Y-96403149D01*
X123412716Y-96446230D01*
X123423744Y-96477897D01*
X123427902Y-96492694D01*
X123433500Y-96518587D01*
X123433503Y-96518595D01*
X123434990Y-96525474D01*
X123437965Y-96531853D01*
X123437965Y-96531854D01*
X123453308Y-96564755D01*
X123458106Y-96576572D01*
X123472359Y-96617502D01*
X123490134Y-96645948D01*
X123497465Y-96659450D01*
X123511637Y-96689841D01*
X123515951Y-96695402D01*
X123515953Y-96695406D01*
X123538199Y-96724085D01*
X123545493Y-96734541D01*
X123564732Y-96765331D01*
X123564735Y-96765335D01*
X123568465Y-96771304D01*
X123573427Y-96776300D01*
X123573428Y-96776302D01*
X123596374Y-96799408D01*
X123597840Y-96800975D01*
X123598729Y-96802121D01*
X123647457Y-96850849D01*
X123696258Y-96899991D01*
X123697000Y-96900462D01*
X123697684Y-96901076D01*
X124143531Y-97346922D01*
X124144458Y-97347859D01*
X124199844Y-97404417D01*
X124234496Y-97426749D01*
X124236273Y-97427894D01*
X124246627Y-97435334D01*
X124274997Y-97457982D01*
X124275003Y-97457986D01*
X124280505Y-97462378D01*
X124310686Y-97476968D01*
X124324100Y-97484496D01*
X124346363Y-97498843D01*
X124352289Y-97502662D01*
X124392606Y-97517336D01*
X124393023Y-97517488D01*
X124404762Y-97522447D01*
X124443787Y-97541312D01*
X124450651Y-97542896D01*
X124450652Y-97542897D01*
X124476457Y-97548854D01*
X124491202Y-97553221D01*
X124522712Y-97564690D01*
X124529700Y-97565573D01*
X124529701Y-97565573D01*
X124565702Y-97570121D01*
X124578254Y-97572356D01*
X124620498Y-97582109D01*
X124627536Y-97582134D01*
X124627540Y-97582134D01*
X124647134Y-97582202D01*
X124660099Y-97582247D01*
X124662252Y-97582319D01*
X124663689Y-97582500D01*
X124732548Y-97582500D01*
X124732987Y-97582501D01*
X124801857Y-97582741D01*
X124802714Y-97582549D01*
X124803627Y-97582500D01*
X128390918Y-97582500D01*
X128459039Y-97602502D01*
X128480008Y-97619400D01*
X129456596Y-98595987D01*
X129490620Y-98658298D01*
X129493500Y-98685081D01*
X129493500Y-102363776D01*
X129493493Y-102365095D01*
X129492665Y-102444209D01*
X129494155Y-102451099D01*
X129501823Y-102486566D01*
X129503884Y-102499149D01*
X129508716Y-102542230D01*
X129519744Y-102573897D01*
X129523902Y-102588694D01*
X129529500Y-102614587D01*
X129529503Y-102614595D01*
X129530990Y-102621474D01*
X129533965Y-102627853D01*
X129533965Y-102627854D01*
X129549308Y-102660755D01*
X129554106Y-102672572D01*
X129568359Y-102713502D01*
X129586134Y-102741948D01*
X129593465Y-102755450D01*
X129607637Y-102785841D01*
X129611951Y-102791402D01*
X129611953Y-102791406D01*
X129634199Y-102820085D01*
X129641493Y-102830541D01*
X129660732Y-102861331D01*
X129660735Y-102861335D01*
X129664465Y-102867304D01*
X129669427Y-102872300D01*
X129669428Y-102872302D01*
X129692374Y-102895408D01*
X129693840Y-102896975D01*
X129694729Y-102898121D01*
X129743457Y-102946849D01*
X129792258Y-102995991D01*
X129792998Y-102996460D01*
X129793687Y-102997079D01*
X131001528Y-104204920D01*
X131002456Y-104205857D01*
X131052382Y-104256839D01*
X131057844Y-104262417D01*
X131094284Y-104285901D01*
X131104619Y-104293327D01*
X131138505Y-104320378D01*
X131168686Y-104334968D01*
X131182100Y-104342496D01*
X131204363Y-104356843D01*
X131210289Y-104360662D01*
X131250606Y-104375336D01*
X131251023Y-104375488D01*
X131262762Y-104380447D01*
X131301787Y-104399312D01*
X131308651Y-104400896D01*
X131308652Y-104400897D01*
X131334457Y-104406854D01*
X131349202Y-104411221D01*
X131380712Y-104422690D01*
X131387700Y-104423573D01*
X131387701Y-104423573D01*
X131423702Y-104428121D01*
X131436254Y-104430356D01*
X131478498Y-104440109D01*
X131485536Y-104440134D01*
X131485540Y-104440134D01*
X131505134Y-104440202D01*
X131518099Y-104440247D01*
X131520252Y-104440319D01*
X131521689Y-104440500D01*
X131590548Y-104440500D01*
X131590987Y-104440501D01*
X131659857Y-104440741D01*
X131660714Y-104440549D01*
X131661627Y-104440500D01*
X134486918Y-104440500D01*
X134555039Y-104460502D01*
X134576013Y-104477405D01*
X134790595Y-104691987D01*
X134824621Y-104754299D01*
X134827500Y-104781082D01*
X134827500Y-109023610D01*
X134810619Y-109086610D01*
X134801476Y-109102446D01*
X134742462Y-109284073D01*
X134741772Y-109290636D01*
X134741772Y-109290637D01*
X134732010Y-109383515D01*
X134722500Y-109474000D01*
X134723190Y-109480565D01*
X134741144Y-109651383D01*
X134742462Y-109663927D01*
X134744502Y-109670205D01*
X134744502Y-109670206D01*
X134765414Y-109734565D01*
X134801476Y-109845554D01*
X134804779Y-109851276D01*
X134804780Y-109851277D01*
X134810619Y-109861390D01*
X134827500Y-109924390D01*
X134827500Y-114103610D01*
X134810619Y-114166610D01*
X134801476Y-114182446D01*
X134742462Y-114364073D01*
X134722500Y-114554000D01*
X134723190Y-114560565D01*
X134735229Y-114675105D01*
X134742462Y-114743927D01*
X134751442Y-114771565D01*
X134753470Y-114842531D01*
X134716808Y-114903329D01*
X134653096Y-114934654D01*
X134631609Y-114936500D01*
X120964594Y-114936500D01*
X120896473Y-114916498D01*
X120875499Y-114899595D01*
X120581118Y-114605214D01*
X120547092Y-114542902D01*
X120544903Y-114529290D01*
X120528228Y-114370637D01*
X120528228Y-114370636D01*
X120527538Y-114364073D01*
X120468524Y-114182446D01*
X120459276Y-114166427D01*
X120402472Y-114068041D01*
X120373037Y-114017058D01*
X120282910Y-113916961D01*
X120249673Y-113880048D01*
X120249672Y-113880047D01*
X120245251Y-113875137D01*
X120239909Y-113871256D01*
X120239907Y-113871254D01*
X120096092Y-113766767D01*
X120096091Y-113766766D01*
X120090750Y-113762886D01*
X120084722Y-113760202D01*
X120084720Y-113760201D01*
X119922318Y-113687895D01*
X119922317Y-113687895D01*
X119916287Y-113685210D01*
X119822887Y-113665357D01*
X119735944Y-113646876D01*
X119735939Y-113646876D01*
X119729487Y-113645504D01*
X119538513Y-113645504D01*
X119532061Y-113646876D01*
X119532056Y-113646876D01*
X119445113Y-113665357D01*
X119351713Y-113685210D01*
X119345683Y-113687895D01*
X119345682Y-113687895D01*
X119183278Y-113760202D01*
X119177250Y-113762886D01*
X119171911Y-113766765D01*
X119170546Y-113767553D01*
X119101551Y-113784291D01*
X119034459Y-113761071D01*
X119018451Y-113747529D01*
X118670407Y-113399485D01*
X118663049Y-113391400D01*
X118658990Y-113385005D01*
X118610139Y-113339131D01*
X118607298Y-113336377D01*
X118586983Y-113316062D01*
X118583572Y-113313417D01*
X118574550Y-113305711D01*
X118555143Y-113287486D01*
X118542318Y-113275443D01*
X118535374Y-113271626D01*
X118535372Y-113271624D01*
X118524564Y-113265682D01*
X118508040Y-113254828D01*
X118498303Y-113247275D01*
X118498302Y-113247275D01*
X118492040Y-113242417D01*
X118451464Y-113224858D01*
X118440807Y-113219637D01*
X118402065Y-113198338D01*
X118394382Y-113196366D01*
X118394381Y-113196365D01*
X118382449Y-113193301D01*
X118363745Y-113186897D01*
X118352432Y-113182001D01*
X118352425Y-113181999D01*
X118345153Y-113178852D01*
X118337329Y-113177613D01*
X118337326Y-113177612D01*
X118301482Y-113171935D01*
X118289861Y-113169528D01*
X118252799Y-113160013D01*
X118252798Y-113160013D01*
X118247042Y-113158535D01*
X118246486Y-113158500D01*
X118226565Y-113158500D01*
X118206855Y-113156949D01*
X118194903Y-113155056D01*
X118194902Y-113155056D01*
X118187073Y-113153816D01*
X118179181Y-113154562D01*
X118143435Y-113157941D01*
X118131577Y-113158500D01*
X116918396Y-113158500D01*
X116907482Y-113157986D01*
X116900089Y-113156333D01*
X116892164Y-113156582D01*
X116892163Y-113156582D01*
X116833116Y-113158438D01*
X116829158Y-113158500D01*
X116800422Y-113158500D01*
X116796151Y-113159039D01*
X116784322Y-113159971D01*
X116740117Y-113161361D01*
X116732501Y-113163574D01*
X116732499Y-113163574D01*
X116720661Y-113167013D01*
X116701302Y-113171022D01*
X116689079Y-113172566D01*
X116689078Y-113172566D01*
X116681212Y-113173560D01*
X116673836Y-113176480D01*
X116673837Y-113176480D01*
X116640111Y-113189832D01*
X116628882Y-113193677D01*
X116594035Y-113203801D01*
X116594034Y-113203802D01*
X116586422Y-113206013D01*
X116579599Y-113210048D01*
X116568983Y-113216326D01*
X116551231Y-113225022D01*
X116532400Y-113232478D01*
X116512034Y-113247275D01*
X116496629Y-113258467D01*
X116486711Y-113264982D01*
X116448659Y-113287486D01*
X116448241Y-113287855D01*
X116434158Y-113301938D01*
X116419133Y-113314772D01*
X116402917Y-113326554D01*
X116392512Y-113339132D01*
X116374971Y-113360335D01*
X116366981Y-113369115D01*
X116127497Y-113608599D01*
X116065185Y-113642625D01*
X116038402Y-113645504D01*
X115982513Y-113645504D01*
X115976061Y-113646876D01*
X115976056Y-113646876D01*
X115889113Y-113665357D01*
X115795713Y-113685210D01*
X115789683Y-113687895D01*
X115789682Y-113687895D01*
X115627280Y-113760201D01*
X115627278Y-113760202D01*
X115621250Y-113762886D01*
X115615909Y-113766766D01*
X115615908Y-113766767D01*
X115472093Y-113871254D01*
X115472091Y-113871256D01*
X115466749Y-113875137D01*
X115462328Y-113880047D01*
X115462327Y-113880048D01*
X115429091Y-113916961D01*
X115338963Y-114017058D01*
X115309528Y-114068041D01*
X115298119Y-114087802D01*
X115246737Y-114136795D01*
X115177023Y-114150231D01*
X115111112Y-114123845D01*
X115079881Y-114087802D01*
X115068472Y-114068041D01*
X115039037Y-114017058D01*
X114948910Y-113916961D01*
X114915673Y-113880048D01*
X114915672Y-113880047D01*
X114911251Y-113875137D01*
X114905909Y-113871256D01*
X114905907Y-113871254D01*
X114762092Y-113766767D01*
X114762091Y-113766766D01*
X114756750Y-113762886D01*
X114750722Y-113760202D01*
X114750720Y-113760201D01*
X114588318Y-113687895D01*
X114588317Y-113687895D01*
X114582287Y-113685210D01*
X114488887Y-113665357D01*
X114401944Y-113646876D01*
X114401939Y-113646876D01*
X114395487Y-113645504D01*
X114204513Y-113645504D01*
X114198061Y-113646876D01*
X114198056Y-113646876D01*
X114111113Y-113665357D01*
X114017713Y-113685210D01*
X114011683Y-113687895D01*
X114011682Y-113687895D01*
X113849280Y-113760201D01*
X113849278Y-113760202D01*
X113843250Y-113762886D01*
X113837909Y-113766766D01*
X113837908Y-113766767D01*
X113694093Y-113871254D01*
X113694091Y-113871256D01*
X113688749Y-113875137D01*
X113684328Y-113880047D01*
X113684327Y-113880048D01*
X113651091Y-113916961D01*
X113560963Y-114017058D01*
X113531528Y-114068041D01*
X113474725Y-114166427D01*
X113465476Y-114182446D01*
X113406462Y-114364073D01*
X113386500Y-114554000D01*
X111996492Y-114554000D01*
X111989952Y-114550367D01*
X111965179Y-114534310D01*
X111956575Y-114531737D01*
X111956573Y-114531736D01*
X111940623Y-114526966D01*
X111923178Y-114520304D01*
X111908113Y-114513231D01*
X111908111Y-114513231D01*
X111899987Y-114509416D01*
X111891123Y-114508036D01*
X111891114Y-114508033D01*
X111870820Y-114504873D01*
X111854109Y-114501092D01*
X111834428Y-114495207D01*
X111834425Y-114495207D01*
X111825826Y-114492635D01*
X111816854Y-114492580D01*
X111816853Y-114492580D01*
X111793002Y-114492434D01*
X111790162Y-114492316D01*
X111788135Y-114492000D01*
X111722378Y-114492000D01*
X111721608Y-114491998D01*
X111721052Y-114491995D01*
X111680378Y-114491746D01*
X111679546Y-114491984D01*
X111679308Y-114492000D01*
X110235000Y-114492000D01*
X110166879Y-114471998D01*
X110120386Y-114418342D01*
X110109000Y-114366000D01*
X110109000Y-113030000D01*
X108987922Y-113030000D01*
X108919801Y-113009998D01*
X108873308Y-112956342D01*
X108862512Y-112906710D01*
X108863000Y-112903000D01*
X108861922Y-112894812D01*
X108844553Y-112762881D01*
X108844552Y-112762877D01*
X108843475Y-112754697D01*
X108840317Y-112747073D01*
X108840316Y-112747069D01*
X108789394Y-112624131D01*
X108789393Y-112624130D01*
X108786233Y-112616500D01*
X108774535Y-112601254D01*
X108700198Y-112504378D01*
X108695172Y-112497828D01*
X108651355Y-112464206D01*
X108583053Y-112411795D01*
X108583051Y-112411794D01*
X108576500Y-112406767D01*
X108539031Y-112391247D01*
X108445931Y-112352684D01*
X108445927Y-112352683D01*
X108438303Y-112349525D01*
X108430123Y-112348448D01*
X108430119Y-112348447D01*
X108327978Y-112335000D01*
X108298188Y-112331078D01*
X108290000Y-112330000D01*
X108281812Y-112331078D01*
X108260210Y-112333922D01*
X108243763Y-112335000D01*
X107513342Y-112335000D01*
X107445221Y-112314998D01*
X107398728Y-112261342D01*
X107388624Y-112191068D01*
X107397705Y-112158960D01*
X107406152Y-112139440D01*
X107411374Y-112128779D01*
X107432673Y-112090037D01*
X107437357Y-112071794D01*
X107437710Y-112070421D01*
X107444114Y-112051717D01*
X107449010Y-112040404D01*
X107449012Y-112040397D01*
X107452159Y-112033125D01*
X107457184Y-112001402D01*
X107459076Y-111989454D01*
X107461483Y-111977833D01*
X107470998Y-111940771D01*
X107470998Y-111940770D01*
X107472476Y-111935014D01*
X107472511Y-111934458D01*
X107472511Y-111914537D01*
X107474062Y-111894827D01*
X107475955Y-111882875D01*
X107475955Y-111882874D01*
X107477195Y-111875045D01*
X107473070Y-111831406D01*
X107472511Y-111819549D01*
X107472511Y-108954394D01*
X107473025Y-108943490D01*
X107474677Y-108936099D01*
X107474380Y-108926631D01*
X107472573Y-108869158D01*
X107472511Y-108865200D01*
X107472511Y-108836433D01*
X107471971Y-108832159D01*
X107471037Y-108820307D01*
X107471033Y-108820162D01*
X107469649Y-108776128D01*
X107463997Y-108756672D01*
X107459992Y-108737332D01*
X107457451Y-108717223D01*
X107454532Y-108709851D01*
X107454531Y-108709846D01*
X107441175Y-108676112D01*
X107437330Y-108664883D01*
X107427208Y-108630042D01*
X107427208Y-108630041D01*
X107424997Y-108622432D01*
X107414687Y-108604999D01*
X107405993Y-108587252D01*
X107398533Y-108568411D01*
X107372544Y-108532640D01*
X107366028Y-108522721D01*
X107346554Y-108489793D01*
X107343524Y-108484669D01*
X107343156Y-108484252D01*
X107329073Y-108470169D01*
X107316239Y-108455144D01*
X107304457Y-108438928D01*
X107270675Y-108410981D01*
X107261896Y-108402992D01*
X107014334Y-108155430D01*
X106980308Y-108093118D01*
X106982100Y-108032346D01*
X107001908Y-107961640D01*
X107001909Y-107961633D01*
X107003349Y-107956494D01*
X107027249Y-107727176D01*
X107027500Y-107701000D01*
X107017635Y-107584731D01*
X107008458Y-107476576D01*
X107008457Y-107476572D01*
X107008007Y-107471265D01*
X106994714Y-107420047D01*
X106955498Y-107268957D01*
X106950084Y-107248098D01*
X106930446Y-107204502D01*
X106857578Y-107042743D01*
X106857577Y-107042741D01*
X106855388Y-107037882D01*
X106850824Y-107031102D01*
X106785009Y-106933344D01*
X106726627Y-106846626D01*
X106567482Y-106679799D01*
X106382504Y-106542171D01*
X106377753Y-106539755D01*
X106377749Y-106539753D01*
X106181740Y-106440097D01*
X106181739Y-106440097D01*
X106176982Y-106437678D01*
X106036033Y-106393912D01*
X105961895Y-106370891D01*
X105961889Y-106370890D01*
X105956792Y-106369307D01*
X105851798Y-106355391D01*
X105733515Y-106339714D01*
X105733510Y-106339714D01*
X105728230Y-106339014D01*
X105722900Y-106339214D01*
X105722899Y-106339214D01*
X105625697Y-106342863D01*
X105497831Y-106347663D01*
X105415368Y-106364966D01*
X105277411Y-106393912D01*
X105277408Y-106393913D01*
X105272184Y-106395009D01*
X105057740Y-106479697D01*
X104860631Y-106599306D01*
X104856601Y-106602803D01*
X104763426Y-106683656D01*
X104686492Y-106750415D01*
X104683109Y-106754541D01*
X104683105Y-106754545D01*
X104610768Y-106842767D01*
X104540304Y-106928705D01*
X104537667Y-106933338D01*
X104537666Y-106933339D01*
X104504116Y-106992278D01*
X104453033Y-107041584D01*
X104383402Y-107055445D01*
X104317332Y-107029461D01*
X104290094Y-107000312D01*
X104286855Y-106995500D01*
X104227088Y-106906725D01*
X104189607Y-106851052D01*
X104189605Y-106851050D01*
X104186627Y-106846626D01*
X104027482Y-106679799D01*
X103842504Y-106542171D01*
X103837753Y-106539755D01*
X103837749Y-106539753D01*
X103641740Y-106440097D01*
X103641739Y-106440097D01*
X103636982Y-106437678D01*
X103496033Y-106393912D01*
X103421895Y-106370891D01*
X103421889Y-106370890D01*
X103416792Y-106369307D01*
X103311798Y-106355391D01*
X103193515Y-106339714D01*
X103193510Y-106339714D01*
X103188230Y-106339014D01*
X103182900Y-106339214D01*
X103182899Y-106339214D01*
X103085697Y-106342863D01*
X102957831Y-106347663D01*
X102875368Y-106364966D01*
X102737411Y-106393912D01*
X102737408Y-106393913D01*
X102732184Y-106395009D01*
X102517740Y-106479697D01*
X102320631Y-106599306D01*
X102316601Y-106602803D01*
X102223426Y-106683656D01*
X102146492Y-106750415D01*
X102143109Y-106754541D01*
X102143105Y-106754545D01*
X102070768Y-106842767D01*
X102000304Y-106928705D01*
X101997667Y-106933338D01*
X101997666Y-106933339D01*
X101964116Y-106992278D01*
X101913033Y-107041584D01*
X101843402Y-107055445D01*
X101777332Y-107029461D01*
X101750094Y-107000312D01*
X101746855Y-106995500D01*
X101687088Y-106906725D01*
X101649607Y-106851052D01*
X101649605Y-106851050D01*
X101646627Y-106846626D01*
X101487482Y-106679799D01*
X101302504Y-106542171D01*
X101297753Y-106539755D01*
X101297749Y-106539753D01*
X101101740Y-106440097D01*
X101101739Y-106440097D01*
X101096982Y-106437678D01*
X100956033Y-106393912D01*
X100881895Y-106370891D01*
X100881889Y-106370890D01*
X100876792Y-106369307D01*
X100771798Y-106355391D01*
X100653515Y-106339714D01*
X100653510Y-106339714D01*
X100648230Y-106339014D01*
X100642900Y-106339214D01*
X100642899Y-106339214D01*
X100545697Y-106342863D01*
X100417831Y-106347663D01*
X100335368Y-106364966D01*
X100197411Y-106393912D01*
X100197408Y-106393913D01*
X100192184Y-106395009D01*
X99977740Y-106479697D01*
X99780631Y-106599306D01*
X99776601Y-106602803D01*
X99683426Y-106683656D01*
X99606492Y-106750415D01*
X99603109Y-106754541D01*
X99603105Y-106754545D01*
X99530768Y-106842767D01*
X99460304Y-106928705D01*
X99457667Y-106933338D01*
X99457666Y-106933339D01*
X99424116Y-106992278D01*
X99373033Y-107041584D01*
X99303402Y-107055445D01*
X99237332Y-107029461D01*
X99210094Y-107000312D01*
X99206855Y-106995500D01*
X99147088Y-106906725D01*
X99109607Y-106851052D01*
X99109605Y-106851050D01*
X99106627Y-106846626D01*
X98947482Y-106679799D01*
X98762504Y-106542171D01*
X98757753Y-106539755D01*
X98757749Y-106539753D01*
X98561740Y-106440097D01*
X98561739Y-106440097D01*
X98556982Y-106437678D01*
X98416033Y-106393912D01*
X98341895Y-106370891D01*
X98341889Y-106370890D01*
X98336792Y-106369307D01*
X98231798Y-106355391D01*
X98113515Y-106339714D01*
X98113510Y-106339714D01*
X98108230Y-106339014D01*
X98102900Y-106339214D01*
X98102899Y-106339214D01*
X98005697Y-106342863D01*
X97877831Y-106347663D01*
X97795368Y-106364966D01*
X97657411Y-106393912D01*
X97657408Y-106393913D01*
X97652184Y-106395009D01*
X97437740Y-106479697D01*
X97240631Y-106599306D01*
X97236601Y-106602803D01*
X97143426Y-106683656D01*
X97066492Y-106750415D01*
X97063109Y-106754541D01*
X97063105Y-106754545D01*
X96990768Y-106842767D01*
X96920304Y-106928705D01*
X96917667Y-106933338D01*
X96917666Y-106933339D01*
X96884116Y-106992278D01*
X96833033Y-107041584D01*
X96763402Y-107055445D01*
X96697332Y-107029461D01*
X96670094Y-107000312D01*
X96666855Y-106995500D01*
X96607088Y-106906725D01*
X96569607Y-106851052D01*
X96569605Y-106851050D01*
X96566627Y-106846626D01*
X96407482Y-106679799D01*
X96222504Y-106542171D01*
X96217753Y-106539755D01*
X96217749Y-106539753D01*
X96021740Y-106440097D01*
X96021739Y-106440097D01*
X96016982Y-106437678D01*
X95876033Y-106393912D01*
X95801895Y-106370891D01*
X95801889Y-106370890D01*
X95796792Y-106369307D01*
X95691798Y-106355391D01*
X95573515Y-106339714D01*
X95573510Y-106339714D01*
X95568230Y-106339014D01*
X95562900Y-106339214D01*
X95562899Y-106339214D01*
X95465697Y-106342863D01*
X95337831Y-106347663D01*
X95255368Y-106364966D01*
X95117411Y-106393912D01*
X95117408Y-106393913D01*
X95112184Y-106395009D01*
X94897740Y-106479697D01*
X94700631Y-106599306D01*
X94696601Y-106602803D01*
X94603426Y-106683656D01*
X94526492Y-106750415D01*
X94523109Y-106754541D01*
X94523105Y-106754545D01*
X94450768Y-106842767D01*
X94380304Y-106928705D01*
X94377667Y-106933338D01*
X94377666Y-106933339D01*
X94344116Y-106992278D01*
X94293033Y-107041584D01*
X94223402Y-107055445D01*
X94157332Y-107029461D01*
X94130094Y-107000312D01*
X94126855Y-106995500D01*
X94067088Y-106906725D01*
X94029607Y-106851052D01*
X94029605Y-106851050D01*
X94026627Y-106846626D01*
X93867482Y-106679799D01*
X93682504Y-106542171D01*
X93677753Y-106539755D01*
X93677749Y-106539753D01*
X93481740Y-106440097D01*
X93481739Y-106440097D01*
X93476982Y-106437678D01*
X93336033Y-106393912D01*
X93261895Y-106370891D01*
X93261889Y-106370890D01*
X93256792Y-106369307D01*
X93151798Y-106355391D01*
X93033515Y-106339714D01*
X93033510Y-106339714D01*
X93028230Y-106339014D01*
X93022900Y-106339214D01*
X93022899Y-106339214D01*
X92925697Y-106342863D01*
X92797831Y-106347663D01*
X92715368Y-106364966D01*
X92577411Y-106393912D01*
X92577408Y-106393913D01*
X92572184Y-106395009D01*
X92357740Y-106479697D01*
X92160631Y-106599306D01*
X92156601Y-106602803D01*
X92063426Y-106683656D01*
X91986492Y-106750415D01*
X91983109Y-106754541D01*
X91983105Y-106754545D01*
X91910768Y-106842767D01*
X91840304Y-106928705D01*
X91837666Y-106933339D01*
X91837663Y-106933344D01*
X91763184Y-107064185D01*
X91726245Y-107129077D01*
X91647578Y-107345802D01*
X91646629Y-107351051D01*
X91646628Y-107351054D01*
X91624890Y-107471265D01*
X91606551Y-107572683D01*
X91606424Y-107585950D01*
X91604813Y-107753794D01*
X91604338Y-107803233D01*
X91641002Y-108030861D01*
X91715494Y-108249056D01*
X91825685Y-108451580D01*
X91968424Y-108632644D01*
X92028034Y-108686411D01*
X92065219Y-108746888D01*
X92063805Y-108817871D01*
X92024240Y-108876821D01*
X91979138Y-108900868D01*
X91909330Y-108921365D01*
X91909328Y-108921366D01*
X91900684Y-108923904D01*
X91880484Y-108936886D01*
X91785309Y-108998051D01*
X91785306Y-108998053D01*
X91777729Y-109002923D01*
X91771828Y-109009733D01*
X91687918Y-109106569D01*
X91687916Y-109106572D01*
X91682016Y-109113381D01*
X91678272Y-109121579D01*
X91628865Y-109229766D01*
X91621300Y-109246330D01*
X91620018Y-109255245D01*
X91620018Y-109255246D01*
X91601139Y-109386552D01*
X91601138Y-109386559D01*
X91600500Y-109391000D01*
X91600500Y-111091000D01*
X91605727Y-111164079D01*
X91646904Y-111304316D01*
X91651775Y-111311895D01*
X91721051Y-111419691D01*
X91721053Y-111419694D01*
X91725923Y-111427271D01*
X91732733Y-111433172D01*
X91829569Y-111517082D01*
X91829572Y-111517084D01*
X91836381Y-111522984D01*
X91844579Y-111526728D01*
X91956998Y-111578068D01*
X91969330Y-111583700D01*
X91978245Y-111584982D01*
X91978246Y-111584982D01*
X92109552Y-111603861D01*
X92109559Y-111603862D01*
X92114000Y-111604500D01*
X92935406Y-111604500D01*
X93003527Y-111624502D01*
X93050020Y-111678158D01*
X93060124Y-111748432D01*
X93030630Y-111813012D01*
X93024501Y-111819595D01*
X92657487Y-112186609D01*
X92649399Y-112193969D01*
X92643005Y-112198027D01*
X92637580Y-112203804D01*
X92597131Y-112246878D01*
X92594376Y-112249720D01*
X92574062Y-112270034D01*
X92571417Y-112273445D01*
X92563711Y-112282467D01*
X92551704Y-112295253D01*
X92490491Y-112331219D01*
X92459854Y-112335000D01*
X90556237Y-112335000D01*
X90539790Y-112333922D01*
X90518188Y-112331078D01*
X90510000Y-112330000D01*
X90501812Y-112331078D01*
X90472022Y-112335000D01*
X90369881Y-112348447D01*
X90369877Y-112348448D01*
X90361697Y-112349525D01*
X90354073Y-112352683D01*
X90354069Y-112352684D01*
X90260969Y-112391247D01*
X90223500Y-112406767D01*
X90216949Y-112411794D01*
X90216947Y-112411795D01*
X90148645Y-112464206D01*
X90104828Y-112497828D01*
X90099802Y-112504378D01*
X90025466Y-112601254D01*
X90013767Y-112616500D01*
X90010607Y-112624130D01*
X90010606Y-112624131D01*
X89959684Y-112747069D01*
X89959683Y-112747073D01*
X89956525Y-112754697D01*
X89955448Y-112762877D01*
X89955447Y-112762881D01*
X89938078Y-112894812D01*
X89937000Y-112903000D01*
X89937425Y-112906225D01*
X89918076Y-112972121D01*
X89864420Y-113018614D01*
X89812078Y-113030000D01*
X89408000Y-113030000D01*
X89408000Y-114366000D01*
X89387998Y-114434121D01*
X89334342Y-114480614D01*
X89282000Y-114492000D01*
X86972378Y-114492000D01*
X86971608Y-114491998D01*
X86971352Y-114491996D01*
X86930378Y-114491746D01*
X86921750Y-114494212D01*
X86921749Y-114494212D01*
X86901987Y-114499859D01*
X86885230Y-114503436D01*
X86864903Y-114506347D01*
X86864900Y-114506348D01*
X86856018Y-114507620D01*
X86847848Y-114511335D01*
X86847844Y-114511336D01*
X86832695Y-114518224D01*
X86815167Y-114524673D01*
X86799158Y-114529248D01*
X86799151Y-114529251D01*
X86790526Y-114531716D01*
X86765555Y-114547472D01*
X86750481Y-114555605D01*
X86723611Y-114567822D01*
X86704197Y-114584550D01*
X86689190Y-114595654D01*
X86667514Y-114609331D01*
X86661572Y-114616059D01*
X86647977Y-114631453D01*
X86635781Y-114643500D01*
X86620223Y-114656905D01*
X86620220Y-114656909D01*
X86613422Y-114662766D01*
X86608542Y-114670295D01*
X86608541Y-114670296D01*
X86599483Y-114684271D01*
X86588193Y-114699145D01*
X86571231Y-114718351D01*
X86558683Y-114745077D01*
X86550367Y-114760048D01*
X86534310Y-114784821D01*
X86531737Y-114793425D01*
X86531736Y-114793427D01*
X86526966Y-114809377D01*
X86520304Y-114826822D01*
X86509416Y-114850013D01*
X86508036Y-114858877D01*
X86508033Y-114858886D01*
X86504873Y-114879180D01*
X86501092Y-114895891D01*
X86495207Y-114915572D01*
X86492635Y-114924174D01*
X86492580Y-114933146D01*
X86492580Y-114933147D01*
X86492434Y-114956998D01*
X86492316Y-114959838D01*
X86492000Y-114961865D01*
X86492000Y-115027622D01*
X86491998Y-115028392D01*
X86491746Y-115069622D01*
X86491984Y-115070454D01*
X86492000Y-115070692D01*
X86492000Y-129366000D01*
X86471998Y-129434121D01*
X86418342Y-129480614D01*
X86366000Y-129492000D01*
X70634000Y-129492000D01*
X70565879Y-129471998D01*
X70519386Y-129418342D01*
X70508000Y-129366000D01*
X70508000Y-125977868D01*
X74086616Y-125977868D01*
X74103166Y-126264892D01*
X74103991Y-126269097D01*
X74103992Y-126269105D01*
X74112045Y-126310149D01*
X74158516Y-126547014D01*
X74159903Y-126551065D01*
X74220075Y-126726813D01*
X74251642Y-126819014D01*
X74380822Y-127075859D01*
X74543664Y-127312796D01*
X74737155Y-127525440D01*
X74957716Y-127709857D01*
X74961357Y-127712141D01*
X75197624Y-127860352D01*
X75197628Y-127860354D01*
X75201264Y-127862635D01*
X75463293Y-127980945D01*
X75467412Y-127982165D01*
X75734841Y-128061382D01*
X75734846Y-128061383D01*
X75738954Y-128062600D01*
X75743188Y-128063248D01*
X75743193Y-128063249D01*
X75996037Y-128101940D01*
X76023147Y-128106088D01*
X76169498Y-128108387D01*
X76306321Y-128110537D01*
X76306327Y-128110537D01*
X76310612Y-128110604D01*
X76314864Y-128110089D01*
X76314872Y-128110089D01*
X76536529Y-128083265D01*
X76596030Y-128076064D01*
X76600179Y-128074976D01*
X76600182Y-128074975D01*
X76869970Y-128004198D01*
X76874121Y-128003109D01*
X77139736Y-127893087D01*
X77188827Y-127864401D01*
X77384255Y-127750202D01*
X77384257Y-127750200D01*
X77387963Y-127748035D01*
X77614208Y-127570637D01*
X77814283Y-127364175D01*
X77816816Y-127360727D01*
X77816820Y-127360722D01*
X77981949Y-127135925D01*
X77984487Y-127132470D01*
X78015224Y-127075859D01*
X78119621Y-126883585D01*
X78119622Y-126883583D01*
X78121671Y-126879809D01*
X78211198Y-126642883D01*
X78221777Y-126614887D01*
X78221778Y-126614883D01*
X78223295Y-126610869D01*
X78256421Y-126466231D01*
X78286521Y-126334808D01*
X78286522Y-126334804D01*
X78287479Y-126330624D01*
X78289307Y-126310149D01*
X78312816Y-126046728D01*
X78312816Y-126046726D01*
X78313036Y-126044262D01*
X78313500Y-126000000D01*
X78313306Y-125997157D01*
X78294238Y-125717442D01*
X78294237Y-125717436D01*
X78293946Y-125713165D01*
X78289409Y-125691254D01*
X78236513Y-125435835D01*
X78235644Y-125431638D01*
X78139674Y-125160628D01*
X78007812Y-124905150D01*
X77842498Y-124669931D01*
X77838017Y-124665109D01*
X77649711Y-124462468D01*
X77649708Y-124462466D01*
X77646790Y-124459325D01*
X77643474Y-124456611D01*
X77643471Y-124456608D01*
X77427629Y-124279942D01*
X77427622Y-124279937D01*
X77424311Y-124277227D01*
X77179176Y-124127009D01*
X77175240Y-124125281D01*
X76919851Y-124013172D01*
X76919847Y-124013171D01*
X76915923Y-124011448D01*
X76639421Y-123932685D01*
X76428794Y-123902708D01*
X76359041Y-123892781D01*
X76359039Y-123892781D01*
X76354789Y-123892176D01*
X76203976Y-123891387D01*
X76071579Y-123890693D01*
X76071573Y-123890693D01*
X76067292Y-123890671D01*
X76063048Y-123891230D01*
X76063044Y-123891230D01*
X75937864Y-123907710D01*
X75782251Y-123928197D01*
X75778111Y-123929330D01*
X75778109Y-123929330D01*
X75761547Y-123933861D01*
X75504940Y-124004061D01*
X75483580Y-124013172D01*
X75244433Y-124115176D01*
X75244426Y-124115180D01*
X75240491Y-124116858D01*
X75236810Y-124119061D01*
X74997479Y-124262297D01*
X74997475Y-124262300D01*
X74993797Y-124264501D01*
X74990454Y-124267179D01*
X74990450Y-124267182D01*
X74921414Y-124322491D01*
X74769423Y-124444259D01*
X74766479Y-124447361D01*
X74766475Y-124447365D01*
X74576186Y-124647887D01*
X74571520Y-124652804D01*
X74403752Y-124886279D01*
X74269222Y-125140362D01*
X74170419Y-125410352D01*
X74109173Y-125691254D01*
X74104447Y-125751303D01*
X74087022Y-125972714D01*
X74086616Y-125977868D01*
X70508000Y-125977868D01*
X70508000Y-105410000D01*
X84430500Y-105410000D01*
X84431190Y-105416565D01*
X84435359Y-105456226D01*
X84450462Y-105599927D01*
X84452502Y-105606205D01*
X84452502Y-105606206D01*
X84473129Y-105669690D01*
X84509476Y-105781554D01*
X84604963Y-105946942D01*
X84732749Y-106088863D01*
X84738091Y-106092744D01*
X84738093Y-106092746D01*
X84879143Y-106195224D01*
X84887250Y-106201114D01*
X84893278Y-106203798D01*
X84893280Y-106203799D01*
X84897887Y-106205850D01*
X85061713Y-106278790D01*
X85155113Y-106298643D01*
X85242056Y-106317124D01*
X85242061Y-106317124D01*
X85248513Y-106318496D01*
X85439487Y-106318496D01*
X85445939Y-106317124D01*
X85445944Y-106317124D01*
X85532887Y-106298643D01*
X85626287Y-106278790D01*
X85790113Y-106205850D01*
X85794720Y-106203799D01*
X85794722Y-106203798D01*
X85800750Y-106201114D01*
X85808857Y-106195224D01*
X85949907Y-106092746D01*
X85949909Y-106092744D01*
X85955251Y-106088863D01*
X85959673Y-106083952D01*
X85964575Y-106079538D01*
X85965701Y-106080789D01*
X86019000Y-106047951D01*
X86052194Y-106043500D01*
X123878806Y-106043500D01*
X123946927Y-106063502D01*
X123966151Y-106079842D01*
X123966425Y-106079538D01*
X123971327Y-106083952D01*
X123975749Y-106088863D01*
X123981091Y-106092744D01*
X123981093Y-106092746D01*
X124122143Y-106195224D01*
X124130250Y-106201114D01*
X124136278Y-106203798D01*
X124136280Y-106203799D01*
X124140887Y-106205850D01*
X124304713Y-106278790D01*
X124398113Y-106298643D01*
X124485056Y-106317124D01*
X124485061Y-106317124D01*
X124491513Y-106318496D01*
X124682487Y-106318496D01*
X124688939Y-106317124D01*
X124688944Y-106317124D01*
X124775887Y-106298643D01*
X124869287Y-106278790D01*
X125033113Y-106205850D01*
X125037720Y-106203799D01*
X125037722Y-106203798D01*
X125043750Y-106201114D01*
X125051857Y-106195224D01*
X125192907Y-106092746D01*
X125192909Y-106092744D01*
X125198251Y-106088863D01*
X125326037Y-105946942D01*
X125421524Y-105781554D01*
X125457871Y-105669690D01*
X125478498Y-105606206D01*
X125478498Y-105606205D01*
X125480538Y-105599927D01*
X125495642Y-105456226D01*
X125499810Y-105416565D01*
X125500500Y-105410000D01*
X125484302Y-105255883D01*
X125481228Y-105226637D01*
X125481228Y-105226636D01*
X125480538Y-105220073D01*
X125462592Y-105164839D01*
X125431111Y-105067952D01*
X125421524Y-105038446D01*
X125326037Y-104873058D01*
X125198251Y-104731137D01*
X125192909Y-104727256D01*
X125192907Y-104727254D01*
X125049092Y-104622767D01*
X125049091Y-104622766D01*
X125043750Y-104618886D01*
X125037722Y-104616202D01*
X125037720Y-104616201D01*
X124875318Y-104543895D01*
X124875317Y-104543895D01*
X124869287Y-104541210D01*
X124775887Y-104521357D01*
X124688944Y-104502876D01*
X124688939Y-104502876D01*
X124682487Y-104501504D01*
X124491513Y-104501504D01*
X124485061Y-104502876D01*
X124485056Y-104502876D01*
X124398113Y-104521357D01*
X124304713Y-104541210D01*
X124298683Y-104543895D01*
X124298682Y-104543895D01*
X124136280Y-104616201D01*
X124136278Y-104616202D01*
X124130250Y-104618886D01*
X124124909Y-104622766D01*
X124124908Y-104622767D01*
X123981093Y-104727254D01*
X123981091Y-104727256D01*
X123975749Y-104731137D01*
X123971328Y-104736047D01*
X123966425Y-104740462D01*
X123965299Y-104739211D01*
X123912000Y-104772049D01*
X123878806Y-104776500D01*
X86052194Y-104776500D01*
X85984073Y-104756498D01*
X85964849Y-104740158D01*
X85964575Y-104740462D01*
X85959672Y-104736047D01*
X85955251Y-104731137D01*
X85949909Y-104727256D01*
X85949907Y-104727254D01*
X85806092Y-104622767D01*
X85806091Y-104622766D01*
X85800750Y-104618886D01*
X85794722Y-104616202D01*
X85794720Y-104616201D01*
X85632318Y-104543895D01*
X85632317Y-104543895D01*
X85626287Y-104541210D01*
X85532887Y-104521357D01*
X85445944Y-104502876D01*
X85445939Y-104502876D01*
X85439487Y-104501504D01*
X85248513Y-104501504D01*
X85242061Y-104502876D01*
X85242056Y-104502876D01*
X85155113Y-104521357D01*
X85061713Y-104541210D01*
X85055683Y-104543895D01*
X85055682Y-104543895D01*
X84893280Y-104616201D01*
X84893278Y-104616202D01*
X84887250Y-104618886D01*
X84881909Y-104622766D01*
X84881908Y-104622767D01*
X84738093Y-104727254D01*
X84738091Y-104727256D01*
X84732749Y-104731137D01*
X84604963Y-104873058D01*
X84509476Y-105038446D01*
X84499889Y-105067952D01*
X84468409Y-105164839D01*
X84450462Y-105220073D01*
X84449772Y-105226636D01*
X84449772Y-105226637D01*
X84446698Y-105255883D01*
X84430500Y-105410000D01*
X70508000Y-105410000D01*
X70508000Y-99988000D01*
X84234500Y-99988000D01*
X84234500Y-101688000D01*
X84239727Y-101761079D01*
X84257071Y-101820148D01*
X84274393Y-101879140D01*
X84280904Y-101901316D01*
X84285775Y-101908895D01*
X84355051Y-102016691D01*
X84355053Y-102016694D01*
X84359923Y-102024271D01*
X84366733Y-102030172D01*
X84463569Y-102114082D01*
X84463572Y-102114084D01*
X84470381Y-102119984D01*
X84478579Y-102123728D01*
X84590998Y-102175068D01*
X84603330Y-102180700D01*
X84612245Y-102181982D01*
X84612246Y-102181982D01*
X84743552Y-102200861D01*
X84743559Y-102200862D01*
X84748000Y-102201500D01*
X86448000Y-102201500D01*
X86521079Y-102196273D01*
X86624882Y-102165794D01*
X86652670Y-102157635D01*
X86652672Y-102157634D01*
X86661316Y-102155096D01*
X86710125Y-102123728D01*
X86776691Y-102080949D01*
X86776694Y-102080947D01*
X86784271Y-102076077D01*
X86809086Y-102047439D01*
X86874082Y-101972431D01*
X86874084Y-101972428D01*
X86879984Y-101965619D01*
X86940700Y-101832670D01*
X86941320Y-101828360D01*
X86978432Y-101770610D01*
X87043012Y-101741117D01*
X87113286Y-101751220D01*
X87145335Y-101772270D01*
X87313629Y-101924069D01*
X87508406Y-102047439D01*
X87721184Y-102136228D01*
X87726387Y-102137425D01*
X87726392Y-102137426D01*
X87940678Y-102186701D01*
X87940683Y-102186702D01*
X87945881Y-102187897D01*
X87951209Y-102188200D01*
X87951212Y-102188200D01*
X88101877Y-102196755D01*
X88176071Y-102200968D01*
X88181378Y-102200368D01*
X88181380Y-102200368D01*
X88355354Y-102180700D01*
X88405173Y-102175068D01*
X88410288Y-102173587D01*
X88410292Y-102173586D01*
X88539298Y-102136228D01*
X88626635Y-102110937D01*
X88834125Y-102010409D01*
X88838463Y-102007309D01*
X88838468Y-102007306D01*
X89017370Y-101879459D01*
X89021711Y-101876357D01*
X89135989Y-101761079D01*
X89180277Y-101716403D01*
X89180278Y-101716402D01*
X89184030Y-101712617D01*
X89187090Y-101708255D01*
X89187095Y-101708249D01*
X89305634Y-101539271D01*
X89361130Y-101494990D01*
X89431755Y-101487743D01*
X89495088Y-101519829D01*
X89519461Y-101551410D01*
X89539685Y-101588580D01*
X89682424Y-101769644D01*
X89735539Y-101817553D01*
X89849659Y-101920489D01*
X89849665Y-101920494D01*
X89853629Y-101924069D01*
X90048406Y-102047439D01*
X90261184Y-102136228D01*
X90266387Y-102137425D01*
X90266392Y-102137426D01*
X90480678Y-102186701D01*
X90480683Y-102186702D01*
X90485881Y-102187897D01*
X90491209Y-102188200D01*
X90491212Y-102188200D01*
X90641877Y-102196755D01*
X90716071Y-102200968D01*
X90721378Y-102200368D01*
X90721380Y-102200368D01*
X90895354Y-102180700D01*
X90945173Y-102175068D01*
X90950288Y-102173587D01*
X90950292Y-102173586D01*
X91079298Y-102136228D01*
X91166635Y-102110937D01*
X91374125Y-102010409D01*
X91378463Y-102007309D01*
X91378468Y-102007306D01*
X91557370Y-101879459D01*
X91561711Y-101876357D01*
X91675989Y-101761079D01*
X91720277Y-101716403D01*
X91720278Y-101716402D01*
X91724030Y-101712617D01*
X91727090Y-101708255D01*
X91727095Y-101708249D01*
X91845634Y-101539271D01*
X91901130Y-101494990D01*
X91971755Y-101487743D01*
X92035088Y-101519829D01*
X92059461Y-101551410D01*
X92079685Y-101588580D01*
X92222424Y-101769644D01*
X92275539Y-101817553D01*
X92389659Y-101920489D01*
X92389665Y-101920494D01*
X92393629Y-101924069D01*
X92588406Y-102047439D01*
X92801184Y-102136228D01*
X92806387Y-102137425D01*
X92806392Y-102137426D01*
X93020678Y-102186701D01*
X93020683Y-102186702D01*
X93025881Y-102187897D01*
X93031209Y-102188200D01*
X93031212Y-102188200D01*
X93181877Y-102196755D01*
X93256071Y-102200968D01*
X93261378Y-102200368D01*
X93261380Y-102200368D01*
X93435354Y-102180700D01*
X93485173Y-102175068D01*
X93490288Y-102173587D01*
X93490292Y-102173586D01*
X93619298Y-102136228D01*
X93706635Y-102110937D01*
X93914125Y-102010409D01*
X93918463Y-102007309D01*
X93918468Y-102007306D01*
X94097370Y-101879459D01*
X94101711Y-101876357D01*
X94215989Y-101761079D01*
X94260277Y-101716403D01*
X94260278Y-101716402D01*
X94264030Y-101712617D01*
X94267090Y-101708255D01*
X94267095Y-101708249D01*
X94385634Y-101539271D01*
X94441130Y-101494990D01*
X94511755Y-101487743D01*
X94575088Y-101519829D01*
X94599461Y-101551410D01*
X94619685Y-101588580D01*
X94762424Y-101769644D01*
X94815539Y-101817553D01*
X94929659Y-101920489D01*
X94929665Y-101920494D01*
X94933629Y-101924069D01*
X95128406Y-102047439D01*
X95341184Y-102136228D01*
X95346387Y-102137425D01*
X95346392Y-102137426D01*
X95560678Y-102186701D01*
X95560683Y-102186702D01*
X95565881Y-102187897D01*
X95571209Y-102188200D01*
X95571212Y-102188200D01*
X95721877Y-102196755D01*
X95796071Y-102200968D01*
X95801378Y-102200368D01*
X95801380Y-102200368D01*
X95975354Y-102180700D01*
X96025173Y-102175068D01*
X96030288Y-102173587D01*
X96030292Y-102173586D01*
X96159298Y-102136228D01*
X96246635Y-102110937D01*
X96454125Y-102010409D01*
X96458463Y-102007309D01*
X96458468Y-102007306D01*
X96637370Y-101879459D01*
X96641711Y-101876357D01*
X96755989Y-101761079D01*
X96800277Y-101716403D01*
X96800278Y-101716402D01*
X96804030Y-101712617D01*
X96807090Y-101708255D01*
X96807095Y-101708249D01*
X96925634Y-101539271D01*
X96981130Y-101494990D01*
X97051755Y-101487743D01*
X97115088Y-101519829D01*
X97139461Y-101551410D01*
X97159685Y-101588580D01*
X97302424Y-101769644D01*
X97355539Y-101817553D01*
X97469659Y-101920489D01*
X97469665Y-101920494D01*
X97473629Y-101924069D01*
X97668406Y-102047439D01*
X97881184Y-102136228D01*
X97886387Y-102137425D01*
X97886392Y-102137426D01*
X98100678Y-102186701D01*
X98100683Y-102186702D01*
X98105881Y-102187897D01*
X98111209Y-102188200D01*
X98111212Y-102188200D01*
X98261877Y-102196755D01*
X98336071Y-102200968D01*
X98341378Y-102200368D01*
X98341380Y-102200368D01*
X98515354Y-102180700D01*
X98565173Y-102175068D01*
X98570288Y-102173587D01*
X98570292Y-102173586D01*
X98699298Y-102136228D01*
X98786635Y-102110937D01*
X98994125Y-102010409D01*
X98998463Y-102007309D01*
X98998468Y-102007306D01*
X99177370Y-101879459D01*
X99181711Y-101876357D01*
X99295989Y-101761079D01*
X99340277Y-101716403D01*
X99340278Y-101716402D01*
X99344030Y-101712617D01*
X99347090Y-101708255D01*
X99347095Y-101708249D01*
X99465634Y-101539271D01*
X99521130Y-101494990D01*
X99591755Y-101487743D01*
X99655088Y-101519829D01*
X99679461Y-101551410D01*
X99699685Y-101588580D01*
X99842424Y-101769644D01*
X99895539Y-101817553D01*
X100009659Y-101920489D01*
X100009665Y-101920494D01*
X100013629Y-101924069D01*
X100208406Y-102047439D01*
X100421184Y-102136228D01*
X100426387Y-102137425D01*
X100426392Y-102137426D01*
X100640678Y-102186701D01*
X100640683Y-102186702D01*
X100645881Y-102187897D01*
X100651209Y-102188200D01*
X100651212Y-102188200D01*
X100801877Y-102196755D01*
X100876071Y-102200968D01*
X100881378Y-102200368D01*
X100881380Y-102200368D01*
X101055354Y-102180700D01*
X101105173Y-102175068D01*
X101110288Y-102173587D01*
X101110292Y-102173586D01*
X101239298Y-102136228D01*
X101326635Y-102110937D01*
X101534125Y-102010409D01*
X101538463Y-102007309D01*
X101538468Y-102007306D01*
X101717370Y-101879459D01*
X101721711Y-101876357D01*
X101835989Y-101761079D01*
X101880277Y-101716403D01*
X101880278Y-101716402D01*
X101884030Y-101712617D01*
X101887090Y-101708255D01*
X101887095Y-101708249D01*
X102005634Y-101539271D01*
X102061130Y-101494990D01*
X102131755Y-101487743D01*
X102195088Y-101519829D01*
X102219461Y-101551410D01*
X102239685Y-101588580D01*
X102382424Y-101769644D01*
X102435539Y-101817553D01*
X102549659Y-101920489D01*
X102549665Y-101920494D01*
X102553629Y-101924069D01*
X102748406Y-102047439D01*
X102961184Y-102136228D01*
X102966387Y-102137425D01*
X102966392Y-102137426D01*
X103180678Y-102186701D01*
X103180683Y-102186702D01*
X103185881Y-102187897D01*
X103191209Y-102188200D01*
X103191212Y-102188200D01*
X103341877Y-102196755D01*
X103416071Y-102200968D01*
X103421378Y-102200368D01*
X103421380Y-102200368D01*
X103595354Y-102180700D01*
X103645173Y-102175068D01*
X103650288Y-102173587D01*
X103650292Y-102173586D01*
X103779298Y-102136228D01*
X103866635Y-102110937D01*
X104074125Y-102010409D01*
X104078463Y-102007309D01*
X104078468Y-102007306D01*
X104257370Y-101879459D01*
X104261711Y-101876357D01*
X104375989Y-101761079D01*
X104420277Y-101716403D01*
X104420278Y-101716402D01*
X104424030Y-101712617D01*
X104427090Y-101708255D01*
X104427095Y-101708249D01*
X104545634Y-101539271D01*
X104601130Y-101494990D01*
X104671755Y-101487743D01*
X104735088Y-101519829D01*
X104759461Y-101551410D01*
X104779685Y-101588580D01*
X104922424Y-101769644D01*
X104975539Y-101817553D01*
X105089659Y-101920489D01*
X105089665Y-101920494D01*
X105093629Y-101924069D01*
X105288406Y-102047439D01*
X105501184Y-102136228D01*
X105506387Y-102137425D01*
X105506392Y-102137426D01*
X105720678Y-102186701D01*
X105720683Y-102186702D01*
X105725881Y-102187897D01*
X105731209Y-102188200D01*
X105731212Y-102188200D01*
X105881877Y-102196755D01*
X105956071Y-102200968D01*
X105961378Y-102200368D01*
X105961380Y-102200368D01*
X106135354Y-102180700D01*
X106185173Y-102175068D01*
X106190288Y-102173587D01*
X106190292Y-102173586D01*
X106319298Y-102136228D01*
X106406635Y-102110937D01*
X106614125Y-102010409D01*
X106618463Y-102007309D01*
X106618468Y-102007306D01*
X106797370Y-101879459D01*
X106801711Y-101876357D01*
X106915989Y-101761079D01*
X106960277Y-101716403D01*
X106960278Y-101716402D01*
X106964030Y-101712617D01*
X106967090Y-101708255D01*
X106967095Y-101708249D01*
X107085634Y-101539271D01*
X107141130Y-101494990D01*
X107211755Y-101487743D01*
X107275088Y-101519829D01*
X107299461Y-101551410D01*
X107319685Y-101588580D01*
X107462424Y-101769644D01*
X107515539Y-101817553D01*
X107629659Y-101920489D01*
X107629665Y-101920494D01*
X107633629Y-101924069D01*
X107828406Y-102047439D01*
X108041184Y-102136228D01*
X108046387Y-102137425D01*
X108046392Y-102137426D01*
X108260678Y-102186701D01*
X108260683Y-102186702D01*
X108265881Y-102187897D01*
X108271209Y-102188200D01*
X108271212Y-102188200D01*
X108421877Y-102196755D01*
X108496071Y-102200968D01*
X108501378Y-102200368D01*
X108501380Y-102200368D01*
X108675354Y-102180700D01*
X108725173Y-102175068D01*
X108730288Y-102173587D01*
X108730292Y-102173586D01*
X108859298Y-102136228D01*
X108946635Y-102110937D01*
X109154125Y-102010409D01*
X109158463Y-102007309D01*
X109158468Y-102007306D01*
X109337370Y-101879459D01*
X109341711Y-101876357D01*
X109455989Y-101761079D01*
X109500277Y-101716403D01*
X109500278Y-101716402D01*
X109504030Y-101712617D01*
X109507090Y-101708255D01*
X109507095Y-101708249D01*
X109625634Y-101539271D01*
X109681130Y-101494990D01*
X109751755Y-101487743D01*
X109815088Y-101519829D01*
X109839461Y-101551410D01*
X109859685Y-101588580D01*
X110002424Y-101769644D01*
X110055539Y-101817553D01*
X110169659Y-101920489D01*
X110169665Y-101920494D01*
X110173629Y-101924069D01*
X110368406Y-102047439D01*
X110581184Y-102136228D01*
X110586387Y-102137425D01*
X110586392Y-102137426D01*
X110800678Y-102186701D01*
X110800683Y-102186702D01*
X110805881Y-102187897D01*
X110811209Y-102188200D01*
X110811212Y-102188200D01*
X110961877Y-102196755D01*
X111036071Y-102200968D01*
X111041378Y-102200368D01*
X111041380Y-102200368D01*
X111215354Y-102180700D01*
X111265173Y-102175068D01*
X111270288Y-102173587D01*
X111270292Y-102173586D01*
X111399298Y-102136228D01*
X111486635Y-102110937D01*
X111694125Y-102010409D01*
X111698463Y-102007309D01*
X111698468Y-102007306D01*
X111877370Y-101879459D01*
X111881711Y-101876357D01*
X111995989Y-101761079D01*
X112040277Y-101716403D01*
X112040278Y-101716402D01*
X112044030Y-101712617D01*
X112047090Y-101708255D01*
X112047095Y-101708249D01*
X112165634Y-101539271D01*
X112221130Y-101494990D01*
X112291755Y-101487743D01*
X112355088Y-101519829D01*
X112379461Y-101551410D01*
X112399685Y-101588580D01*
X112542424Y-101769644D01*
X112595539Y-101817553D01*
X112709659Y-101920489D01*
X112709665Y-101920494D01*
X112713629Y-101924069D01*
X112908406Y-102047439D01*
X113121184Y-102136228D01*
X113126387Y-102137425D01*
X113126392Y-102137426D01*
X113340678Y-102186701D01*
X113340683Y-102186702D01*
X113345881Y-102187897D01*
X113351209Y-102188200D01*
X113351212Y-102188200D01*
X113501877Y-102196755D01*
X113576071Y-102200968D01*
X113581378Y-102200368D01*
X113581380Y-102200368D01*
X113755354Y-102180700D01*
X113805173Y-102175068D01*
X113810288Y-102173587D01*
X113810292Y-102173586D01*
X113939298Y-102136228D01*
X114026635Y-102110937D01*
X114234125Y-102010409D01*
X114238463Y-102007309D01*
X114238468Y-102007306D01*
X114417370Y-101879459D01*
X114421711Y-101876357D01*
X114535989Y-101761079D01*
X114580277Y-101716403D01*
X114580278Y-101716402D01*
X114584030Y-101712617D01*
X114686778Y-101566150D01*
X114713375Y-101528236D01*
X114713376Y-101528234D01*
X114716439Y-101523868D01*
X114815153Y-101315508D01*
X114877349Y-101093494D01*
X114901249Y-100864176D01*
X114901500Y-100838000D01*
X114896596Y-100780206D01*
X114882458Y-100613576D01*
X114882457Y-100613572D01*
X114882007Y-100608265D01*
X114877891Y-100592404D01*
X114825426Y-100390269D01*
X114824084Y-100385098D01*
X114804264Y-100341098D01*
X114731578Y-100179743D01*
X114731577Y-100179741D01*
X114729388Y-100174882D01*
X114718338Y-100158468D01*
X114679805Y-100101233D01*
X114600627Y-99983626D01*
X114586203Y-99968505D01*
X114476778Y-99853799D01*
X114441482Y-99816799D01*
X114256504Y-99679171D01*
X114251743Y-99676751D01*
X114248425Y-99674693D01*
X114201071Y-99621796D01*
X114189832Y-99551695D01*
X114218277Y-99486645D01*
X114241564Y-99465093D01*
X114280488Y-99437277D01*
X114421711Y-99336357D01*
X114524295Y-99232875D01*
X114580277Y-99176403D01*
X114580278Y-99176402D01*
X114584030Y-99172617D01*
X114668103Y-99052771D01*
X114713375Y-98988236D01*
X114713376Y-98988234D01*
X114716439Y-98983868D01*
X114733786Y-98947254D01*
X114812868Y-98780331D01*
X114815153Y-98775508D01*
X114877349Y-98553494D01*
X114878692Y-98540614D01*
X114888278Y-98448632D01*
X114901249Y-98324176D01*
X114901397Y-98308705D01*
X114901472Y-98300963D01*
X114901472Y-98300954D01*
X114901500Y-98298000D01*
X114899530Y-98274779D01*
X114882458Y-98073576D01*
X114882457Y-98073572D01*
X114882007Y-98068265D01*
X114876618Y-98047500D01*
X114833283Y-97880541D01*
X114824084Y-97845098D01*
X114819467Y-97834847D01*
X114731578Y-97639743D01*
X114731577Y-97639741D01*
X114729388Y-97634882D01*
X114600627Y-97443626D01*
X114596946Y-97439767D01*
X114596941Y-97439761D01*
X114527026Y-97366471D01*
X114494479Y-97303375D01*
X114501211Y-97232698D01*
X114545085Y-97176881D01*
X114618196Y-97153500D01*
X114747406Y-97153500D01*
X114815527Y-97173502D01*
X114836501Y-97190405D01*
X117924882Y-100278786D01*
X117958908Y-100341098D01*
X117961097Y-100354710D01*
X117978462Y-100519927D01*
X117980502Y-100526205D01*
X117980502Y-100526206D01*
X118001414Y-100590565D01*
X118037476Y-100701554D01*
X118132963Y-100866942D01*
X118137381Y-100871849D01*
X118137382Y-100871850D01*
X118217902Y-100961277D01*
X118260749Y-101008863D01*
X118266091Y-101012744D01*
X118266093Y-101012746D01*
X118405118Y-101113753D01*
X118415250Y-101121114D01*
X118421278Y-101123798D01*
X118421280Y-101123799D01*
X118425887Y-101125850D01*
X118589713Y-101198790D01*
X118677736Y-101217500D01*
X118770056Y-101237124D01*
X118770061Y-101237124D01*
X118776513Y-101238496D01*
X118967487Y-101238496D01*
X118973939Y-101237124D01*
X118973944Y-101237124D01*
X119066264Y-101217500D01*
X119154287Y-101198790D01*
X119318113Y-101125850D01*
X119322720Y-101123799D01*
X119322722Y-101123798D01*
X119328750Y-101121114D01*
X119338882Y-101113753D01*
X119477907Y-101012746D01*
X119477909Y-101012744D01*
X119483251Y-101008863D01*
X119526098Y-100961277D01*
X119606618Y-100871850D01*
X119606619Y-100871849D01*
X119611037Y-100866942D01*
X119706524Y-100701554D01*
X119742586Y-100590565D01*
X119763498Y-100526206D01*
X119763498Y-100526205D01*
X119765538Y-100519927D01*
X119785500Y-100330000D01*
X119784810Y-100323435D01*
X119784810Y-100316830D01*
X119786763Y-100316830D01*
X119797862Y-100256177D01*
X119846370Y-100204336D01*
X119884197Y-100189611D01*
X119909829Y-100184163D01*
X119909832Y-100184162D01*
X119916287Y-100182790D01*
X119934049Y-100174882D01*
X120084720Y-100107799D01*
X120084722Y-100107798D01*
X120090750Y-100105114D01*
X120138614Y-100070339D01*
X120239907Y-99996746D01*
X120239909Y-99996744D01*
X120245251Y-99992863D01*
X120267191Y-99968496D01*
X120368618Y-99855850D01*
X120368619Y-99855849D01*
X120373037Y-99850942D01*
X120451814Y-99714496D01*
X120465220Y-99691277D01*
X120465221Y-99691276D01*
X120468524Y-99685554D01*
X120523915Y-99515079D01*
X120525498Y-99510206D01*
X120525498Y-99510205D01*
X120527538Y-99503927D01*
X120530001Y-99480498D01*
X120546810Y-99320565D01*
X120547500Y-99314000D01*
X120539009Y-99233215D01*
X120528228Y-99130637D01*
X120528228Y-99130636D01*
X120527538Y-99124073D01*
X120514266Y-99083224D01*
X120506720Y-99060000D01*
X124816500Y-99060000D01*
X124817190Y-99066565D01*
X124834706Y-99233215D01*
X124836462Y-99249927D01*
X124838502Y-99256205D01*
X124838502Y-99256206D01*
X124870123Y-99353525D01*
X124895476Y-99431554D01*
X124898779Y-99437276D01*
X124898780Y-99437277D01*
X124912186Y-99460496D01*
X124990963Y-99596942D01*
X124995381Y-99601849D01*
X124995382Y-99601850D01*
X125096809Y-99714496D01*
X125118749Y-99738863D01*
X125124091Y-99742744D01*
X125124093Y-99742746D01*
X125251258Y-99835136D01*
X125273250Y-99851114D01*
X125279278Y-99853798D01*
X125279280Y-99853799D01*
X125421708Y-99917212D01*
X125447713Y-99928790D01*
X125534056Y-99947143D01*
X125628056Y-99967124D01*
X125628061Y-99967124D01*
X125634513Y-99968496D01*
X125690402Y-99968496D01*
X125758523Y-99988498D01*
X125779497Y-100005401D01*
X126329595Y-100555499D01*
X126363621Y-100617811D01*
X126366500Y-100644594D01*
X126366500Y-104961481D01*
X126346498Y-105029602D01*
X126334136Y-105045791D01*
X126260963Y-105127058D01*
X126257662Y-105132776D01*
X126169858Y-105284857D01*
X126165476Y-105292446D01*
X126163434Y-105298731D01*
X126113880Y-105451244D01*
X126106462Y-105474073D01*
X126105772Y-105480636D01*
X126105772Y-105480637D01*
X126097237Y-105561842D01*
X126086500Y-105664000D01*
X126087190Y-105670565D01*
X126097989Y-105773307D01*
X126106462Y-105853927D01*
X126108502Y-105860205D01*
X126108502Y-105860206D01*
X126110207Y-105865452D01*
X126165476Y-106035554D01*
X126168779Y-106041276D01*
X126168780Y-106041277D01*
X126172633Y-106047951D01*
X126260963Y-106200942D01*
X126265381Y-106205849D01*
X126265382Y-106205850D01*
X126366809Y-106318496D01*
X126388749Y-106342863D01*
X126394091Y-106346744D01*
X126394093Y-106346746D01*
X126424181Y-106368606D01*
X126543250Y-106455114D01*
X126549278Y-106457798D01*
X126549280Y-106457799D01*
X126613955Y-106486594D01*
X126717713Y-106532790D01*
X126811113Y-106552643D01*
X126898056Y-106571124D01*
X126898061Y-106571124D01*
X126904513Y-106572496D01*
X127095487Y-106572496D01*
X127101939Y-106571124D01*
X127101944Y-106571124D01*
X127188887Y-106552643D01*
X127282287Y-106532790D01*
X127395317Y-106482466D01*
X127456750Y-106455114D01*
X127457674Y-106457190D01*
X127516494Y-106442920D01*
X127583586Y-106466139D01*
X127627474Y-106521946D01*
X127636500Y-106568777D01*
X127636500Y-109279481D01*
X127616498Y-109347602D01*
X127604136Y-109363791D01*
X127530963Y-109445058D01*
X127435476Y-109610446D01*
X127433434Y-109616731D01*
X127393675Y-109739098D01*
X127376462Y-109792073D01*
X127375772Y-109798636D01*
X127375772Y-109798637D01*
X127366103Y-109890629D01*
X127356500Y-109982000D01*
X127376462Y-110171927D01*
X127435476Y-110353554D01*
X127530963Y-110518942D01*
X127535381Y-110523849D01*
X127535382Y-110523850D01*
X127636809Y-110636496D01*
X127658749Y-110660863D01*
X127664091Y-110664744D01*
X127664093Y-110664746D01*
X127807780Y-110769140D01*
X127813250Y-110773114D01*
X127819278Y-110775798D01*
X127819280Y-110775799D01*
X127981682Y-110848105D01*
X127987713Y-110850790D01*
X128081113Y-110870643D01*
X128168056Y-110889124D01*
X128168061Y-110889124D01*
X128174513Y-110890496D01*
X128365487Y-110890496D01*
X128371939Y-110889124D01*
X128371944Y-110889124D01*
X128458887Y-110870643D01*
X128552287Y-110850790D01*
X128558318Y-110848105D01*
X128720720Y-110775799D01*
X128720722Y-110775798D01*
X128726750Y-110773114D01*
X128732220Y-110769140D01*
X128875907Y-110664746D01*
X128875909Y-110664744D01*
X128881251Y-110660863D01*
X128903191Y-110636496D01*
X129004618Y-110523850D01*
X129004619Y-110523849D01*
X129009037Y-110518942D01*
X129104524Y-110353554D01*
X129163538Y-110171927D01*
X129183500Y-109982000D01*
X129173897Y-109890629D01*
X129164228Y-109798637D01*
X129164228Y-109798636D01*
X129163538Y-109792073D01*
X129146326Y-109739098D01*
X129106566Y-109616731D01*
X129104524Y-109610446D01*
X129009037Y-109445058D01*
X128935864Y-109363791D01*
X128905146Y-109299784D01*
X128903500Y-109279481D01*
X128903500Y-100154383D01*
X128904014Y-100143479D01*
X128905666Y-100136088D01*
X128903562Y-100069134D01*
X128903500Y-100065176D01*
X128903500Y-100036422D01*
X128902961Y-100032155D01*
X128902027Y-100020305D01*
X128901526Y-100004337D01*
X128900639Y-99976117D01*
X128894988Y-99956666D01*
X128890978Y-99937304D01*
X128889433Y-99925073D01*
X128888440Y-99917212D01*
X128872166Y-99876108D01*
X128868321Y-99864878D01*
X128858198Y-99830034D01*
X128858197Y-99830032D01*
X128855986Y-99822421D01*
X128845677Y-99804989D01*
X128836980Y-99787236D01*
X128832442Y-99775775D01*
X128829522Y-99768400D01*
X128808062Y-99738863D01*
X128803531Y-99732626D01*
X128797016Y-99722707D01*
X128777529Y-99689758D01*
X128777527Y-99689755D01*
X128774513Y-99684659D01*
X128774145Y-99684241D01*
X128760062Y-99670158D01*
X128747228Y-99655133D01*
X128735446Y-99638917D01*
X128701664Y-99610970D01*
X128692885Y-99602981D01*
X127947118Y-98857214D01*
X127913092Y-98794902D01*
X127910903Y-98781290D01*
X127894228Y-98622637D01*
X127894228Y-98622636D01*
X127893538Y-98616073D01*
X127888372Y-98600172D01*
X127854900Y-98497158D01*
X127834524Y-98434446D01*
X127825276Y-98418427D01*
X127768335Y-98319804D01*
X127739037Y-98269058D01*
X127699075Y-98224675D01*
X127615673Y-98132048D01*
X127615672Y-98132047D01*
X127611251Y-98127137D01*
X127605909Y-98123256D01*
X127605907Y-98123254D01*
X127462092Y-98018767D01*
X127462091Y-98018766D01*
X127456750Y-98014886D01*
X127450722Y-98012202D01*
X127450720Y-98012201D01*
X127288318Y-97939895D01*
X127288317Y-97939895D01*
X127282287Y-97937210D01*
X127188887Y-97917357D01*
X127101944Y-97898876D01*
X127101939Y-97898876D01*
X127095487Y-97897504D01*
X126904513Y-97897504D01*
X126898061Y-97898876D01*
X126898056Y-97898876D01*
X126811113Y-97917357D01*
X126717713Y-97937210D01*
X126711683Y-97939895D01*
X126711682Y-97939895D01*
X126549280Y-98012201D01*
X126549278Y-98012202D01*
X126543250Y-98014886D01*
X126537909Y-98018766D01*
X126537908Y-98018767D01*
X126394093Y-98123254D01*
X126394091Y-98123256D01*
X126388749Y-98127137D01*
X126384328Y-98132047D01*
X126384327Y-98132048D01*
X126301092Y-98224490D01*
X126240646Y-98261730D01*
X126169662Y-98260378D01*
X126156207Y-98255287D01*
X126018318Y-98193895D01*
X126018317Y-98193895D01*
X126012287Y-98191210D01*
X125918887Y-98171357D01*
X125831944Y-98152876D01*
X125831939Y-98152876D01*
X125825487Y-98151504D01*
X125634513Y-98151504D01*
X125628061Y-98152876D01*
X125628056Y-98152876D01*
X125541113Y-98171357D01*
X125447713Y-98191210D01*
X125441683Y-98193895D01*
X125441682Y-98193895D01*
X125279280Y-98266201D01*
X125279278Y-98266202D01*
X125273250Y-98268886D01*
X125267909Y-98272766D01*
X125267908Y-98272767D01*
X125124093Y-98377254D01*
X125124091Y-98377256D01*
X125118749Y-98381137D01*
X125114328Y-98386047D01*
X125114327Y-98386048D01*
X125058138Y-98448453D01*
X124990963Y-98523058D01*
X124946441Y-98600172D01*
X124905240Y-98671535D01*
X124895476Y-98688446D01*
X124880232Y-98735363D01*
X124844266Y-98846056D01*
X124836462Y-98870073D01*
X124835772Y-98876636D01*
X124835772Y-98876637D01*
X124830841Y-98923554D01*
X124816500Y-99060000D01*
X120506720Y-99060000D01*
X120487941Y-99002206D01*
X120468524Y-98942446D01*
X120373037Y-98777058D01*
X120341574Y-98742114D01*
X120249673Y-98640048D01*
X120249672Y-98640047D01*
X120245251Y-98635137D01*
X120239909Y-98631256D01*
X120239907Y-98631254D01*
X120096092Y-98526767D01*
X120096091Y-98526766D01*
X120090750Y-98522886D01*
X120084722Y-98520202D01*
X120084720Y-98520201D01*
X119922318Y-98447895D01*
X119922317Y-98447895D01*
X119916287Y-98445210D01*
X119820845Y-98424923D01*
X119735944Y-98406876D01*
X119735939Y-98406876D01*
X119729487Y-98405504D01*
X119673598Y-98405504D01*
X119605477Y-98385502D01*
X119584503Y-98368599D01*
X116835391Y-95619487D01*
X116828031Y-95611399D01*
X116823973Y-95605005D01*
X116775121Y-95559130D01*
X116772280Y-95556376D01*
X116751966Y-95536062D01*
X116748555Y-95533417D01*
X116739533Y-95525711D01*
X116713077Y-95500867D01*
X116707301Y-95495443D01*
X116700357Y-95491626D01*
X116700355Y-95491624D01*
X116689547Y-95485682D01*
X116673023Y-95474828D01*
X116663286Y-95467275D01*
X116663285Y-95467275D01*
X116657023Y-95462417D01*
X116644827Y-95457139D01*
X116616449Y-95444859D01*
X116605790Y-95439637D01*
X116599762Y-95436323D01*
X116567048Y-95418338D01*
X116559365Y-95416366D01*
X116559364Y-95416365D01*
X116547432Y-95413301D01*
X116528728Y-95406897D01*
X116517415Y-95402001D01*
X116517408Y-95401999D01*
X116510136Y-95398852D01*
X116502312Y-95397613D01*
X116502309Y-95397612D01*
X116466465Y-95391935D01*
X116454844Y-95389528D01*
X116417782Y-95380013D01*
X116417781Y-95380013D01*
X116412025Y-95378535D01*
X116411469Y-95378500D01*
X116391548Y-95378500D01*
X116371838Y-95376949D01*
X116359886Y-95375056D01*
X116359885Y-95375056D01*
X116352056Y-95373816D01*
X116344164Y-95374562D01*
X116308418Y-95377941D01*
X116296560Y-95378500D01*
X108282383Y-95378500D01*
X108271479Y-95377986D01*
X108264088Y-95376334D01*
X108256162Y-95376583D01*
X108256161Y-95376583D01*
X108197134Y-95378438D01*
X108193176Y-95378500D01*
X108164422Y-95378500D01*
X108160155Y-95379039D01*
X108148313Y-95379972D01*
X108116665Y-95380967D01*
X108112040Y-95381112D01*
X108104117Y-95381361D01*
X108085063Y-95386897D01*
X108084667Y-95387012D01*
X108065305Y-95391022D01*
X108045212Y-95393560D01*
X108014047Y-95405899D01*
X108004108Y-95409834D01*
X107992878Y-95413679D01*
X107958034Y-95423802D01*
X107958032Y-95423803D01*
X107950421Y-95426014D01*
X107935067Y-95435094D01*
X107932989Y-95436323D01*
X107915236Y-95445020D01*
X107896400Y-95452478D01*
X107889985Y-95457139D01*
X107860626Y-95478469D01*
X107850707Y-95484984D01*
X107817758Y-95504471D01*
X107817755Y-95504473D01*
X107812659Y-95507487D01*
X107812241Y-95507855D01*
X107798158Y-95521938D01*
X107783133Y-95534772D01*
X107766917Y-95546554D01*
X107738971Y-95580335D01*
X107730981Y-95589115D01*
X106373707Y-96946389D01*
X106311395Y-96980415D01*
X106247247Y-96977626D01*
X106215893Y-96967890D01*
X106215883Y-96967888D01*
X106210792Y-96966307D01*
X106205506Y-96965606D01*
X106205504Y-96965606D01*
X105987515Y-96936714D01*
X105987510Y-96936714D01*
X105982230Y-96936014D01*
X105976900Y-96936214D01*
X105976899Y-96936214D01*
X105867031Y-96940338D01*
X105751831Y-96944663D01*
X105696194Y-96956337D01*
X105531411Y-96990912D01*
X105531408Y-96990913D01*
X105526184Y-96992009D01*
X105311740Y-97076697D01*
X105114631Y-97196306D01*
X105110601Y-97199803D01*
X104970328Y-97321525D01*
X104940492Y-97347415D01*
X104937109Y-97351541D01*
X104937105Y-97351545D01*
X104874010Y-97428496D01*
X104794304Y-97525705D01*
X104791667Y-97530338D01*
X104791666Y-97530339D01*
X104758116Y-97589278D01*
X104707033Y-97638584D01*
X104637402Y-97652445D01*
X104571332Y-97626461D01*
X104544094Y-97597312D01*
X104538686Y-97589278D01*
X104463074Y-97476968D01*
X104443607Y-97448052D01*
X104443605Y-97448050D01*
X104440627Y-97443626D01*
X104425620Y-97427894D01*
X104314217Y-97311114D01*
X104281482Y-97276799D01*
X104096504Y-97139171D01*
X104091753Y-97136755D01*
X104091749Y-97136753D01*
X103895740Y-97037097D01*
X103895739Y-97037097D01*
X103890982Y-97034678D01*
X103776267Y-96999058D01*
X103675895Y-96967891D01*
X103675889Y-96967890D01*
X103670792Y-96966307D01*
X103565798Y-96952391D01*
X103447515Y-96936714D01*
X103447510Y-96936714D01*
X103442230Y-96936014D01*
X103436900Y-96936214D01*
X103436899Y-96936214D01*
X103327031Y-96940338D01*
X103211831Y-96944663D01*
X103156194Y-96956337D01*
X102991411Y-96990912D01*
X102991408Y-96990913D01*
X102986184Y-96992009D01*
X102771740Y-97076697D01*
X102574631Y-97196306D01*
X102570601Y-97199803D01*
X102430328Y-97321525D01*
X102400492Y-97347415D01*
X102397109Y-97351541D01*
X102397105Y-97351545D01*
X102334010Y-97428496D01*
X102254304Y-97525705D01*
X102251667Y-97530338D01*
X102251666Y-97530339D01*
X102218116Y-97589278D01*
X102167033Y-97638584D01*
X102097402Y-97652445D01*
X102031332Y-97626461D01*
X102004094Y-97597312D01*
X101998686Y-97589278D01*
X101923074Y-97476968D01*
X101903607Y-97448052D01*
X101903605Y-97448050D01*
X101900627Y-97443626D01*
X101885620Y-97427894D01*
X101774217Y-97311114D01*
X101741482Y-97276799D01*
X101556504Y-97139171D01*
X101551753Y-97136755D01*
X101551749Y-97136753D01*
X101355740Y-97037097D01*
X101355739Y-97037097D01*
X101350982Y-97034678D01*
X101236267Y-96999058D01*
X101135895Y-96967891D01*
X101135889Y-96967890D01*
X101130792Y-96966307D01*
X101025798Y-96952391D01*
X100907515Y-96936714D01*
X100907510Y-96936714D01*
X100902230Y-96936014D01*
X100896900Y-96936214D01*
X100896899Y-96936214D01*
X100787031Y-96940338D01*
X100671831Y-96944663D01*
X100616194Y-96956337D01*
X100451411Y-96990912D01*
X100451408Y-96990913D01*
X100446184Y-96992009D01*
X100231740Y-97076697D01*
X100034631Y-97196306D01*
X100030601Y-97199803D01*
X99890328Y-97321525D01*
X99860492Y-97347415D01*
X99857109Y-97351541D01*
X99857105Y-97351545D01*
X99794010Y-97428496D01*
X99714304Y-97525705D01*
X99711667Y-97530338D01*
X99711666Y-97530339D01*
X99678116Y-97589278D01*
X99627033Y-97638584D01*
X99557402Y-97652445D01*
X99491332Y-97626461D01*
X99464094Y-97597312D01*
X99458686Y-97589278D01*
X99383074Y-97476968D01*
X99363607Y-97448052D01*
X99363605Y-97448050D01*
X99360627Y-97443626D01*
X99345620Y-97427894D01*
X99234217Y-97311114D01*
X99201482Y-97276799D01*
X99016504Y-97139171D01*
X99011753Y-97136755D01*
X99011749Y-97136753D01*
X98815740Y-97037097D01*
X98815739Y-97037097D01*
X98810982Y-97034678D01*
X98696267Y-96999058D01*
X98595895Y-96967891D01*
X98595889Y-96967890D01*
X98590792Y-96966307D01*
X98485798Y-96952391D01*
X98367515Y-96936714D01*
X98367510Y-96936714D01*
X98362230Y-96936014D01*
X98356900Y-96936214D01*
X98356899Y-96936214D01*
X98247031Y-96940338D01*
X98131831Y-96944663D01*
X98076194Y-96956337D01*
X97911411Y-96990912D01*
X97911408Y-96990913D01*
X97906184Y-96992009D01*
X97691740Y-97076697D01*
X97494631Y-97196306D01*
X97490601Y-97199803D01*
X97350328Y-97321525D01*
X97320492Y-97347415D01*
X97317109Y-97351541D01*
X97317105Y-97351545D01*
X97254010Y-97428496D01*
X97174304Y-97525705D01*
X97171667Y-97530338D01*
X97171666Y-97530339D01*
X97138116Y-97589278D01*
X97087033Y-97638584D01*
X97017402Y-97652445D01*
X96951332Y-97626461D01*
X96924094Y-97597312D01*
X96918686Y-97589278D01*
X96843074Y-97476968D01*
X96823607Y-97448052D01*
X96823605Y-97448050D01*
X96820627Y-97443626D01*
X96805620Y-97427894D01*
X96694217Y-97311114D01*
X96661482Y-97276799D01*
X96476504Y-97139171D01*
X96471753Y-97136755D01*
X96471749Y-97136753D01*
X96275740Y-97037097D01*
X96275739Y-97037097D01*
X96270982Y-97034678D01*
X96156267Y-96999058D01*
X96055895Y-96967891D01*
X96055889Y-96967890D01*
X96050792Y-96966307D01*
X95945798Y-96952391D01*
X95827515Y-96936714D01*
X95827510Y-96936714D01*
X95822230Y-96936014D01*
X95816900Y-96936214D01*
X95816899Y-96936214D01*
X95707031Y-96940338D01*
X95591831Y-96944663D01*
X95536194Y-96956337D01*
X95371411Y-96990912D01*
X95371408Y-96990913D01*
X95366184Y-96992009D01*
X95151740Y-97076697D01*
X94954631Y-97196306D01*
X94950601Y-97199803D01*
X94810328Y-97321525D01*
X94780492Y-97347415D01*
X94777109Y-97351541D01*
X94777105Y-97351545D01*
X94714010Y-97428496D01*
X94634304Y-97525705D01*
X94631667Y-97530338D01*
X94631666Y-97530339D01*
X94598116Y-97589278D01*
X94547033Y-97638584D01*
X94477402Y-97652445D01*
X94411332Y-97626461D01*
X94384094Y-97597312D01*
X94378686Y-97589278D01*
X94303074Y-97476968D01*
X94283607Y-97448052D01*
X94283605Y-97448050D01*
X94280627Y-97443626D01*
X94265620Y-97427894D01*
X94154217Y-97311114D01*
X94121482Y-97276799D01*
X93936504Y-97139171D01*
X93931753Y-97136755D01*
X93931749Y-97136753D01*
X93735740Y-97037097D01*
X93735739Y-97037097D01*
X93730982Y-97034678D01*
X93616267Y-96999058D01*
X93515895Y-96967891D01*
X93515889Y-96967890D01*
X93510792Y-96966307D01*
X93405798Y-96952391D01*
X93287515Y-96936714D01*
X93287510Y-96936714D01*
X93282230Y-96936014D01*
X93276900Y-96936214D01*
X93276899Y-96936214D01*
X93167031Y-96940338D01*
X93051831Y-96944663D01*
X92996194Y-96956337D01*
X92831411Y-96990912D01*
X92831408Y-96990913D01*
X92826184Y-96992009D01*
X92611740Y-97076697D01*
X92414631Y-97196306D01*
X92410601Y-97199803D01*
X92270328Y-97321525D01*
X92240492Y-97347415D01*
X92237109Y-97351541D01*
X92237105Y-97351545D01*
X92174010Y-97428496D01*
X92094304Y-97525705D01*
X92091667Y-97530338D01*
X92091666Y-97530339D01*
X92058116Y-97589278D01*
X92007033Y-97638584D01*
X91937402Y-97652445D01*
X91871332Y-97626461D01*
X91844094Y-97597312D01*
X91838686Y-97589278D01*
X91763074Y-97476968D01*
X91743607Y-97448052D01*
X91743605Y-97448050D01*
X91740627Y-97443626D01*
X91725620Y-97427894D01*
X91614217Y-97311114D01*
X91581482Y-97276799D01*
X91396504Y-97139171D01*
X91391753Y-97136755D01*
X91391749Y-97136753D01*
X91195740Y-97037097D01*
X91195739Y-97037097D01*
X91190982Y-97034678D01*
X91076267Y-96999058D01*
X90975895Y-96967891D01*
X90975889Y-96967890D01*
X90970792Y-96966307D01*
X90865798Y-96952391D01*
X90747515Y-96936714D01*
X90747510Y-96936714D01*
X90742230Y-96936014D01*
X90736900Y-96936214D01*
X90736899Y-96936214D01*
X90627031Y-96940338D01*
X90511831Y-96944663D01*
X90456194Y-96956337D01*
X90291411Y-96990912D01*
X90291408Y-96990913D01*
X90286184Y-96992009D01*
X90071740Y-97076697D01*
X89874631Y-97196306D01*
X89870601Y-97199803D01*
X89730328Y-97321525D01*
X89700492Y-97347415D01*
X89697109Y-97351541D01*
X89697105Y-97351545D01*
X89634010Y-97428496D01*
X89554304Y-97525705D01*
X89521837Y-97582741D01*
X89517842Y-97589760D01*
X89466760Y-97639066D01*
X89397130Y-97652928D01*
X89331059Y-97626945D01*
X89303820Y-97597795D01*
X89203218Y-97448366D01*
X89196557Y-97440080D01*
X89044830Y-97281030D01*
X89036873Y-97273990D01*
X88860523Y-97142782D01*
X88851486Y-97137178D01*
X88655550Y-97037559D01*
X88645699Y-97033559D01*
X88435778Y-96968378D01*
X88425396Y-96966095D01*
X88409959Y-96964049D01*
X88395792Y-96966246D01*
X88392000Y-96979430D01*
X88392000Y-98426000D01*
X88371998Y-98494121D01*
X88318342Y-98540614D01*
X88266000Y-98552000D01*
X88010000Y-98552000D01*
X87941879Y-98531998D01*
X87895386Y-98478342D01*
X87884000Y-98426000D01*
X87884000Y-96981717D01*
X87880027Y-96968186D01*
X87869420Y-96966661D01*
X87751554Y-96991391D01*
X87741358Y-96994451D01*
X87536932Y-97075182D01*
X87527396Y-97079916D01*
X87339486Y-97193942D01*
X87330896Y-97200206D01*
X87164884Y-97344264D01*
X87157464Y-97351895D01*
X87018100Y-97521860D01*
X87012079Y-97530622D01*
X86978427Y-97589739D01*
X86927344Y-97639045D01*
X86857714Y-97652906D01*
X86791643Y-97626922D01*
X86764405Y-97597773D01*
X86675314Y-97465442D01*
X86660627Y-97443626D01*
X86645620Y-97427894D01*
X86534217Y-97311114D01*
X86501482Y-97276799D01*
X86316504Y-97139171D01*
X86311753Y-97136755D01*
X86311749Y-97136753D01*
X86115740Y-97037097D01*
X86115739Y-97037097D01*
X86110982Y-97034678D01*
X85996267Y-96999058D01*
X85895895Y-96967891D01*
X85895889Y-96967890D01*
X85890792Y-96966307D01*
X85785798Y-96952391D01*
X85667515Y-96936714D01*
X85667510Y-96936714D01*
X85662230Y-96936014D01*
X85656900Y-96936214D01*
X85656899Y-96936214D01*
X85547031Y-96940338D01*
X85431831Y-96944663D01*
X85376194Y-96956337D01*
X85211411Y-96990912D01*
X85211408Y-96990913D01*
X85206184Y-96992009D01*
X84991740Y-97076697D01*
X84794631Y-97196306D01*
X84790601Y-97199803D01*
X84650328Y-97321525D01*
X84620492Y-97347415D01*
X84617109Y-97351541D01*
X84617105Y-97351545D01*
X84554010Y-97428496D01*
X84474304Y-97525705D01*
X84471666Y-97530339D01*
X84471663Y-97530344D01*
X84401884Y-97652928D01*
X84360245Y-97726077D01*
X84281578Y-97942802D01*
X84280629Y-97948051D01*
X84280628Y-97948054D01*
X84243984Y-98150696D01*
X84240551Y-98169683D01*
X84239464Y-98282946D01*
X84238397Y-98394138D01*
X84238338Y-98400233D01*
X84275002Y-98627861D01*
X84349494Y-98846056D01*
X84459685Y-99048580D01*
X84602424Y-99229644D01*
X84662034Y-99283411D01*
X84699219Y-99343888D01*
X84697805Y-99414871D01*
X84658240Y-99473821D01*
X84613138Y-99497868D01*
X84543330Y-99518365D01*
X84543328Y-99518366D01*
X84534684Y-99520904D01*
X84496528Y-99545426D01*
X84419309Y-99595051D01*
X84419306Y-99595053D01*
X84411729Y-99599923D01*
X84405828Y-99606733D01*
X84321918Y-99703569D01*
X84321916Y-99703572D01*
X84316016Y-99710381D01*
X84312272Y-99718579D01*
X84289520Y-99768400D01*
X84255300Y-99843330D01*
X84254018Y-99852245D01*
X84254018Y-99852246D01*
X84235139Y-99983552D01*
X84235138Y-99983559D01*
X84234500Y-99988000D01*
X70508000Y-99988000D01*
X70508000Y-90634000D01*
X70528002Y-90565879D01*
X70581658Y-90519386D01*
X70634000Y-90508000D01*
X171366000Y-90508000D01*
X171434121Y-90528002D01*
G37*
%TD.AperFunction*%
%TA.AperFunction,Conductor*%
G36*
X168255298Y-111396561D02*
G01*
X168256515Y-111396433D01*
X168256538Y-111396656D01*
X168324099Y-111401814D01*
X168380730Y-111444633D01*
X168405221Y-111511272D01*
X168405500Y-111519657D01*
X168405500Y-124347629D01*
X168385498Y-124415750D01*
X168368595Y-124436724D01*
X167720224Y-125085095D01*
X167657912Y-125119121D01*
X167631129Y-125122000D01*
X166951586Y-125122000D01*
X166883465Y-125101998D01*
X166864933Y-125087472D01*
X166837732Y-125061704D01*
X166802034Y-125000335D01*
X166805182Y-124929408D01*
X166836912Y-124883235D01*
X166835229Y-124881641D01*
X166906158Y-124806766D01*
X166954849Y-124755367D01*
X167012401Y-124656284D01*
X167038536Y-124611290D01*
X167038537Y-124611289D01*
X167042212Y-124604961D01*
X167092631Y-124438491D01*
X167094661Y-124415750D01*
X167099251Y-124364318D01*
X167099251Y-124364312D01*
X167099500Y-124361525D01*
X167099500Y-123762615D01*
X167097643Y-123746682D01*
X167085205Y-123640006D01*
X167084357Y-123632733D01*
X167038370Y-123506039D01*
X167027507Y-123476112D01*
X167027507Y-123476111D01*
X167025010Y-123469233D01*
X166929641Y-123323771D01*
X166803367Y-123204151D01*
X166652961Y-123116788D01*
X166645957Y-123114667D01*
X166645953Y-123114665D01*
X166541949Y-123083166D01*
X166486491Y-123066369D01*
X166480052Y-123065794D01*
X166480050Y-123065794D01*
X166412318Y-123059749D01*
X166412312Y-123059749D01*
X166409525Y-123059500D01*
X166370943Y-123059500D01*
X166302822Y-123039498D01*
X166256329Y-122985842D01*
X166246225Y-122915568D01*
X166256935Y-122879852D01*
X166257064Y-122879579D01*
X166262026Y-122869033D01*
X166263511Y-122861250D01*
X166263512Y-122861246D01*
X166288386Y-122730852D01*
X166288386Y-122730849D01*
X166289500Y-122725011D01*
X166289500Y-121024421D01*
X166273655Y-120898994D01*
X166212429Y-120744356D01*
X166138564Y-120642689D01*
X166114500Y-120568628D01*
X166114500Y-119077383D01*
X166115014Y-119066479D01*
X166116666Y-119059088D01*
X166114562Y-118992134D01*
X166114500Y-118988176D01*
X166114500Y-118959422D01*
X166113961Y-118955155D01*
X166113027Y-118943305D01*
X166111888Y-118907040D01*
X166111639Y-118899117D01*
X166105988Y-118879666D01*
X166101978Y-118860304D01*
X166100433Y-118848070D01*
X166100432Y-118848067D01*
X166099440Y-118840212D01*
X166096524Y-118832847D01*
X166096523Y-118832843D01*
X166083163Y-118799099D01*
X166079318Y-118787870D01*
X166072527Y-118764496D01*
X166066986Y-118745422D01*
X166062948Y-118738594D01*
X166056677Y-118727989D01*
X166047981Y-118710238D01*
X166043442Y-118698774D01*
X166043440Y-118698771D01*
X166040522Y-118691400D01*
X166014535Y-118655632D01*
X166008016Y-118645709D01*
X166006552Y-118643233D01*
X165985514Y-118607659D01*
X165985145Y-118607241D01*
X165971062Y-118593158D01*
X165958228Y-118578133D01*
X165946446Y-118561917D01*
X165912664Y-118533970D01*
X165903885Y-118525981D01*
X164841391Y-117463487D01*
X164834031Y-117455399D01*
X164829973Y-117449005D01*
X164781121Y-117403130D01*
X164778280Y-117400376D01*
X164757966Y-117380062D01*
X164754555Y-117377417D01*
X164745533Y-117369711D01*
X164719077Y-117344867D01*
X164713301Y-117339443D01*
X164706357Y-117335626D01*
X164706355Y-117335624D01*
X164695547Y-117329682D01*
X164679023Y-117318828D01*
X164669286Y-117311275D01*
X164669285Y-117311275D01*
X164663023Y-117306417D01*
X164622447Y-117288858D01*
X164611790Y-117283637D01*
X164573048Y-117262338D01*
X164565365Y-117260366D01*
X164565364Y-117260365D01*
X164553432Y-117257301D01*
X164534728Y-117250897D01*
X164523415Y-117246001D01*
X164523408Y-117245999D01*
X164516136Y-117242852D01*
X164508312Y-117241613D01*
X164508309Y-117241612D01*
X164472465Y-117235935D01*
X164460844Y-117233528D01*
X164423782Y-117224013D01*
X164423781Y-117224013D01*
X164418025Y-117222535D01*
X164417469Y-117222500D01*
X164397548Y-117222500D01*
X164377838Y-117220949D01*
X164365886Y-117219056D01*
X164365885Y-117219056D01*
X164358056Y-117217816D01*
X164350164Y-117218562D01*
X164314418Y-117221941D01*
X164302560Y-117222500D01*
X155503594Y-117222500D01*
X155435473Y-117202498D01*
X155388980Y-117148842D01*
X155378876Y-117078568D01*
X155408370Y-117013988D01*
X155414499Y-117007405D01*
X157290356Y-115131548D01*
X160863000Y-115131548D01*
X160863000Y-115699621D01*
X160863497Y-115707511D01*
X160877835Y-115821016D01*
X160881746Y-115836249D01*
X160937091Y-115976034D01*
X160944668Y-115989816D01*
X161033034Y-116111441D01*
X161043802Y-116122908D01*
X161159639Y-116218736D01*
X161172921Y-116227165D01*
X161308945Y-116291173D01*
X161323913Y-116296036D01*
X161399206Y-116310400D01*
X161412245Y-116309129D01*
X161417000Y-116294207D01*
X161417000Y-115136115D01*
X161415659Y-115131548D01*
X161925000Y-115131548D01*
X161925000Y-116295747D01*
X161929075Y-116309624D01*
X161942426Y-116311661D01*
X161978016Y-116307165D01*
X161993249Y-116303254D01*
X162133034Y-116247909D01*
X162146816Y-116240332D01*
X162232223Y-116178280D01*
X162299091Y-116154421D01*
X162368242Y-116170502D01*
X162386599Y-116183131D01*
X162429639Y-116218736D01*
X162442921Y-116227165D01*
X162578945Y-116291173D01*
X162593913Y-116296036D01*
X162669206Y-116310400D01*
X162682245Y-116309129D01*
X162687000Y-116294207D01*
X162687000Y-115136115D01*
X162685659Y-115131548D01*
X163195000Y-115131548D01*
X163195000Y-116295747D01*
X163199075Y-116309624D01*
X163212426Y-116311661D01*
X163248016Y-116307165D01*
X163263249Y-116303254D01*
X163403034Y-116247909D01*
X163416816Y-116240332D01*
X163502223Y-116178280D01*
X163569091Y-116154421D01*
X163638242Y-116170502D01*
X163656599Y-116183131D01*
X163699639Y-116218736D01*
X163712921Y-116227165D01*
X163848945Y-116291173D01*
X163863913Y-116296036D01*
X163939206Y-116310400D01*
X163952245Y-116309129D01*
X163957000Y-116294207D01*
X163957000Y-115136115D01*
X163955659Y-115131548D01*
X164465000Y-115131548D01*
X164465000Y-116295747D01*
X164469075Y-116309624D01*
X164482426Y-116311661D01*
X164518016Y-116307165D01*
X164533249Y-116303254D01*
X164673034Y-116247909D01*
X164686816Y-116240332D01*
X164772223Y-116178280D01*
X164839091Y-116154421D01*
X164908242Y-116170502D01*
X164926599Y-116183131D01*
X164969639Y-116218736D01*
X164982921Y-116227165D01*
X165118945Y-116291173D01*
X165133913Y-116296036D01*
X165209206Y-116310400D01*
X165222245Y-116309129D01*
X165227000Y-116294207D01*
X165227000Y-115136115D01*
X165225659Y-115131548D01*
X165735000Y-115131548D01*
X165735000Y-116295747D01*
X165739075Y-116309624D01*
X165752426Y-116311661D01*
X165788016Y-116307165D01*
X165803249Y-116303254D01*
X165943034Y-116247909D01*
X165956816Y-116240332D01*
X166078441Y-116151966D01*
X166089908Y-116141198D01*
X166185736Y-116025361D01*
X166194165Y-116012079D01*
X166258173Y-115876055D01*
X166263036Y-115861087D01*
X166287886Y-115730824D01*
X166289000Y-115719039D01*
X166289000Y-115136115D01*
X166284525Y-115120876D01*
X166283135Y-115119671D01*
X166275452Y-115118000D01*
X165753115Y-115118000D01*
X165737876Y-115122475D01*
X165736671Y-115123865D01*
X165735000Y-115131548D01*
X165225659Y-115131548D01*
X165222525Y-115120876D01*
X165221135Y-115119671D01*
X165213452Y-115118000D01*
X164483115Y-115118000D01*
X164467876Y-115122475D01*
X164466671Y-115123865D01*
X164465000Y-115131548D01*
X163955659Y-115131548D01*
X163952525Y-115120876D01*
X163951135Y-115119671D01*
X163943452Y-115118000D01*
X163213115Y-115118000D01*
X163197876Y-115122475D01*
X163196671Y-115123865D01*
X163195000Y-115131548D01*
X162685659Y-115131548D01*
X162682525Y-115120876D01*
X162681135Y-115119671D01*
X162673452Y-115118000D01*
X161943115Y-115118000D01*
X161927876Y-115122475D01*
X161926671Y-115123865D01*
X161925000Y-115131548D01*
X161415659Y-115131548D01*
X161412525Y-115120876D01*
X161411135Y-115119671D01*
X161403452Y-115118000D01*
X160881115Y-115118000D01*
X160865876Y-115122475D01*
X160864671Y-115123865D01*
X160863000Y-115131548D01*
X157290356Y-115131548D01*
X158467499Y-113954405D01*
X158529811Y-113920379D01*
X158556594Y-113917500D01*
X160737000Y-113917500D01*
X160805121Y-113937502D01*
X160851614Y-113991158D01*
X160863000Y-114043500D01*
X160863000Y-114591885D01*
X160867475Y-114607124D01*
X160868865Y-114608329D01*
X160876548Y-114610000D01*
X166270885Y-114610000D01*
X166286124Y-114605525D01*
X166287329Y-114604135D01*
X166289000Y-114596452D01*
X166289000Y-114043500D01*
X166309002Y-113975379D01*
X166362658Y-113928886D01*
X166415000Y-113917500D01*
X166545616Y-113917500D01*
X166556520Y-113918014D01*
X166563911Y-113919666D01*
X166571837Y-113919417D01*
X166571838Y-113919417D01*
X166630866Y-113917562D01*
X166634823Y-113917500D01*
X166663578Y-113917500D01*
X166667845Y-113916961D01*
X166679687Y-113916028D01*
X166711335Y-113915033D01*
X166715960Y-113914888D01*
X166723883Y-113914639D01*
X166743334Y-113908988D01*
X166762695Y-113904978D01*
X166765420Y-113904634D01*
X166774930Y-113903433D01*
X166774933Y-113903432D01*
X166782788Y-113902440D01*
X166790153Y-113899524D01*
X166790157Y-113899523D01*
X166823901Y-113886163D01*
X166835130Y-113882318D01*
X166877578Y-113869986D01*
X166884406Y-113865948D01*
X166895011Y-113859677D01*
X166912762Y-113850981D01*
X166924226Y-113846442D01*
X166924229Y-113846440D01*
X166931600Y-113843522D01*
X166967368Y-113817535D01*
X166977291Y-113811016D01*
X167005183Y-113794521D01*
X167015341Y-113788514D01*
X167015759Y-113788145D01*
X167029842Y-113774062D01*
X167044876Y-113761221D01*
X167045083Y-113761071D01*
X167061083Y-113749446D01*
X167077020Y-113730181D01*
X167135853Y-113690443D01*
X167174105Y-113684496D01*
X167227487Y-113684496D01*
X167233939Y-113683124D01*
X167233944Y-113683124D01*
X167320887Y-113664643D01*
X167414287Y-113644790D01*
X167420318Y-113642105D01*
X167582720Y-113569799D01*
X167582722Y-113569798D01*
X167588750Y-113567114D01*
X167717012Y-113473927D01*
X167737907Y-113458746D01*
X167737909Y-113458744D01*
X167743251Y-113454863D01*
X167747673Y-113449952D01*
X167866618Y-113317850D01*
X167866619Y-113317849D01*
X167871037Y-113312942D01*
X167940112Y-113193301D01*
X167963220Y-113153277D01*
X167963221Y-113153276D01*
X167966524Y-113147554D01*
X167998834Y-113048115D01*
X168023498Y-112972206D01*
X168023498Y-112972205D01*
X168025538Y-112965927D01*
X168026546Y-112956342D01*
X168044810Y-112782565D01*
X168045500Y-112776000D01*
X168031159Y-112639554D01*
X168026228Y-112592637D01*
X168026228Y-112592636D01*
X168025538Y-112586073D01*
X167966524Y-112404446D01*
X167961937Y-112396500D01*
X167888921Y-112270034D01*
X167871037Y-112239058D01*
X167743251Y-112097137D01*
X167737909Y-112093256D01*
X167737907Y-112093254D01*
X167685089Y-112054880D01*
X167641735Y-111998658D01*
X167635660Y-111927922D01*
X167670055Y-111863849D01*
X168098503Y-111435401D01*
X168160815Y-111401375D01*
X168187598Y-111398496D01*
X168243487Y-111398496D01*
X168249944Y-111397124D01*
X168249949Y-111397123D01*
X168253309Y-111396409D01*
X168255298Y-111396561D01*
G37*
%TD.AperFunction*%
%TA.AperFunction,Conductor*%
G36*
X151666829Y-107022198D02*
G01*
X151676566Y-107024698D01*
X151695271Y-107031102D01*
X151713865Y-107039148D01*
X151754511Y-107045586D01*
X151757531Y-107046064D01*
X151769154Y-107048471D01*
X151811975Y-107059465D01*
X151812531Y-107059500D01*
X151832447Y-107059500D01*
X151852157Y-107061051D01*
X151871945Y-107064185D01*
X151879837Y-107063439D01*
X151915593Y-107060059D01*
X151927451Y-107059500D01*
X160189096Y-107059500D01*
X160257217Y-107079502D01*
X160294473Y-107116423D01*
X160294690Y-107116755D01*
X160315306Y-107184691D01*
X160295919Y-107252989D01*
X160292301Y-107258252D01*
X160288151Y-107262633D01*
X160284480Y-107268953D01*
X160284477Y-107268957D01*
X160228670Y-107365037D01*
X160200788Y-107413039D01*
X160150369Y-107579509D01*
X160143500Y-107656475D01*
X160143500Y-108230385D01*
X160143924Y-108234019D01*
X160143924Y-108234024D01*
X160153397Y-108315269D01*
X160158643Y-108360267D01*
X160161141Y-108367149D01*
X160202810Y-108481945D01*
X160217990Y-108523767D01*
X160313359Y-108669229D01*
X160439633Y-108788849D01*
X160445964Y-108792526D01*
X160451824Y-108796910D01*
X160450543Y-108798623D01*
X160492141Y-108842475D01*
X160506000Y-108899924D01*
X160506000Y-108991116D01*
X160505486Y-109002020D01*
X160503834Y-109009411D01*
X160504083Y-109017337D01*
X160504083Y-109017338D01*
X160505938Y-109076366D01*
X160506000Y-109080323D01*
X160506000Y-109109078D01*
X160506496Y-109113003D01*
X160506496Y-109113004D01*
X160506539Y-109113343D01*
X160507472Y-109125187D01*
X160508861Y-109169383D01*
X160511073Y-109176995D01*
X160514512Y-109188833D01*
X160518522Y-109208195D01*
X160521060Y-109228288D01*
X160523976Y-109235653D01*
X160523977Y-109235657D01*
X160537337Y-109269401D01*
X160541181Y-109280628D01*
X160553514Y-109323078D01*
X160557552Y-109329906D01*
X160563823Y-109340511D01*
X160572519Y-109358262D01*
X160577058Y-109369726D01*
X160579978Y-109377100D01*
X160605965Y-109412867D01*
X160612483Y-109422790D01*
X160634986Y-109460841D01*
X160635355Y-109461259D01*
X160649438Y-109475342D01*
X160662272Y-109490367D01*
X160674054Y-109506583D01*
X160691526Y-109521037D01*
X160707835Y-109534529D01*
X160716615Y-109542519D01*
X160850882Y-109676786D01*
X160884908Y-109739098D01*
X160887097Y-109752710D01*
X160904462Y-109917927D01*
X160906502Y-109924205D01*
X160906502Y-109924206D01*
X160927414Y-109988565D01*
X160963476Y-110099554D01*
X161058963Y-110264942D01*
X161186749Y-110406863D01*
X161192091Y-110410744D01*
X161192093Y-110410746D01*
X161266447Y-110464767D01*
X161341250Y-110519114D01*
X161347278Y-110521798D01*
X161347280Y-110521799D01*
X161509682Y-110594105D01*
X161515713Y-110596790D01*
X161609113Y-110616643D01*
X161696056Y-110635124D01*
X161696061Y-110635124D01*
X161702513Y-110636496D01*
X161893487Y-110636496D01*
X161899939Y-110635124D01*
X161899944Y-110635124D01*
X161986887Y-110616643D01*
X162080287Y-110596790D01*
X162086318Y-110594105D01*
X162248720Y-110521799D01*
X162248722Y-110521798D01*
X162254750Y-110519114D01*
X162329553Y-110464767D01*
X162403907Y-110410746D01*
X162403909Y-110410744D01*
X162409251Y-110406863D01*
X162537037Y-110264942D01*
X162632524Y-110099554D01*
X162668586Y-109988565D01*
X162689498Y-109924206D01*
X162689498Y-109924205D01*
X162691538Y-109917927D01*
X162711500Y-109728000D01*
X162691538Y-109538073D01*
X162689064Y-109530457D01*
X162636839Y-109369726D01*
X162632524Y-109356446D01*
X162628251Y-109349044D01*
X162588775Y-109280671D01*
X162537037Y-109191058D01*
X162488836Y-109137526D01*
X162458121Y-109073521D01*
X162466884Y-109003068D01*
X162512347Y-108948536D01*
X162580075Y-108927241D01*
X162593674Y-108927717D01*
X162655680Y-108933251D01*
X162655690Y-108933251D01*
X162658475Y-108933500D01*
X163257385Y-108933500D01*
X163261019Y-108933076D01*
X163261024Y-108933076D01*
X163379994Y-108919205D01*
X163387267Y-108918357D01*
X163485427Y-108882727D01*
X163543888Y-108861507D01*
X163543889Y-108861507D01*
X163550767Y-108859010D01*
X163696229Y-108763641D01*
X163789783Y-108664883D01*
X163810818Y-108642678D01*
X163810819Y-108642677D01*
X163815849Y-108637367D01*
X163818175Y-108633363D01*
X163874112Y-108591459D01*
X163918184Y-108583500D01*
X164137806Y-108583500D01*
X164205927Y-108603502D01*
X164225151Y-108619842D01*
X164225425Y-108619538D01*
X164230327Y-108623952D01*
X164234749Y-108628863D01*
X164240091Y-108632744D01*
X164240093Y-108632746D01*
X164367188Y-108725085D01*
X164389250Y-108741114D01*
X164395278Y-108743798D01*
X164395280Y-108743799D01*
X164518417Y-108798623D01*
X164563713Y-108818790D01*
X164626609Y-108832159D01*
X164744056Y-108857124D01*
X164744061Y-108857124D01*
X164750513Y-108858496D01*
X164941487Y-108858496D01*
X164947939Y-108857124D01*
X164947944Y-108857124D01*
X165065391Y-108832159D01*
X165128287Y-108818790D01*
X165173583Y-108798623D01*
X165296720Y-108743799D01*
X165296722Y-108743798D01*
X165302750Y-108741114D01*
X165324812Y-108725085D01*
X165451907Y-108632746D01*
X165451909Y-108632744D01*
X165457251Y-108628863D01*
X165461673Y-108623952D01*
X165580618Y-108491850D01*
X165580619Y-108491849D01*
X165585037Y-108486942D01*
X165680524Y-108321554D01*
X165739538Y-108139927D01*
X165759500Y-107950000D01*
X165739538Y-107760073D01*
X165727886Y-107724210D01*
X165682566Y-107584731D01*
X165680524Y-107578446D01*
X165585037Y-107413058D01*
X165568606Y-107394809D01*
X165537889Y-107330804D01*
X165546652Y-107260351D01*
X165592114Y-107205819D01*
X165662242Y-107184500D01*
X165749629Y-107184500D01*
X165817750Y-107204502D01*
X165838724Y-107221405D01*
X167196459Y-108579140D01*
X167230485Y-108641452D01*
X167225420Y-108712267D01*
X167182873Y-108769103D01*
X167146619Y-108787903D01*
X167140713Y-108789158D01*
X167134686Y-108791841D01*
X167134684Y-108791842D01*
X166972280Y-108864149D01*
X166972278Y-108864150D01*
X166966250Y-108866834D01*
X166960909Y-108870714D01*
X166960908Y-108870715D01*
X166817093Y-108975202D01*
X166817091Y-108975204D01*
X166811749Y-108979085D01*
X166807328Y-108983995D01*
X166807327Y-108983996D01*
X166690829Y-109113381D01*
X166683963Y-109121006D01*
X166651638Y-109176995D01*
X166595101Y-109274920D01*
X166588476Y-109286394D01*
X166586434Y-109292679D01*
X166535321Y-109449990D01*
X166529462Y-109468021D01*
X166528772Y-109474584D01*
X166528772Y-109474585D01*
X166526800Y-109493351D01*
X166509500Y-109657948D01*
X166529462Y-109847875D01*
X166531502Y-109854153D01*
X166531502Y-109854154D01*
X166570909Y-109975435D01*
X166587206Y-110025593D01*
X166588476Y-110029502D01*
X166587761Y-110029734D01*
X166596520Y-110095043D01*
X166566415Y-110159341D01*
X166561073Y-110165023D01*
X165128501Y-111597595D01*
X165066189Y-111631621D01*
X165039406Y-111634500D01*
X157812396Y-111634500D01*
X157801482Y-111633986D01*
X157794089Y-111632333D01*
X157786164Y-111632582D01*
X157786163Y-111632582D01*
X157727116Y-111634438D01*
X157723158Y-111634500D01*
X157694422Y-111634500D01*
X157690151Y-111635039D01*
X157678322Y-111635971D01*
X157634117Y-111637361D01*
X157626501Y-111639574D01*
X157626499Y-111639574D01*
X157614661Y-111643013D01*
X157595302Y-111647022D01*
X157583079Y-111648566D01*
X157583078Y-111648566D01*
X157575212Y-111649560D01*
X157567836Y-111652480D01*
X157567837Y-111652480D01*
X157534111Y-111665832D01*
X157522882Y-111669677D01*
X157488035Y-111679801D01*
X157488034Y-111679802D01*
X157480422Y-111682013D01*
X157473599Y-111686048D01*
X157462983Y-111692326D01*
X157445231Y-111701022D01*
X157426400Y-111708478D01*
X157408571Y-111721432D01*
X157390629Y-111734467D01*
X157380711Y-111740982D01*
X157342659Y-111763486D01*
X157342241Y-111763855D01*
X157328158Y-111777938D01*
X157313133Y-111790772D01*
X157296917Y-111802554D01*
X157273048Y-111831407D01*
X157268971Y-111836335D01*
X157260981Y-111845115D01*
X153698501Y-115407595D01*
X153636189Y-115441621D01*
X153609406Y-115444500D01*
X137863413Y-115444500D01*
X137795292Y-115424498D01*
X137748799Y-115370842D01*
X137738695Y-115300568D01*
X137768189Y-115235988D01*
X137771253Y-115232865D01*
X137771251Y-115232863D01*
X137894618Y-115095850D01*
X137894619Y-115095849D01*
X137899037Y-115090942D01*
X137976370Y-114956998D01*
X137991220Y-114931277D01*
X137991221Y-114931276D01*
X137994524Y-114925554D01*
X138032272Y-114809377D01*
X138051498Y-114750206D01*
X138051499Y-114750203D01*
X138053538Y-114743927D01*
X138060772Y-114675105D01*
X138072810Y-114560565D01*
X138073500Y-114554000D01*
X138053538Y-114364073D01*
X138044558Y-114336435D01*
X138042530Y-114265469D01*
X138079192Y-114204671D01*
X138142904Y-114173346D01*
X138164391Y-114171500D01*
X152067616Y-114171500D01*
X152078520Y-114172014D01*
X152085911Y-114173666D01*
X152093837Y-114173417D01*
X152093838Y-114173417D01*
X152152866Y-114171562D01*
X152156823Y-114171500D01*
X152185578Y-114171500D01*
X152189845Y-114170961D01*
X152201687Y-114170028D01*
X152233335Y-114169033D01*
X152237960Y-114168888D01*
X152245883Y-114168639D01*
X152265334Y-114162988D01*
X152284695Y-114158978D01*
X152287420Y-114158634D01*
X152296930Y-114157433D01*
X152296933Y-114157432D01*
X152304788Y-114156440D01*
X152312153Y-114153524D01*
X152312157Y-114153523D01*
X152345901Y-114140163D01*
X152357130Y-114136318D01*
X152399578Y-114123986D01*
X152406406Y-114119948D01*
X152417011Y-114113677D01*
X152434762Y-114104981D01*
X152446226Y-114100442D01*
X152446229Y-114100440D01*
X152453600Y-114097522D01*
X152489368Y-114071535D01*
X152499291Y-114065016D01*
X152537341Y-114042514D01*
X152537759Y-114042145D01*
X152551842Y-114028062D01*
X152566867Y-114015228D01*
X152583083Y-114003446D01*
X152611030Y-113969664D01*
X152619019Y-113960885D01*
X153425658Y-113154246D01*
X153463504Y-113128234D01*
X153612720Y-113061799D01*
X153612722Y-113061798D01*
X153618750Y-113059114D01*
X153654864Y-113032876D01*
X153767907Y-112950746D01*
X153767909Y-112950744D01*
X153773251Y-112946863D01*
X153901037Y-112804942D01*
X153996524Y-112639554D01*
X154040445Y-112504378D01*
X154053498Y-112464206D01*
X154053498Y-112464205D01*
X154055538Y-112457927D01*
X154060499Y-112410731D01*
X154074810Y-112274565D01*
X154075500Y-112268000D01*
X154057134Y-112093254D01*
X154056228Y-112084637D01*
X154056228Y-112084636D01*
X154055538Y-112078073D01*
X154046975Y-112051717D01*
X153998566Y-111902731D01*
X153996524Y-111896446D01*
X153901037Y-111731058D01*
X153865343Y-111691415D01*
X153777673Y-111594048D01*
X153777672Y-111594047D01*
X153773251Y-111589137D01*
X153767909Y-111585256D01*
X153767907Y-111585254D01*
X153624092Y-111480767D01*
X153624091Y-111480766D01*
X153618750Y-111476886D01*
X153612722Y-111474202D01*
X153612720Y-111474201D01*
X153450318Y-111401895D01*
X153450317Y-111401895D01*
X153444287Y-111399210D01*
X153350887Y-111379357D01*
X153263944Y-111360876D01*
X153263939Y-111360876D01*
X153257487Y-111359504D01*
X153066513Y-111359504D01*
X153060061Y-111360876D01*
X153060056Y-111360876D01*
X152973113Y-111379357D01*
X152879713Y-111399210D01*
X152873683Y-111401895D01*
X152873682Y-111401895D01*
X152715528Y-111472310D01*
X152705250Y-111476886D01*
X152703336Y-111472586D01*
X152680783Y-111484901D01*
X152609968Y-111479836D01*
X152603335Y-111475573D01*
X152602750Y-111476886D01*
X152434318Y-111401895D01*
X152434317Y-111401895D01*
X152428287Y-111399210D01*
X152334887Y-111379357D01*
X152247944Y-111360876D01*
X152247939Y-111360876D01*
X152241487Y-111359504D01*
X152050513Y-111359504D01*
X152044061Y-111360876D01*
X152044056Y-111360876D01*
X151957113Y-111379357D01*
X151863713Y-111399210D01*
X151857683Y-111401895D01*
X151857682Y-111401895D01*
X151699528Y-111472310D01*
X151689250Y-111476886D01*
X151688326Y-111474810D01*
X151629506Y-111489080D01*
X151562414Y-111465861D01*
X151518526Y-111410054D01*
X151509500Y-111363223D01*
X151509500Y-107144241D01*
X151529502Y-107076120D01*
X151583158Y-107029627D01*
X151653432Y-107019523D01*
X151666829Y-107022198D01*
G37*
%TD.AperFunction*%
%TA.AperFunction,Conductor*%
G36*
X134919311Y-98443502D02*
G01*
X134965804Y-98497158D01*
X134976902Y-98548176D01*
X134976500Y-98552000D01*
X134977190Y-98558565D01*
X134991502Y-98694731D01*
X134996462Y-98741927D01*
X134998502Y-98748205D01*
X134998502Y-98748206D01*
X135019414Y-98812565D01*
X135055476Y-98923554D01*
X135058779Y-98929276D01*
X135058780Y-98929277D01*
X135073626Y-98954990D01*
X135150963Y-99088942D01*
X135155381Y-99093849D01*
X135155382Y-99093850D01*
X135225090Y-99171269D01*
X135278749Y-99230863D01*
X135284091Y-99234744D01*
X135284093Y-99234746D01*
X135425143Y-99337224D01*
X135433250Y-99343114D01*
X135439278Y-99345798D01*
X135439280Y-99345799D01*
X135601682Y-99418105D01*
X135607713Y-99420790D01*
X135701113Y-99440643D01*
X135788056Y-99459124D01*
X135788061Y-99459124D01*
X135794513Y-99460496D01*
X135850402Y-99460496D01*
X135918523Y-99480498D01*
X135939497Y-99497401D01*
X139742629Y-103300533D01*
X139749989Y-103308621D01*
X139754047Y-103315015D01*
X139759824Y-103320440D01*
X139802898Y-103360889D01*
X139805740Y-103363644D01*
X139826054Y-103383958D01*
X139829465Y-103386603D01*
X139838485Y-103394307D01*
X139870719Y-103424577D01*
X139877663Y-103428394D01*
X139877665Y-103428396D01*
X139888473Y-103434338D01*
X139904997Y-103445192D01*
X139914731Y-103452743D01*
X139914733Y-103452744D01*
X139920997Y-103457603D01*
X139961581Y-103475166D01*
X139972210Y-103480373D01*
X140010972Y-103501682D01*
X140030598Y-103506721D01*
X140049291Y-103513122D01*
X140067885Y-103521168D01*
X140108531Y-103527606D01*
X140111551Y-103528084D01*
X140123174Y-103530491D01*
X140165995Y-103541485D01*
X140166551Y-103541520D01*
X140186467Y-103541520D01*
X140206177Y-103543071D01*
X140225965Y-103546205D01*
X140233857Y-103545459D01*
X140269613Y-103542079D01*
X140281471Y-103541520D01*
X147475386Y-103541520D01*
X147543507Y-103561522D01*
X147564481Y-103578425D01*
X147779725Y-103793669D01*
X147813751Y-103855981D01*
X147808686Y-103926796D01*
X147799754Y-103945754D01*
X147755476Y-104022446D01*
X147696462Y-104204073D01*
X147676500Y-104394000D01*
X147696462Y-104583927D01*
X147755476Y-104765554D01*
X147850963Y-104930942D01*
X147978749Y-105072863D01*
X147984091Y-105076744D01*
X147984093Y-105076746D01*
X148109584Y-105167920D01*
X148133250Y-105185114D01*
X148139278Y-105187798D01*
X148139280Y-105187799D01*
X148301682Y-105260105D01*
X148307713Y-105262790D01*
X148401113Y-105282643D01*
X148488056Y-105301124D01*
X148488061Y-105301124D01*
X148494513Y-105302496D01*
X148685487Y-105302496D01*
X148691939Y-105301124D01*
X148691944Y-105301124D01*
X148778887Y-105282643D01*
X148872287Y-105262790D01*
X148881649Y-105258622D01*
X149040724Y-105187797D01*
X149046750Y-105185114D01*
X149047987Y-105184216D01*
X149115154Y-105167920D01*
X149182246Y-105191139D01*
X149226134Y-105246946D01*
X149230156Y-105258622D01*
X149235011Y-105275332D01*
X149239022Y-105294695D01*
X149241560Y-105314788D01*
X149244476Y-105322153D01*
X149244477Y-105322157D01*
X149257837Y-105355901D01*
X149261681Y-105367128D01*
X149274014Y-105409578D01*
X149278052Y-105416406D01*
X149284323Y-105427011D01*
X149293019Y-105444762D01*
X149297558Y-105456226D01*
X149300478Y-105463600D01*
X149322563Y-105493996D01*
X149326465Y-105499367D01*
X149332983Y-105509290D01*
X149355486Y-105547341D01*
X149355855Y-105547759D01*
X149369938Y-105561842D01*
X149382772Y-105576867D01*
X149394554Y-105593083D01*
X149417855Y-105612359D01*
X149428335Y-105621029D01*
X149437115Y-105629019D01*
X150205595Y-106397499D01*
X150239621Y-106459811D01*
X150242500Y-106486594D01*
X150242500Y-111565481D01*
X150222498Y-111633602D01*
X150210136Y-111649791D01*
X150136963Y-111731058D01*
X150041476Y-111896446D01*
X150039434Y-111902731D01*
X149991026Y-112051717D01*
X149982462Y-112078073D01*
X149981772Y-112084636D01*
X149981772Y-112084637D01*
X149980866Y-112093254D01*
X149962500Y-112268000D01*
X149962875Y-112271571D01*
X149943188Y-112338621D01*
X149889532Y-112385114D01*
X149837190Y-112396500D01*
X139506594Y-112396500D01*
X139438473Y-112376498D01*
X139417499Y-112359595D01*
X138361118Y-111303214D01*
X138327092Y-111240902D01*
X138324903Y-111227290D01*
X138308228Y-111068637D01*
X138308228Y-111068636D01*
X138307538Y-111062073D01*
X138248524Y-110880446D01*
X138153037Y-110715058D01*
X138025251Y-110573137D01*
X138019909Y-110569256D01*
X138019907Y-110569254D01*
X137876092Y-110464767D01*
X137876091Y-110464766D01*
X137870750Y-110460886D01*
X137864722Y-110458202D01*
X137864720Y-110458201D01*
X137702318Y-110385895D01*
X137702317Y-110385895D01*
X137696287Y-110383210D01*
X137602887Y-110363357D01*
X137515944Y-110344876D01*
X137515939Y-110344876D01*
X137509487Y-110343504D01*
X137318513Y-110343504D01*
X137312061Y-110344876D01*
X137312056Y-110344876D01*
X137225113Y-110363357D01*
X137131713Y-110383210D01*
X137125683Y-110385895D01*
X137125682Y-110385895D01*
X136963280Y-110458201D01*
X136963278Y-110458202D01*
X136957250Y-110460886D01*
X136951909Y-110464766D01*
X136951908Y-110464767D01*
X136808093Y-110569254D01*
X136808091Y-110569256D01*
X136802749Y-110573137D01*
X136674963Y-110715058D01*
X136672149Y-110719933D01*
X136616213Y-110763065D01*
X136545477Y-110769140D01*
X136482686Y-110736008D01*
X136447774Y-110674188D01*
X136444500Y-110645650D01*
X136444500Y-109924390D01*
X136461381Y-109861390D01*
X136467220Y-109851277D01*
X136467221Y-109851276D01*
X136470524Y-109845554D01*
X136506586Y-109734565D01*
X136527498Y-109670206D01*
X136527498Y-109670205D01*
X136529538Y-109663927D01*
X136530857Y-109651383D01*
X136548810Y-109480565D01*
X136549500Y-109474000D01*
X136539990Y-109383515D01*
X136530228Y-109290637D01*
X136530228Y-109290636D01*
X136529538Y-109284073D01*
X136470524Y-109102446D01*
X136461381Y-109086610D01*
X136444500Y-109023610D01*
X136444500Y-104392278D01*
X136444507Y-104390959D01*
X136445262Y-104318833D01*
X136445336Y-104311791D01*
X136443849Y-104304912D01*
X136443848Y-104304904D01*
X136436176Y-104269421D01*
X136434115Y-104256839D01*
X136430069Y-104220770D01*
X136429284Y-104213770D01*
X136426967Y-104207116D01*
X136418258Y-104182107D01*
X136414096Y-104167301D01*
X136408498Y-104141411D01*
X136407010Y-104134527D01*
X136388692Y-104095245D01*
X136383895Y-104083431D01*
X136371958Y-104049151D01*
X136371957Y-104049149D01*
X136369641Y-104042498D01*
X136351866Y-104014052D01*
X136344535Y-104000550D01*
X136330363Y-103970159D01*
X136303800Y-103935914D01*
X136296506Y-103925458D01*
X136277269Y-103894672D01*
X136273535Y-103888696D01*
X136245619Y-103860585D01*
X136244158Y-103859023D01*
X136243271Y-103857880D01*
X136194621Y-103809230D01*
X136145742Y-103760009D01*
X136144999Y-103759537D01*
X136144312Y-103758921D01*
X135444425Y-103059033D01*
X135443498Y-103058096D01*
X135393084Y-103006615D01*
X135393083Y-103006614D01*
X135388156Y-103001583D01*
X135351716Y-102978099D01*
X135341381Y-102970673D01*
X135307495Y-102943622D01*
X135277313Y-102929031D01*
X135263900Y-102921504D01*
X135241637Y-102907157D01*
X135241636Y-102907157D01*
X135235711Y-102903338D01*
X135194977Y-102888512D01*
X135183235Y-102883552D01*
X135144213Y-102864688D01*
X135111537Y-102857144D01*
X135096801Y-102852780D01*
X135065288Y-102841310D01*
X135022299Y-102835879D01*
X135009746Y-102833644D01*
X134996305Y-102830541D01*
X134967501Y-102823891D01*
X134960463Y-102823866D01*
X134960459Y-102823866D01*
X134940873Y-102823798D01*
X134927901Y-102823753D01*
X134925748Y-102823681D01*
X134924311Y-102823500D01*
X134855452Y-102823500D01*
X134855013Y-102823499D01*
X134855056Y-102823499D01*
X134786143Y-102823259D01*
X134785286Y-102823451D01*
X134784373Y-102823500D01*
X133058723Y-102823500D01*
X132990602Y-102803498D01*
X132944109Y-102749842D01*
X132934005Y-102679568D01*
X132938890Y-102658564D01*
X132971498Y-102558206D01*
X132971498Y-102558205D01*
X132973538Y-102551927D01*
X132993500Y-102362000D01*
X132975201Y-102187897D01*
X132974228Y-102178637D01*
X132974228Y-102178636D01*
X132973538Y-102172073D01*
X132952720Y-102108000D01*
X132916566Y-101996731D01*
X132914524Y-101990446D01*
X132819037Y-101825058D01*
X132771508Y-101772271D01*
X132745864Y-101743791D01*
X132715146Y-101679784D01*
X132713500Y-101659481D01*
X132713500Y-99120594D01*
X132733502Y-99052473D01*
X132750405Y-99031499D01*
X133321499Y-98460405D01*
X133383811Y-98426379D01*
X133410594Y-98423500D01*
X134851190Y-98423500D01*
X134919311Y-98443502D01*
G37*
%TD.AperFunction*%
%TA.AperFunction,Conductor*%
G36*
X151090162Y-96139051D02*
G01*
X151102114Y-96140944D01*
X151102115Y-96140944D01*
X151109944Y-96142184D01*
X151117836Y-96141438D01*
X151153582Y-96138059D01*
X151165440Y-96137500D01*
X160189096Y-96137500D01*
X160257217Y-96157502D01*
X160294473Y-96194423D01*
X160294690Y-96194755D01*
X160315306Y-96262691D01*
X160295919Y-96330989D01*
X160292301Y-96336252D01*
X160288151Y-96340633D01*
X160284480Y-96346953D01*
X160284477Y-96346957D01*
X160218171Y-96461112D01*
X160200788Y-96491039D01*
X160198667Y-96498043D01*
X160198665Y-96498047D01*
X160167166Y-96602051D01*
X160150369Y-96657509D01*
X160149794Y-96663948D01*
X160149794Y-96663950D01*
X160143790Y-96731229D01*
X160143500Y-96734475D01*
X160143500Y-97308385D01*
X160143924Y-97312019D01*
X160143924Y-97312024D01*
X160154005Y-97398491D01*
X160158643Y-97438267D01*
X160161141Y-97445149D01*
X160206928Y-97571290D01*
X160217990Y-97601767D01*
X160313359Y-97747229D01*
X160400169Y-97829464D01*
X160400763Y-97830027D01*
X160436461Y-97891396D01*
X160433314Y-97962323D01*
X160392320Y-98020289D01*
X160326495Y-98046890D01*
X160314110Y-98047500D01*
X159800580Y-98047500D01*
X159726521Y-98023438D01*
X159720088Y-98018764D01*
X159720086Y-98018763D01*
X159714750Y-98014886D01*
X159708722Y-98012202D01*
X159546318Y-97939895D01*
X159546317Y-97939895D01*
X159540287Y-97937210D01*
X159446887Y-97917357D01*
X159359944Y-97898876D01*
X159359939Y-97898876D01*
X159353487Y-97897504D01*
X159162513Y-97897504D01*
X159156061Y-97898876D01*
X159156056Y-97898876D01*
X159069113Y-97917357D01*
X158975713Y-97937210D01*
X158969683Y-97939895D01*
X158969682Y-97939895D01*
X158807280Y-98012201D01*
X158807278Y-98012202D01*
X158801250Y-98014886D01*
X158795909Y-98018766D01*
X158795908Y-98018767D01*
X158652093Y-98123254D01*
X158652091Y-98123256D01*
X158646749Y-98127137D01*
X158642328Y-98132047D01*
X158642327Y-98132048D01*
X158558926Y-98224675D01*
X158518963Y-98269058D01*
X158489665Y-98319804D01*
X158432725Y-98418427D01*
X158423476Y-98434446D01*
X158403100Y-98497158D01*
X158369629Y-98600172D01*
X158364462Y-98616073D01*
X158344500Y-98806000D01*
X158345190Y-98812565D01*
X158363195Y-98983868D01*
X158364462Y-98995927D01*
X158366502Y-99002205D01*
X158366502Y-99002206D01*
X158387414Y-99066565D01*
X158423476Y-99177554D01*
X158518963Y-99342942D01*
X158523381Y-99347849D01*
X158523382Y-99347850D01*
X158642327Y-99479952D01*
X158646749Y-99484863D01*
X158652091Y-99488744D01*
X158652093Y-99488746D01*
X158789479Y-99588562D01*
X158801250Y-99597114D01*
X158807278Y-99599798D01*
X158807280Y-99599799D01*
X158940942Y-99659309D01*
X158975713Y-99674790D01*
X159063736Y-99693500D01*
X159156056Y-99713124D01*
X159156061Y-99713124D01*
X159162513Y-99714496D01*
X159353487Y-99714496D01*
X159359939Y-99713124D01*
X159359944Y-99713124D01*
X159452264Y-99693500D01*
X159540287Y-99674790D01*
X159584456Y-99655125D01*
X159708722Y-99599798D01*
X159708723Y-99599797D01*
X159714750Y-99597114D01*
X159726521Y-99588562D01*
X159800580Y-99564500D01*
X162183500Y-99564500D01*
X162251621Y-99584502D01*
X162298114Y-99638158D01*
X162309500Y-99690500D01*
X162309500Y-105493996D01*
X162289498Y-105562117D01*
X162252586Y-105599367D01*
X162238893Y-105608345D01*
X162232771Y-105612359D01*
X162227739Y-105617671D01*
X162145705Y-105704268D01*
X162084336Y-105739966D01*
X162013409Y-105736819D01*
X161967235Y-105705088D01*
X161965641Y-105706771D01*
X161924276Y-105667586D01*
X161839367Y-105587151D01*
X161718576Y-105516990D01*
X161695290Y-105503464D01*
X161695289Y-105503463D01*
X161688961Y-105499788D01*
X161681957Y-105497667D01*
X161681953Y-105497665D01*
X161558057Y-105460141D01*
X161522491Y-105449369D01*
X161516052Y-105448794D01*
X161516050Y-105448794D01*
X161448318Y-105442749D01*
X161448312Y-105442749D01*
X161445525Y-105442500D01*
X160846615Y-105442500D01*
X160842981Y-105442924D01*
X160842976Y-105442924D01*
X160724006Y-105456795D01*
X160716733Y-105457643D01*
X160709851Y-105460141D01*
X160574444Y-105509291D01*
X160553233Y-105516990D01*
X160407771Y-105612359D01*
X160288151Y-105738633D01*
X160285825Y-105742637D01*
X160229888Y-105784541D01*
X160185816Y-105792500D01*
X152206595Y-105792500D01*
X152138474Y-105772498D01*
X152117500Y-105755595D01*
X150980425Y-104618521D01*
X150946400Y-104556209D01*
X150943520Y-104529426D01*
X150943520Y-96263500D01*
X150963522Y-96195379D01*
X151017178Y-96148886D01*
X151069520Y-96137500D01*
X151070452Y-96137500D01*
X151090162Y-96139051D01*
G37*
%TD.AperFunction*%
%TA.AperFunction,Conductor*%
G36*
X148597527Y-95649502D02*
G01*
X148618501Y-95666405D01*
X149189595Y-96237499D01*
X149223621Y-96299811D01*
X149226500Y-96326594D01*
X149226500Y-103144446D01*
X149206498Y-103212567D01*
X149152842Y-103259060D01*
X149082568Y-103269164D01*
X149017988Y-103239670D01*
X149011405Y-103233541D01*
X148293371Y-102515507D01*
X148286011Y-102507419D01*
X148281953Y-102501025D01*
X148251748Y-102472660D01*
X148215782Y-102411448D01*
X148212000Y-102380810D01*
X148212000Y-102380115D01*
X148207525Y-102364876D01*
X148206135Y-102363671D01*
X148198452Y-102362000D01*
X148149330Y-102362000D01*
X148099287Y-102351636D01*
X148074428Y-102340878D01*
X148063770Y-102335657D01*
X148025028Y-102314358D01*
X148017345Y-102312386D01*
X148017344Y-102312385D01*
X148005412Y-102309321D01*
X147986708Y-102302917D01*
X147975395Y-102298021D01*
X147975388Y-102298019D01*
X147968116Y-102294872D01*
X147960292Y-102293633D01*
X147960289Y-102293632D01*
X147924445Y-102287955D01*
X147912824Y-102285548D01*
X147875762Y-102276033D01*
X147875761Y-102276033D01*
X147870005Y-102274555D01*
X147869449Y-102274520D01*
X147849528Y-102274520D01*
X147829818Y-102272969D01*
X147817866Y-102271076D01*
X147817865Y-102271076D01*
X147810036Y-102269836D01*
X147802144Y-102270582D01*
X147766398Y-102273961D01*
X147754540Y-102274520D01*
X147088500Y-102274520D01*
X147020379Y-102254518D01*
X146973886Y-102200862D01*
X146962500Y-102148520D01*
X146962500Y-100851548D01*
X147470500Y-100851548D01*
X147470500Y-101835885D01*
X147474975Y-101851124D01*
X147476365Y-101852329D01*
X147484048Y-101854000D01*
X148193885Y-101854000D01*
X148209124Y-101849525D01*
X148210329Y-101848135D01*
X148212000Y-101840452D01*
X148212000Y-101831277D01*
X148211575Y-101823973D01*
X148197719Y-101705120D01*
X148194374Y-101690968D01*
X148140060Y-101541336D01*
X148133550Y-101528337D01*
X148060709Y-101417236D01*
X148040086Y-101349301D01*
X148059466Y-101281000D01*
X148065188Y-101272675D01*
X148071124Y-101264740D01*
X148151078Y-101127090D01*
X148156877Y-101113753D01*
X148203264Y-100960593D01*
X148205714Y-100947961D01*
X148211751Y-100880318D01*
X148212000Y-100874723D01*
X148212000Y-100856115D01*
X148207525Y-100840876D01*
X148206135Y-100839671D01*
X148198452Y-100838000D01*
X147488615Y-100838000D01*
X147473376Y-100842475D01*
X147472171Y-100843865D01*
X147470500Y-100851548D01*
X146962500Y-100851548D01*
X146962500Y-99327548D01*
X147470500Y-99327548D01*
X147470500Y-100311885D01*
X147474975Y-100327124D01*
X147476365Y-100328329D01*
X147484048Y-100330000D01*
X148193885Y-100330000D01*
X148209124Y-100325525D01*
X148210329Y-100324135D01*
X148212000Y-100316452D01*
X148212000Y-100307277D01*
X148211575Y-100299973D01*
X148197719Y-100181120D01*
X148194374Y-100166968D01*
X148140060Y-100017336D01*
X148133550Y-100004337D01*
X148060709Y-99893236D01*
X148040086Y-99825301D01*
X148059466Y-99757000D01*
X148065188Y-99748675D01*
X148071124Y-99740740D01*
X148151078Y-99603090D01*
X148156877Y-99589753D01*
X148203264Y-99436593D01*
X148205714Y-99423961D01*
X148211751Y-99356318D01*
X148212000Y-99350723D01*
X148212000Y-99332115D01*
X148207525Y-99316876D01*
X148206135Y-99315671D01*
X148198452Y-99314000D01*
X147488615Y-99314000D01*
X147473376Y-99318475D01*
X147472171Y-99319865D01*
X147470500Y-99327548D01*
X146962500Y-99327548D01*
X146962500Y-97803548D01*
X147470500Y-97803548D01*
X147470500Y-98787885D01*
X147474975Y-98803124D01*
X147476365Y-98804329D01*
X147484048Y-98806000D01*
X148193885Y-98806000D01*
X148209124Y-98801525D01*
X148210329Y-98800135D01*
X148212000Y-98792452D01*
X148212000Y-98783277D01*
X148211575Y-98775973D01*
X148197719Y-98657120D01*
X148194374Y-98642968D01*
X148140060Y-98493336D01*
X148133550Y-98480337D01*
X148060709Y-98369236D01*
X148040086Y-98301301D01*
X148059466Y-98233000D01*
X148065188Y-98224675D01*
X148071124Y-98216740D01*
X148151078Y-98079090D01*
X148156877Y-98065753D01*
X148203264Y-97912593D01*
X148205714Y-97899961D01*
X148211751Y-97832318D01*
X148212000Y-97826723D01*
X148212000Y-97808115D01*
X148207525Y-97792876D01*
X148206135Y-97791671D01*
X148198452Y-97790000D01*
X147488615Y-97790000D01*
X147473376Y-97794475D01*
X147472171Y-97795865D01*
X147470500Y-97803548D01*
X146962500Y-97803548D01*
X146962500Y-96279548D01*
X147470500Y-96279548D01*
X147470500Y-97263885D01*
X147474975Y-97279124D01*
X147476365Y-97280329D01*
X147484048Y-97282000D01*
X148193885Y-97282000D01*
X148209124Y-97277525D01*
X148210329Y-97276135D01*
X148212000Y-97268452D01*
X148212000Y-97259277D01*
X148211575Y-97251973D01*
X148197719Y-97133120D01*
X148194374Y-97118968D01*
X148140060Y-96969336D01*
X148133550Y-96956337D01*
X148060709Y-96845236D01*
X148040086Y-96777301D01*
X148059466Y-96709000D01*
X148065188Y-96700675D01*
X148071124Y-96692740D01*
X148151078Y-96555090D01*
X148156877Y-96541753D01*
X148203264Y-96388593D01*
X148205714Y-96375961D01*
X148211751Y-96308318D01*
X148212000Y-96302723D01*
X148212000Y-96284115D01*
X148207525Y-96268876D01*
X148206135Y-96267671D01*
X148198452Y-96266000D01*
X147488615Y-96266000D01*
X147473376Y-96270475D01*
X147472171Y-96271865D01*
X147470500Y-96279548D01*
X146962500Y-96279548D01*
X146962500Y-95884000D01*
X146982502Y-95815879D01*
X147036158Y-95769386D01*
X147088500Y-95758000D01*
X148193885Y-95758000D01*
X148209124Y-95753525D01*
X148210329Y-95752135D01*
X148214879Y-95731217D01*
X148218875Y-95732086D01*
X148232002Y-95687379D01*
X148285658Y-95640886D01*
X148338000Y-95629500D01*
X148529406Y-95629500D01*
X148597527Y-95649502D01*
G37*
%TD.AperFunction*%
%TA.AperFunction,Conductor*%
G36*
X142573730Y-95649502D02*
G01*
X142620223Y-95703158D01*
X142630327Y-95773432D01*
X142625443Y-95794431D01*
X142616462Y-95822073D01*
X142615772Y-95828636D01*
X142615772Y-95828637D01*
X142606413Y-95917679D01*
X142596500Y-96012000D01*
X142597190Y-96018565D01*
X142615674Y-96194425D01*
X142616462Y-96201927D01*
X142618502Y-96208205D01*
X142618502Y-96208206D01*
X142650123Y-96305525D01*
X142675476Y-96383554D01*
X142678779Y-96389276D01*
X142678780Y-96389277D01*
X142692186Y-96412496D01*
X142770963Y-96548942D01*
X142775381Y-96553849D01*
X142775382Y-96553850D01*
X142838070Y-96623472D01*
X142898749Y-96690863D01*
X142904091Y-96694744D01*
X142904093Y-96694746D01*
X142981902Y-96751277D01*
X143053250Y-96803114D01*
X143059278Y-96805798D01*
X143059280Y-96805799D01*
X143194963Y-96866209D01*
X143249059Y-96912189D01*
X143269708Y-96980117D01*
X143252833Y-97044316D01*
X143187777Y-97156996D01*
X143183476Y-97164446D01*
X143174627Y-97191682D01*
X143131531Y-97324318D01*
X143124462Y-97346073D01*
X143123772Y-97352636D01*
X143123772Y-97352637D01*
X143113711Y-97448366D01*
X143104500Y-97536000D01*
X143105190Y-97542565D01*
X143116790Y-97652928D01*
X143124462Y-97725927D01*
X143126502Y-97732205D01*
X143126502Y-97732206D01*
X143158103Y-97829464D01*
X143183476Y-97907554D01*
X143186779Y-97913276D01*
X143186780Y-97913277D01*
X143243489Y-98011500D01*
X143278963Y-98072942D01*
X143283381Y-98077849D01*
X143283382Y-98077850D01*
X143291341Y-98086689D01*
X143322058Y-98150696D01*
X143313295Y-98221150D01*
X143291341Y-98255311D01*
X143286779Y-98260378D01*
X143278963Y-98269058D01*
X143275662Y-98274776D01*
X143275660Y-98274779D01*
X143192725Y-98418427D01*
X143183476Y-98434446D01*
X143163100Y-98497158D01*
X143129629Y-98600172D01*
X143124462Y-98616073D01*
X143104500Y-98806000D01*
X143105190Y-98812565D01*
X143123195Y-98983868D01*
X143124462Y-98995927D01*
X143126502Y-99002205D01*
X143126502Y-99002206D01*
X143147414Y-99066565D01*
X143183476Y-99177554D01*
X143278963Y-99342942D01*
X143283381Y-99347849D01*
X143283382Y-99347850D01*
X143402327Y-99479952D01*
X143406749Y-99484863D01*
X143412091Y-99488744D01*
X143412093Y-99488746D01*
X143455254Y-99520104D01*
X143498608Y-99576326D01*
X143504683Y-99647062D01*
X143471552Y-99709854D01*
X143432442Y-99737147D01*
X143396019Y-99753363D01*
X143313280Y-99790201D01*
X143313278Y-99790202D01*
X143307250Y-99792886D01*
X143301909Y-99796766D01*
X143301908Y-99796767D01*
X143158093Y-99901254D01*
X143158091Y-99901256D01*
X143152749Y-99905137D01*
X143148328Y-99910047D01*
X143148327Y-99910048D01*
X143038075Y-100032496D01*
X143024963Y-100047058D01*
X143011522Y-100070339D01*
X142941024Y-100192445D01*
X142929476Y-100212446D01*
X142927434Y-100218731D01*
X142887675Y-100341098D01*
X142870462Y-100394073D01*
X142850500Y-100584000D01*
X142870462Y-100773927D01*
X142872502Y-100780205D01*
X142872502Y-100780206D01*
X142904123Y-100877525D01*
X142929476Y-100955554D01*
X143024963Y-101120942D01*
X143029381Y-101125849D01*
X143029382Y-101125850D01*
X143151693Y-101261690D01*
X143182411Y-101325697D01*
X143173646Y-101396151D01*
X143151693Y-101430309D01*
X143024963Y-101571058D01*
X143021662Y-101576776D01*
X142945756Y-101708249D01*
X142929476Y-101736446D01*
X142913964Y-101784188D01*
X142891281Y-101854000D01*
X142870462Y-101918073D01*
X142850500Y-102108000D01*
X142853375Y-102135349D01*
X142840604Y-102205186D01*
X142792103Y-102257033D01*
X142728065Y-102274520D01*
X140560615Y-102274520D01*
X140492494Y-102254518D01*
X140471520Y-102237615D01*
X136872500Y-98638595D01*
X136838474Y-98576283D01*
X136843539Y-98505468D01*
X136886086Y-98448632D01*
X136952606Y-98423821D01*
X136961595Y-98423500D01*
X137081616Y-98423500D01*
X137092520Y-98424014D01*
X137099911Y-98425666D01*
X137107837Y-98425417D01*
X137107838Y-98425417D01*
X137166866Y-98423562D01*
X137170823Y-98423500D01*
X137199578Y-98423500D01*
X137203845Y-98422961D01*
X137215687Y-98422028D01*
X137247335Y-98421033D01*
X137251960Y-98420888D01*
X137259883Y-98420639D01*
X137279334Y-98414988D01*
X137298695Y-98410978D01*
X137301420Y-98410634D01*
X137310930Y-98409433D01*
X137310933Y-98409432D01*
X137318788Y-98408440D01*
X137326153Y-98405524D01*
X137326157Y-98405523D01*
X137359901Y-98392163D01*
X137371130Y-98388318D01*
X137413578Y-98375986D01*
X137424992Y-98369236D01*
X137431011Y-98365677D01*
X137448762Y-98356981D01*
X137460226Y-98352442D01*
X137460229Y-98352440D01*
X137467600Y-98349522D01*
X137503368Y-98323535D01*
X137513291Y-98317016D01*
X137518345Y-98314027D01*
X137551341Y-98294514D01*
X137551759Y-98294145D01*
X137565842Y-98280062D01*
X137580867Y-98267228D01*
X137597083Y-98255446D01*
X137625030Y-98221664D01*
X137633019Y-98212885D01*
X138380503Y-97465401D01*
X138442815Y-97431375D01*
X138469598Y-97428496D01*
X138525487Y-97428496D01*
X138531939Y-97427124D01*
X138531944Y-97427124D01*
X138620816Y-97408233D01*
X138712287Y-97388790D01*
X138760970Y-97367115D01*
X138880720Y-97313799D01*
X138880722Y-97313798D01*
X138886750Y-97311114D01*
X138892480Y-97306951D01*
X139035907Y-97202746D01*
X139035909Y-97202744D01*
X139041251Y-97198863D01*
X139077393Y-97158723D01*
X139164618Y-97061850D01*
X139164619Y-97061849D01*
X139169037Y-97056942D01*
X139238451Y-96936714D01*
X139261220Y-96897277D01*
X139261221Y-96897276D01*
X139264524Y-96891554D01*
X139302775Y-96773829D01*
X139321498Y-96716206D01*
X139321498Y-96716205D01*
X139323538Y-96709927D01*
X139324511Y-96700675D01*
X139342810Y-96526565D01*
X139343500Y-96520000D01*
X139329047Y-96382491D01*
X139324228Y-96336637D01*
X139324228Y-96336636D01*
X139323538Y-96330073D01*
X139316470Y-96308318D01*
X139266566Y-96154731D01*
X139264524Y-96148446D01*
X139244369Y-96113537D01*
X139195167Y-96028316D01*
X139178429Y-95959321D01*
X139201649Y-95892229D01*
X139253037Y-95850209D01*
X139388720Y-95789799D01*
X139388722Y-95789798D01*
X139394750Y-95787114D01*
X139419151Y-95769386D01*
X139543907Y-95678746D01*
X139543909Y-95678744D01*
X139549251Y-95674863D01*
X139553672Y-95669953D01*
X139558575Y-95665538D01*
X139559701Y-95666789D01*
X139613000Y-95633951D01*
X139646194Y-95629500D01*
X142505609Y-95629500D01*
X142573730Y-95649502D01*
G37*
%TD.AperFunction*%
%TA.AperFunction,Conductor*%
G36*
X137598326Y-95903502D02*
G01*
X137644819Y-95957158D01*
X137654923Y-96027432D01*
X137639326Y-96072496D01*
X137595476Y-96148446D01*
X137593434Y-96154731D01*
X137543531Y-96308318D01*
X137536462Y-96330073D01*
X137535772Y-96336636D01*
X137535772Y-96336637D01*
X137519097Y-96495290D01*
X137492084Y-96560946D01*
X137482882Y-96571214D01*
X136934501Y-97119595D01*
X136872189Y-97153621D01*
X136845406Y-97156500D01*
X133174384Y-97156500D01*
X133163480Y-97155986D01*
X133156089Y-97154334D01*
X133148163Y-97154583D01*
X133148162Y-97154583D01*
X133089134Y-97156438D01*
X133085177Y-97156500D01*
X133056422Y-97156500D01*
X133052155Y-97157039D01*
X133040313Y-97157972D01*
X133008665Y-97158967D01*
X133004040Y-97159112D01*
X132996117Y-97159361D01*
X132978615Y-97164446D01*
X132976667Y-97165012D01*
X132957305Y-97169022D01*
X132954580Y-97169366D01*
X132945070Y-97170567D01*
X132945067Y-97170568D01*
X132937212Y-97171560D01*
X132929847Y-97174476D01*
X132929843Y-97174477D01*
X132896099Y-97187837D01*
X132884872Y-97191681D01*
X132842422Y-97204014D01*
X132835594Y-97208052D01*
X132824989Y-97214323D01*
X132807238Y-97223019D01*
X132795774Y-97227558D01*
X132795771Y-97227560D01*
X132788400Y-97230478D01*
X132753803Y-97255615D01*
X132752633Y-97256465D01*
X132742710Y-97262983D01*
X132704659Y-97285486D01*
X132704241Y-97285855D01*
X132690158Y-97299938D01*
X132675133Y-97312772D01*
X132658917Y-97324554D01*
X132640005Y-97347415D01*
X132630971Y-97358335D01*
X132622981Y-97367115D01*
X131687487Y-98302609D01*
X131679399Y-98309969D01*
X131673005Y-98314027D01*
X131667580Y-98319804D01*
X131627131Y-98362878D01*
X131624376Y-98365720D01*
X131604062Y-98386034D01*
X131601417Y-98389445D01*
X131593713Y-98398465D01*
X131563443Y-98430699D01*
X131559626Y-98437643D01*
X131559624Y-98437645D01*
X131553682Y-98448453D01*
X131542828Y-98464977D01*
X131530417Y-98480977D01*
X131527270Y-98488248D01*
X131527270Y-98488249D01*
X131512859Y-98521551D01*
X131507638Y-98532207D01*
X131486338Y-98570952D01*
X131484366Y-98578635D01*
X131484365Y-98578636D01*
X131481301Y-98590568D01*
X131474897Y-98609272D01*
X131470001Y-98620585D01*
X131469999Y-98620592D01*
X131466852Y-98627864D01*
X131465613Y-98635688D01*
X131465612Y-98635691D01*
X131459935Y-98671535D01*
X131457528Y-98683156D01*
X131448013Y-98720218D01*
X131446535Y-98725975D01*
X131446500Y-98726531D01*
X131446500Y-98746452D01*
X131444949Y-98766162D01*
X131441816Y-98785944D01*
X131442562Y-98793836D01*
X131445941Y-98829582D01*
X131446500Y-98841440D01*
X131446500Y-101659481D01*
X131426498Y-101727602D01*
X131414136Y-101743791D01*
X131340963Y-101825058D01*
X131338149Y-101829933D01*
X131282213Y-101873065D01*
X131211477Y-101879140D01*
X131148686Y-101846008D01*
X131113774Y-101784188D01*
X131110500Y-101755650D01*
X131110500Y-98296182D01*
X131110507Y-98294863D01*
X131111244Y-98224490D01*
X131111335Y-98215791D01*
X131102177Y-98173434D01*
X131100116Y-98160851D01*
X131096069Y-98124768D01*
X131096069Y-98124767D01*
X131095284Y-98117770D01*
X131084256Y-98086103D01*
X131080098Y-98071306D01*
X131074501Y-98045419D01*
X131074499Y-98045413D01*
X131073010Y-98038526D01*
X131054695Y-97999250D01*
X131049897Y-97987436D01*
X131037956Y-97953146D01*
X131035641Y-97946498D01*
X131017873Y-97918064D01*
X131010531Y-97904542D01*
X130999339Y-97880541D01*
X130996363Y-97874158D01*
X130969804Y-97839918D01*
X130962511Y-97829464D01*
X130943267Y-97798667D01*
X130943263Y-97798662D01*
X130939535Y-97792696D01*
X130911626Y-97764592D01*
X130910160Y-97763025D01*
X130909271Y-97761879D01*
X130860653Y-97713261D01*
X130860343Y-97712950D01*
X130811742Y-97664009D01*
X130811001Y-97663539D01*
X130810318Y-97662926D01*
X129348472Y-96201080D01*
X129347544Y-96200143D01*
X129297084Y-96148615D01*
X129297083Y-96148614D01*
X129292156Y-96143583D01*
X129255716Y-96120099D01*
X129245372Y-96112666D01*
X129239492Y-96107972D01*
X129198733Y-96049842D01*
X129195871Y-95978903D01*
X129231817Y-95917679D01*
X129295156Y-95885607D01*
X129318100Y-95883500D01*
X137530205Y-95883500D01*
X137598326Y-95903502D01*
G37*
%TD.AperFunction*%
%TD*%
M02*
